<?xml version="1.0" encoding="utf-8"?>
<!-- Generator: Adobe Illustrator 16.0.0, SVG Export Plug-In . SVG Version: 6.00 Build 0)  -->
<!DOCTYPE svg PUBLIC "-//W3C//DTD SVG 1.1//EN" "http://www.w3.org/Graphics/SVG/1.1/DTD/svg11.dtd">
<svg version="1.1" id="Calque_1" xmlns="http://www.w3.org/2000/svg" xmlns:xlink="http://www.w3.org/1999/xlink" x="0px" y="0px"
	 width="432px" height="432px" viewBox="0 0 432 432" enable-background="new 0 0 432 432" xml:space="preserve">
<g>
	<g>
		<path d="M385.349,174.419c-0.941,0.002-1.27,0.229-1.516,1.182c-0.42,1.632-0.932,3.222-1.773,4.694
			c-1.475,2.576-3.15,5.014-5.156,7.2c-0.781,0.849-1.672,1.604-2.576,2.325c-0.545,0.436-1.209,0.722-1.807,1.067
			c-1.229-1.1-1.74-2.44-2.119-3.835c-0.592-2.18-0.725-4.415-0.639-6.659c0.174-4.526,0.896-8.982,1.73-13.425
			c0.107-0.563,0.316-0.896,0.873-1.137c6.074-2.637,7.328-8.656,6.176-13.711c-0.402-1.758-1.387-2.44-3.172-2.537
			c-2.061-0.111-3.723,0.685-4.807,2.385c-1.049,1.643-1.996,3.372-2.781,5.154c-1.514,3.447-2.551,7.071-3.342,10.743
			c-0.594,2.759-1.479,5.372-2.779,7.871c-1.434,2.765-2.789,5.572-4.191,8.355c-0.16,0.32-0.395,0.603-0.746,1.132
			c-0.113-0.718-0.217-1.107-0.227-1.5c-0.064-2.477-0.148-4.954-0.146-7.431c0.004-3.677,0.105-7.354,0.09-11.032
			c-0.004-1.025-0.219-2.063-0.436-3.074c-0.309-1.43-1.262-2.271-2.678-2.599c-1.402-0.324-2.773-0.202-4.121,0.29
			c-1.465,0.534-2.922,1.09-4.404,1.563c-0.852,0.271-1.75,0.397-2.764,0.618c0-0.629,0.021-1.063-0.004-1.494
			c-0.146-2.511-0.197-5.034-0.486-7.529c-0.301-2.615-1.195-5.063-2.953-7.095c-1.768-2.039-4.631-1.653-5.832,0.758
			c-0.213,0.427-0.381,0.882-0.521,1.339c-0.842,2.757-0.775,5.523,0.002,8.275c0.838,2.963,2.563,5.207,5.428,6.487
			c0.137,0.062,0.25,0.179,0.453,0.328c-0.197,1.531-0.369,3.078-0.598,4.614c-0.99,6.671-2.658,13.164-5.311,19.37
			c-0.813,1.898-1.92,3.676-2.957,5.472c-0.32,0.559-0.854,0.995-1.439,1.656c-0.354-0.901-0.693-1.54-0.854-2.221
			c-0.447-1.903-0.902-3.812-1.207-5.742c-0.723-4.59-0.889-9.227-0.99-13.865c-0.072-3.317-0.109-6.637-0.268-9.951
			c-0.076-1.628-0.34-3.254-0.607-4.865c-0.182-1.111-0.936-1.693-2.066-1.848c-1.803-0.246-2.719,0.201-3.354,1.933
			c-0.674,1.836-1.238,3.714-1.824,5.58c-1.99,6.329-3.973,12.661-6.525,18.791c-0.781,1.873-1.813,3.644-2.756,5.446
			c-0.189,0.362-0.506,0.659-0.896,1.152c-0.266-0.838-0.523-1.424-0.631-2.037c-0.35-2.006-0.746-4.011-0.934-6.035
			c-0.271-2.902-0.354-5.823-0.559-8.734c-0.102-1.435-0.234-2.87-0.463-4.289c-0.207-1.283-0.838-1.669-2.348-1.663
			c-1.41,0.005-1.748,0.276-2.074,1.597c-1.633,6.634-3.238,13.273-4.916,19.896c-1.295,5.113-2.633,10.223-4.555,15.143
			c-0.795,2.039-1.867,3.97-2.842,5.936c-0.18,0.362-0.488,0.66-0.824,1.102c-0.773-2.097-1.061-4.078-1.334-6.052
			c-1.213-8.761-1.973-17.572-2.098-26.405c-0.15-10.672,0.078-21.349,0.145-32.022c0.002-0.232,0.049-0.464,0.088-0.832
			c2.246,0.217,4.348,0.431,6.455,0.622c6.064,0.552,12.068,0.205,17.953-1.425c6.695-1.855,12.953-4.781,19.053-8.064
			c0.488-0.263,0.965-0.586,1.357-0.974c0.297-0.292,0.512-0.711,0.639-1.112c0.057-0.181-0.127-0.552-0.309-0.673
			c-0.545-0.364-1.635-0.218-1.963,0.316c-0.494,0.804-1.252,1.213-2.035,1.614c-4.348,2.224-8.85,4.085-13.455,5.695
			c-5.834,2.038-11.834,3.037-18.025,2.635c-2.51-0.162-5.018-0.409-7.525-0.625c-0.701-0.06-1.4-0.145-2.119-0.22
			c0-0.682,0.004-1.237,0-1.792c-0.037-4.956-0.029-9.912-0.145-14.866c-0.031-1.423-0.367-2.849-0.654-4.255
			c-0.197-0.959-0.529-1.146-1.406-1.103c-0.764,0.039-0.889,0.166-1.098,1.124c-0.051,0.234-0.105,0.469-0.137,0.706
			c-0.738,5.706-1.477,11.412-2.211,17.118c-0.117,0.899-0.227,1.799-0.352,2.789c-0.533,0-0.967-0.003-1.4,0
			c-3.328,0.03-6.623,0.341-9.869,1.117c-2.063,0.494-4.09,1.104-5.977,2.1c-0.695,0.366-1.408,0.734-1.727,1.572
			c0.725,0.606,1.436,0.512,2.16,0.191c0.658-0.29,1.291-0.643,1.965-0.882c4.34-1.541,8.83-2.183,13.422-2.162
			c0.385,0.002,0.77,0.061,1.156,0.093c0.031,0.223,0.068,0.338,0.061,0.449c-0.311,4.266-0.674,8.528-0.93,12.797
			c-0.393,6.628-0.582,13.262-0.223,19.899c0.057,1.05-0.014,2.058-0.336,3.071c-0.559,1.75-1.02,3.531-1.557,5.289
			c-1.379,4.51-2.711,9.039-4.723,13.32c-0.662,1.404-1.453,2.756-2.271,4.077c-0.498,0.804-1.162,1.506-2.008,1.945
			c-1.023-0.817-1.613-1.755-2.24-3.544c-0.947-2.696-1.42-5.498-1.662-8.327c-0.535-6.253-0.92-12.519-1.502-18.767
			c-0.326-3.496-0.879-6.975-1.416-10.446c-0.258-1.659-0.787-3.263-1.65-4.73c-0.707-1.202-1.717-2.001-3.098-2.251
			c-2.016-0.363-3.842,0.048-5.297,1.546c-0.805,0.827-1.561,1.718-2.232,2.657c-2.693,3.762-4.674,7.901-6.406,12.173
			c-1.951,4.811-3.053,9.835-3.836,14.942c-0.18,1.175-0.377,2.348-0.566,3.521c-0.371-0.906-0.533-1.804-0.648-2.705
			c-0.484-3.807-0.92-7.619-1.455-11.418c-0.189-1.335-0.508-2.673-0.953-3.943c-0.396-1.125-1.582-1.568-3.02-1.389
			c-1.25,0.156-1.637,0.529-1.943,1.892c-0.418,1.871-0.789,3.754-1.254,5.613c-1.271,5.086-2.766,10.104-5.031,14.849
			c-0.701,1.471-1.553,2.886-2.471,4.234c-0.975,1.429-2.27,2.579-3.762,3.477c-0.986,0.592-1.199,0.583-1.85-0.393
			c-0.504-0.759-1.008-1.571-1.262-2.432c-0.498-1.682-0.973-3.394-1.188-5.125c-0.906-7.289-0.781-14.602-0.283-21.912
			c0.064-0.944,0.701-1.563,1.631-1.686c0.316-0.042,0.631-0.099,0.939-0.177c4.742-1.202,8.172-5.579,8.154-10.465
			c-0.01-2.495-0.818-4.685-2.58-6.519c-2.266-2.363-6.99-2.688-9.246,0.64c-0.758,1.118-1.432,2.313-1.99,3.544
			c-1.363,2.996-2.225,6.16-2.895,9.375c-0.316,1.515-0.572,3.043-0.855,4.555c-0.184,0.039-0.299,0.088-0.41,0.084
			c-2.814-0.091-5.451-0.743-7.809-2.36c-0.756-0.52-1.549-0.988-2.342-1.453c-0.814-0.476-1.699-0.683-2.648-0.589
			c-1.203,0.121-1.709,0.619-1.775,1.832c-0.035,0.678-0.016,1.358-0.006,2.038c0.031,2.598,0.191,5.2,0.08,7.791
			c-0.164,3.791-0.461,7.579-0.809,11.358c-0.299,3.264-0.75,6.519-1.66,9.675c-0.395,1.373-0.977,2.698-1.566,4.004
			c-0.283,0.63-0.729,1.218-1.574,1.542c-0.441-0.753-0.934-1.438-1.262-2.193c-0.523-1.207-1.008-2.44-1.385-3.699
			c-1.439-4.802-2.184-9.74-2.869-14.691c-0.77-5.54-1.543-11.081-2.412-16.606c-0.283-1.806-0.871-3.563-1.33-5.343
			c-0.281-1.1-1.045-1.551-2.133-1.535c-0.318,0.005-0.643,0.01-0.955,0.063c-0.982,0.168-1.479,0.684-1.547,1.687
			c-0.053,0.797-0.074,1.603-0.02,2.397c0.369,5.502,0.674,11.011,1.188,16.5c0.248,2.649,0.463,5.238-0.398,7.809
			c-0.137,0.415-0.176,0.861-0.285,1.287c-1.27,4.952-2.498,9.916-3.836,14.851c-0.588,2.161-1.504,4.217-2.744,6.103
			c-0.246,0.376-0.564,0.705-0.979,1.215c-0.445-0.985-0.822-1.732-1.127-2.507c-1.352-3.444-2.154-7.035-2.592-10.692
			c-0.508-4.244-0.959-8.5-1.273-12.763c-0.451-6.14-0.939-12.283-1.084-18.434c-0.256-10.926-0.803-15.295-2.146-26.131
			c-0.133-1.063-0.426-2.113-0.73-3.143c-0.215-0.72-0.789-1.073-1.559-1.075c-0.762-0.002-1.346,0.312-1.598,1.03
			c-0.262,0.749-0.492,1.521-0.627,2.304c-0.535,3.123-0.688,6.28-0.629,9.439c0.182,10.074,0.078,13.648,0.281,23.723
			c0.006,0.293-0.041,0.585-0.072,1.01c-0.471-0.365-0.811-0.631-1.154-0.893c-1.313-1-2.695-1.897-4.313-2.291
			c-2.979-0.724-6.053-0.127-7.635,3.466c-0.258,0.585-0.508,1.175-0.723,1.774c-1.729,4.846-2.293,9.873-2.277,14.979
			c0.008,3.257,0.48,6.454,1.566,9.54c0.588,1.673,1.363,3.243,2.563,4.573c0.984,1.092,2.146,1.913,3.605,2.248
			c3.131,0.719,5.803-0.122,7.887-2.541c0.957-1.111,1.686-2.42,2.51-3.646c0.236-0.353,0.438-0.727,0.764-1.272
			c0.182,0.593,0.289,0.961,0.406,1.326c0.412,1.294,0.775,2.605,1.256,3.875c0.881,2.326,2.021,4.506,3.58,6.478
			c2.055,2.604,7.182,3.545,9.492-0.689c0.916-1.679,1.758-3.411,2.469-5.186c1.498-3.73,2.174-7.679,2.854-11.618
			c0.111-0.635,0.225-1.268,0.338-1.899c0.438,0.643,0.641,1.277,0.836,1.913c0.842,2.723,1.895,5.351,3.531,7.709
			c0.711,1.024,1.533,1.947,2.607,2.612c3.537,2.185,7.639,0.873,9.207-2.951c0.182-0.442,0.361-0.895,0.465-1.359
			c0.352-1.559,0.75-3.111,0.984-4.689c1.314-8.912,1.857-17.884,1.939-26.888c0.004-0.382,0.033-0.763,0.063-1.376
			c1.842,1.244,3.598,2.297,5.613,2.679c1.986,0.377,4,0.591,6.053,0.884c-0.098,1.101-0.199,2.169-0.285,3.237
			c-0.459,5.754-0.531,11.503,0.357,17.228c0.43,2.782,1.172,5.473,2.746,7.86c1.113,1.688,2.561,2.963,4.553,3.505
			c3.104,0.844,5.936,0.332,8.432-1.763c2.355-1.979,3.973-4.491,5.064-7.322c1.209-3.129,2.281-6.312,3.412-9.47
			c0.121-0.336,0.252-0.668,0.379-1.002c0.342,1.121,0.449,2.182,0.584,3.24c0.393,3.1,0.943,6.172,2.15,9.07
			c0.549,1.32,1.279,2.57,1.982,3.82c0.389,0.688,1.033,1.094,1.832,1.229c1.92,0.323,2.643-0.229,2.879-2.147
			c0.547-4.481,1.072-8.967,1.688-13.44c1.168-8.48,4.145-16.316,8.617-23.589c0.813-1.321,1.805-2.536,2.773-3.753
			c0.387-0.484,0.934-0.838,1.43-1.272c0.797,0.774,0.947,1.696,1.119,2.583c0.609,3.116,0.531,6.287,0.682,9.438
			c0.291,6.029,0.469,12.065,0.807,18.092c0.189,3.393,0.697,6.758,1.65,10.037c0.596,2.045,1.441,3.962,2.674,5.728
			c2.525,3.617,9.385,4.49,12.008-0.764c0.766-1.532,1.533-3.09,2.061-4.713c1.199-3.685,2.246-7.417,3.357-11.13
			c0.105-0.354,0.229-0.703,0.344-1.055c0.25,0.624,0.336,1.214,0.391,1.806c0.455,4.896,1.02,9.779,1.975,14.606
			c0.506,2.553,1.205,5.038,2.396,7.386c1.762,3.467,7.059,3.524,9.006,0.671c0.629-0.922,1.297-1.845,1.744-2.857
			c0.955-2.151,1.975-4.306,2.615-6.559c1.332-4.687,2.443-9.435,3.625-14.161c0.521-2.087,0.996-4.186,1.492-6.279
			c0.08-0.002,0.16-0.004,0.24-0.006c0.064,0.496,0.141,0.99,0.191,1.487c0.232,2.196,0.676,4.323,1.621,6.353
			c1.605,3.44,6.602,3.334,8.332,0.778c0.471-0.694,1.025-1.353,1.371-2.106c1.066-2.32,2.189-4.629,3.031-7.034
			c1.48-4.222,2.764-8.512,4.133-12.771c0.127-0.397,0.283-0.786,0.428-1.179c0.092,1.731,0.006,3.404-0.066,5.077
			c-0.232,5.49,0.002,10.951,1.08,16.354c0.408,2.042,0.949,4.048,1.988,5.881c0.734,1.296,1.719,2.35,3.186,2.747
			c2.977,0.803,5.639,0.315,7.717-2.144c0.541-0.638,1.076-1.308,1.467-2.041c0.918-1.725,1.867-3.449,2.598-5.259
			c2.59-6.417,4.029-13.125,4.846-19.978c0.141-1.178,0.256-2.358,0.389-3.584c2.854,0.024,5.326-1.219,8.08-1.789
			c-0.053,0.685-0.078,1.198-0.135,1.708c-0.418,3.772-0.916,7.538-1.24,11.318c-0.27,3.153-0.217,6.314,0.6,9.412
			c0.402,1.524,1.018,2.946,2.092,4.131c2.338,2.569,6.785,2.231,8.568-0.72c0.803-1.327,1.389-2.784,2.068-4.184
			c0.129-0.267,0.244-0.541,0.379-0.842c0.111,0.119,0.199,0.169,0.209,0.229c0.053,0.355,0.088,0.712,0.125,1.069
			c0.219,2.047,0.705,4.013,1.748,5.812c1.1,1.897,2.695,3.147,4.846,3.624c4.176,0.924,7.678-0.296,10.445-3.507
			c2.279-2.645,4.158-5.569,5.66-8.729c0.801-1.685,1.23-3.458,1.264-5.326C386.688,174.702,386.409,174.417,385.349,174.419z
			 M375.214,153.174c1.703,3.819-0.24,8.371-2.926,10.078C372.981,159.756,373.794,156.459,375.214,153.174z M214.095,153.775
			c0.297,0.233,0.617,0.442,0.885,0.706c1.473,1.453,2.174,3.244,2.15,5.292c-0.045,3.873-1.744,6.822-5.08,8.8
			c-0.531,0.315-1.139,0.505-1.754,0.771C210.028,165.834,212.427,155.987,214.095,153.775z M150.108,198.412
			c-1.289,2.44-2.691,4.822-4.59,6.845c-0.785,0.836-1.736,1.517-2.637,2.237c-0.516,0.413-1.025,0.289-1.516-0.12
			c-0.941-0.785-1.607-1.768-2.117-2.866c-0.969-2.086-1.529-4.3-1.799-6.561c-0.313-2.611-0.445-5.244-0.559-6.657
			c0.311-5.253,0.486-9.292,1.752-13.171c0.32-0.98,0.707-1.959,1.213-2.855c0.668-1.189,1.121-1.263,2.342-0.66
			c2.33,1.147,4.018,2.966,5.451,5.089c0.852,1.263,1.246,2.578,1.363,4.116c0.338,4.417,0.865,8.819,1.289,13.229
			C150.345,197.49,150.313,198.024,150.108,198.412z M338.292,159.575c-0.109,0.006-0.217,0.012-0.324,0.018
			c-2.52-3.841-3.174-8.007-2.076-12.692c0.297,0.321,0.508,0.484,0.635,0.698c0.916,1.532,1.457,3.216,1.611,4.973
			c0.189,2.142,0.193,4.299,0.266,6.45C338.409,159.205,338.331,159.391,338.292,159.575z"/>
		<path d="M252.521,305.644c-0.193,0.523-0.334,1.067-0.479,1.607c-0.484,1.813-0.924,3.641-1.445,5.443
			c-1.307,4.5-2.82,8.924-5.289,12.944c-0.705,1.149-1.51,2.276-2.451,3.237c-2.193,2.243-4.586,2.341-7.076,0.438
			c-1.363-1.038-2.355-2.382-3.135-3.891c-1.166-2.263-1.801-4.692-2.217-7.188c-0.768-4.605-0.703-9.236-0.357-13.871
			c0.123-1.627,0.293-3.249,0.443-4.904c0.648-0.105,1.201-0.176,1.744-0.29c1.484-0.315,2.986-0.571,4.439-0.996
			c1.979-0.581,3.771-1.546,5.174-3.114c1.33-1.491,2.092-3.209,1.951-5.245c-0.287-4.101-4.664-8.812-10.232-7.791
			c-2.521,0.463-4.35,1.908-5.748,3.981c-1.4,2.081-2.258,4.398-2.893,6.807c-0.859,3.255-1.383,6.568-1.697,9.914
			c-0.127,1.369-0.42,2.625-1.178,3.829c-2.594,4.134-4.303,8.64-5.377,13.397c-0.396,1.751-0.895,3.481-1.369,5.214
			c-0.096,0.354-0.291,0.683-0.441,1.023c-0.08-0.017-0.162-0.033-0.242-0.05c-0.102-0.657-0.225-1.311-0.301-1.971
			c-0.48-4.208-0.932-8.42-1.432-12.627c-0.383-3.231-1.082-6.381-2.617-9.293c-1.348-2.556-3.43-4.085-6.305-4.406
			c-1.061-0.118-2.188-0.164-3.217,0.063c-1.941,0.429-3.836,1.077-5.75,1.642c-0.365,0.108-0.721,0.255-1.143,0.406
			c-0.074-0.418-0.127-0.688-0.168-0.959c-0.443-2.821-1.146-5.558-2.598-8.054c-0.689-1.185-1.504-2.269-2.607-3.099
			c-2.506-1.881-5.803-1.154-7.24,1.602c-1.121,2.154-1.391,4.412-0.619,6.735c1.229,3.696,4.998,6.478,8.895,6.599
			c0.66,0.021,1.32,0.021,1.973,0.029c0,1.356,0.086,2.559-0.014,3.745c-0.592,7.06-2.645,13.709-5.791,20.03
			c-1.268,2.545-2.729,4.978-4.596,7.142c-1.133,1.31-2.387,2.479-3.941,3.275c-2.455,1.255-4.898,1.292-7.336-0.06
			c-1.564-0.867-2.869-2.023-3.938-3.452c-1.631-2.179-2.631-4.656-3.348-7.251c-1.6-5.804-1.924-11.733-1.666-17.715
			c0.004-0.109,0.082-0.216,0.119-0.308c1.076-0.215,2.148-0.351,3.176-0.647c3.088-0.893,5.686-2.527,7.473-5.275
			c0.852-1.31,1.33-2.754,1.086-4.324c-0.473-3.05-2.146-5.307-5.033-6.342c-2.912-1.043-5.627-0.352-7.787,1.932
			c-0.816,0.861-1.521,1.854-2.146,2.87c-1.158,1.886-1.877,3.969-2.416,6.107c-1.746,6.932-1.787,13.927-0.67,20.946
			c0.441,2.779-0.098,5.399-1.041,7.977c-0.143,0.391-0.424,0.729-0.768,1.307c-0.457-0.767-0.879-1.301-1.117-1.908
			c-0.77-1.97-1.574-3.937-2.18-5.959c-1.344-4.492-1.904-9.146-2.637-13.763c-0.588-3.72-1.373-7.392-2.826-10.879
			c-0.473-1.131-1.07-2.248-1.807-3.223c-1.219-1.61-2.939-2.107-4.918-1.745c-1.098,0.202-2,0.783-2.854,1.451
			c-3.432,2.684-6.064,6.005-7.965,9.918c-1.633,3.361-2.729,6.904-3.605,10.525c-0.094,0.388-0.197,0.772-0.297,1.158
			c-0.094-0.016-0.189-0.031-0.283-0.047c-0.49-10.807-0.492-21.621-0.43-32.322c1.057-0.539,1.988-0.925,2.826-1.457
			c4.41-2.794,6.486-6.963,6.758-12.043c0.25-4.654-0.904-9.045-3.08-13.148c-0.518-0.976-1.189-1.913-1.955-2.708
			c-1.887-1.954-5.004-1.773-6.607,0.412c-0.721,0.982-1.32,2.125-1.672,3.287c-0.625,2.058-1.201,4.163-1.469,6.289
			c-0.609,4.834-1.027,9.692-1.502,14.543c-0.135,1.377-0.201,2.759-0.307,4.238c-4.471,0.079-8.76-0.673-13.121-0.892
			c-0.023-0.381-0.063-0.654-0.055-0.927c0.061-2.478,0.16-4.955,0.188-7.433c0.045-4.117,0.088-8.235,0.043-12.352
			c-0.016-1.472-0.252-2.943-0.459-4.406c-0.094-0.664-0.307-1.329-0.984-1.701c-1.408-0.773-3.084-0.108-3.557,1.426
			c-0.07,0.228-0.143,0.459-0.178,0.695c-0.322,2.213-0.746,4.418-0.934,6.644c-0.49,5.774-0.873,11.558-1.305,17.336
			c-0.025,0.348-0.098,0.691-0.139,0.97c-0.172,0.09-0.238,0.142-0.313,0.161c-0.193,0.051-0.391,0.086-0.586,0.13
			c-3.893,0.879-7.381,2.565-10.369,5.24c-1.711,1.533-3.18,3.262-4.221,5.325c-0.418,0.827-0.752,1.686-0.65,2.642
			c0.068,0.641,0.328,0.864,1.025,0.934c0.826,0.082,1.158-0.135,1.406-0.743c0.355-0.883,0.674-1.81,1.195-2.593
			c2.727-4.083,6.389-6.998,11.043-8.623c0.406-0.142,0.83-0.23,1.299-0.359c0.066,0.271,0.105,0.35,0.102,0.425
			c-0.053,1.317-0.125,2.635-0.168,3.954c-0.314,9.604-0.043,19.185,1.178,28.727c0.467,3.648,1.07,7.274,2.16,10.8
			c0.582,1.876,1.344,3.669,2.463,5.307c2.811,4.112,9.395,4.372,12.303,0.999c1.117-1.298,2.129-2.688,3.188-4.038
			c0.195-0.252,0.383-0.511,0.672-0.898c0.262,1.404,0.459,2.585,0.709,3.756s0.57,2.327,0.832,3.497
			c0.305,1.354,1.182,2.052,2.514,2.18c0.631,0.061,1.287,0.067,1.908-0.039c1.559-0.267,1.871-0.661,1.838-2.243
			c-0.033-1.479-0.225-2.958-0.172-4.432c0.213-5.959,0.795-11.883,2.049-17.723c0.84-3.918,1.947-7.753,3.793-11.334
			c1.502-2.908,3.414-5.504,5.934-7.611c0.723-0.604,1.537-1.1,2.309-1.645c0.902,0.822,1.18,1.798,1.377,2.765
			c0.678,3.325,1.363,6.653,1.922,10.001c0.779,4.654,1.588,9.295,3.119,13.777c0.906,2.653,1.893,5.274,3.385,7.658
			c0.586,0.937,1.279,1.868,2.113,2.579c2.223,1.897,5.318,1.213,6.666-1.367c0.156-0.301,0.316-0.601,0.539-1.023
			c0.297,0.466,0.484,0.807,0.717,1.116c0.789,1.053,1.49,2.198,2.412,3.121c4.266,4.278,9.492,5.71,15.383,4.905
			c3.529-0.482,6.389-2.206,8.58-5.01c0.688-0.88,1.375-1.774,1.949-2.731c5.408-9.02,8.213-18.758,8.004-29.316
			c-0.006-0.269,0.041-0.537,0.064-0.808c1.584-0.603,3.104-1.208,4.646-1.753c0.75-0.265,1.545-0.396,2.309-0.626
			c0.73-0.22,1.266,0.04,1.654,0.625c0.309,0.464,0.625,0.945,0.805,1.464c0.381,1.091,0.797,2.193,0.984,3.326
			c0.617,3.743,1.119,7.507,1.711,11.254c0.436,2.761,0.908,5.518,1.432,8.263c0.256,1.343,0.799,2.601,1.621,3.709
			c1.395,1.88,3.355,2.314,5.547,2.094c1.98-0.199,3.02-1.496,3.607-3.233c0.447-1.322,0.836-2.667,1.199-4.016
			c0.895-3.316,1.752-6.643,2.637-9.962c0.08-0.303,0.246-0.584,0.373-0.875c0.238,0.402,0.283,0.749,0.328,1.096
			c0.178,1.346,0.287,2.705,0.545,4.036c0.68,3.493,1.906,6.771,4.113,9.609c2.904,3.729,6.764,5.511,11.463,5.446
			c3.721-0.051,6.723-1.532,8.879-4.631c1.283-1.848,2.398-3.784,3.127-5.917c1.66-4.848,2.938-9.793,3.721-14.862
			c0.131-0.854,0.207-1.718,0.305-2.543C253.56,304.084,253.021,304.285,252.521,305.644z M231.161,294.69
			c0.408-2.522,0.9-5.025,1.926-7.386c0.713-1.638,1.328-2.452,2.389-3.201c4.207,1.488,5.646,6.602,2.729,9.926
			c-0.721,0.822-1.65,1.505-2.59,2.078c-1.438,0.875-3.082,1.226-4.875,1.633C230.892,296.635,231.003,295.658,231.161,294.69z
			 M189.075,300.752c-3.109-1.406-6.422-6.278-4.41-11.025c0.199-0.466,0.514-0.882,0.83-1.416c1.164,0.563,1.852,1.384,2.486,2.249
			c1.711,2.331,2.58,5.008,3.115,7.81c0.146,0.774,0.225,1.561,0.332,2.33C190.581,301.243,189.812,301.086,189.075,300.752z
			 M165.552,293.42c2.428,1.039,3.807,4.21,2.793,6.714c-0.379,0.94-0.99,1.833-1.666,2.595c-1.439,1.619-3.289,2.614-5.473,3.225
			C161.188,301.368,163.341,295.246,165.552,293.42z M122.491,263.72c0.061-1.704,0.441-3.399,0.727-5.089
			c0.082-0.486,0.344-0.942,0.57-1.536c0.373,0.337,0.676,0.537,0.887,0.809c3.984,5.152,5.666,10.88,4.027,17.306
			c-0.826,3.233-2.684,5.865-5.496,7.75c-0.32,0.213-0.676,0.373-1.131,0.621c-0.031-0.363-0.072-0.586-0.066-0.808
			C122.157,276.421,122.269,270.068,122.491,263.72z M115.329,326.747c-1.18,3.808-3.311,6.999-6.438,9.468
			c-1.48,1.171-1.701,1.347-2.986-0.519c-0.99-1.434-1.471-3.098-1.887-4.769c-1.021-4.083-1.559-8.245-1.875-12.431
			c-0.578-7.695-0.857-15.403-0.703-23.122c0.053-2.558,0.119-5.114,0.184-7.672c0.012-0.39,0.055-0.779,0.086-1.217
			c4.383,0.305,8.67,0.604,13.131,0.915c0,0.301,0,0.722,0,1.142c-0.01,8.113-0.09,16.229,0,24.34
			c0.047,4.112,0.41,8.221,0.611,12.331C115.476,325.724,115.478,326.268,115.329,326.747z"/>
		<path d="M285.181,230.456c-0.623-0.242-1.299-0.415-1.965-0.468c-1.314-0.106-2.635-0.114-3.953-0.155
			c-0.389-0.013-0.777-0.002-1.195-0.002c-0.068-0.402-0.131-0.669-0.158-0.94c-0.332-3.22-0.615-6.446-1-9.659
			c-0.201-1.662-0.578-3.303-0.881-4.952c-0.18-0.969-0.842-1.41-1.75-1.541c-0.354-0.051-0.721-0.053-1.078-0.027
			c-1.244,0.086-1.742,0.486-1.902,1.725c-0.176,1.346-0.309,2.705-0.332,4.061c-0.061,3.438-0.051,6.876-0.068,10.315
			c-0.002,0.431,0,0.861,0,1.402c-1.1,0.083-2.086,0.188-3.074,0.223c-1.199,0.043-2.4-0.009-3.596,0.048
			c-0.695,0.033-1.449,0.044-1.9,0.738c0.207,0.6,0.717,0.631,1.174,0.736c2.076,0.481,4.186,0.616,6.311,0.545
			c0.342-0.011,0.682-0.001,1.061-0.001c0.025,0.411,0.076,0.689,0.053,0.96c-0.131,1.551-0.25,3.105-0.428,4.651
			c-0.688,5.97-1.83,11.852-3.689,17.569c-0.701,2.158-1.594,4.266-2.541,6.33c-0.459,0.996-1.164,1.921-1.916,2.729
			c-1.338,1.439-2.186,1.361-3.174-0.308c-0.6-1.018-1.129-2.142-1.395-3.286c-0.457-1.979-0.803-4.001-0.98-6.023
			c-0.268-3.065-0.338-6.146-0.518-9.22c-0.074-1.274-0.16-2.556-0.348-3.817c-0.209-1.399-0.756-1.837-2.17-1.897
			c-0.432-0.02-0.877,0.04-1.305,0.127c-0.551,0.112-0.916,0.427-1.002,1.039c-0.109,0.791-0.268,1.574-0.412,2.36
			c-0.799,4.362-1.529,8.737-2.426,13.079c-0.627,3.054-1.563,6.035-2.963,8.844c-0.199,0.397-0.449,0.77-0.674,1.153
			c-0.086-0.023-0.17-0.048-0.256-0.071c-0.225-1.007-0.484-2.009-0.668-3.022c-0.707-3.867-0.863-7.781-0.955-11.701
			c-0.102-4.237-0.232-8.479-0.996-12.658c-0.322-1.76-0.771-3.517-1.389-5.193c-0.816-2.228-2.566-3.315-4.943-3.249
			c-1.023,0.028-2.041,0.225-3.121,0.353c-0.107-0.446-0.227-0.947-0.348-1.448c-0.551-2.278-1.42-4.409-2.918-6.246
			c-0.85-1.042-1.846-1.913-3.16-2.279c-2.967-0.828-5.105-0.051-6.395,2.479c-0.414,0.813-0.768,1.68-0.984,2.563
			c-0.658,2.672,0.135,4.909,2.285,6.609c2.145,1.699,4.633,2.254,7.33,1.974c0.307-0.031,0.613-0.061,1.039-0.103
			c0.061,0.781,0.141,1.488,0.162,2.197c0.229,7.662-0.98,15.133-3.021,22.49c-0.799,2.894-1.775,5.726-3.201,8.382
			c-0.777,1.452-1.654,2.852-2.947,3.9c-2.438,1.976-3.262,1.78-5.338-0.189c-0.203-0.192-0.387-0.404-0.574-0.612
			c-1.9-2.116-3.238-4.557-4.111-7.25c-1.748-5.393-2.072-10.887-1.064-16.461c0.533-2.962,1.314-5.848,2.756-8.519
			c0.727-1.347,1.604-2.581,2.811-3.55c1.676-1.347,3.164-1.231,4.635,0.364c0.242,0.264,0.447,0.562,0.668,0.847
			c0.146,0.189,0.266,0.405,0.436,0.57c0.391,0.379,0.863,0.375,1.342,0.215c0.518-0.173,0.426-0.627,0.395-1.011
			c-0.088-1.1-0.568-2.05-1.492-2.612c-0.838-0.509-1.773-0.981-2.725-1.155c-3.697-0.676-6.967,0.302-9.723,2.884
			c-1.268,1.187-2.264,2.584-3.076,4.113c-2.016,3.797-3.127,7.859-3.457,12.134c-0.447,5.798,0.748,11.213,3.928,16.125
			c1.451,2.241,3.268,4.14,5.561,5.543c1.932,1.181,4.025,1.75,6.289,1.597c2.473-0.168,4.359-1.423,5.926-3.254
			c1.686-1.969,2.857-4.235,3.828-6.614c1.652-4.046,2.785-8.25,3.736-12.504c1.348-6.031,2.211-12.111,1.752-18.315
			c-0.018-0.234-0.004-0.472-0.004-0.777c0.646-0.256,1.266-0.501,1.902-0.753c0.598,0.721,0.693,1.527,0.768,2.304
			c0.146,1.59,0.293,3.188,0.297,4.783c0.008,4.437-0.055,8.874-0.094,13.313c-0.023,2.523,0.107,5.036,0.537,7.525
			c0.459,2.652,1.133,5.229,2.553,7.563c1.395,2.292,3.51,2.979,6.082,2.603c1.174-0.173,2.111-0.776,2.688-1.815
			c0.521-0.939,1.064-1.895,1.4-2.906c0.701-2.121,1.277-4.285,1.895-6.435c0.195-0.675,0.355-1.359,0.6-2.311
			c0.324,1.201,0.555,2.126,0.828,3.039c0.557,1.865,1.455,3.535,2.811,4.957c2.412,2.532,7.59,3.309,10.324-0.776
			c0.686-1.021,1.326-2.117,1.738-3.268c0.889-2.479,1.678-4.998,2.391-7.533c0.604-2.146,1.045-4.338,1.559-6.509
			c0.227,0.734,0.322,1.473,0.383,2.215c0.5,6.178,1.072,12.347,2.682,18.36c0.443,1.659,0.895,3.317,1.428,4.947
			c0.162,0.495,0.514,1.073,0.943,1.306c1.064,0.576,2.236,0.545,3.365,0.084c0.445-0.182,0.666-0.503,0.553-1.046
			c-0.594-2.875-0.602-5.795-0.629-8.713c-0.016-1.879,0.055-3.764-0.063-5.636c-0.465-7.461-0.988-14.917-1.49-22.375
			c-0.1-1.464-0.193-2.93-0.297-4.507c1.934-0.054,3.738-0.414,5.564,0.045c0.807,0.203,1.643,0.33,2.445-0.494
			C285.802,230.982,285.538,230.596,285.181,230.456z M226.438,233.397c-2.219-0.778-3.793-2.218-4.303-4.56
			c-0.504-2.309,0.25-4.314,1.805-6.044c0.074-0.083,0.203-0.118,0.43-0.242c3.379,2.66,4.248,6.486,4.928,10.436
			C228.308,233.522,227.407,233.738,226.438,233.397z"/>
		<path d="M79.239,178.573c-0.18,3.152-0.396,6.304-0.543,9.458c-0.35,7.435-0.301,14.869,0.236,22.293
			c0.203,2.826,0.582,5.642,0.922,8.457c0.076,0.627,0.27,1.253,0.498,1.846c0.266,0.693,0.93,0.98,1.775,0.874
			c0.82-0.104,1.105-0.313,1.137-1.241c0.066-2.074,0.115-4.155,0.031-6.227c-0.105-2.635-0.379-5.263-0.533-7.896
			c-0.463-7.996-0.182-15.986,0.26-23.973c0.117-2.111,0.287-4.22,0.436-6.396c0.525-0.174,1.008-0.352,1.5-0.492
			c4.096-1.167,8.305-1.618,12.533-1.926c3.23-0.235,6.457-0.463,9.688-0.686c0.389-0.025,0.777-0.004,1.168-0.004
			c0.104,0.325,0.203,0.587,0.27,0.857c2.107,8.707,4.623,17.287,7.76,25.686c1.732,4.641,3.275,9.351,4.955,14.012
			c0.307,0.852,0.793,1.654,1.293,2.416c0.578,0.885,1.492,1.006,2.455,0.796c0.758-0.166,0.865-0.409,0.656-1.192
			c-1.314-4.902-2.695-9.785-3.918-14.708c-2.35-9.46-4.607-18.943-6.898-28.418c-0.045-0.183-0.033-0.379-0.051-0.63
			c0.352-0.094,0.652-0.188,0.959-0.252c1.992-0.422,3.996-0.795,5.979-1.266c3.184-0.756,6.369-1.532,9.525-2.397
			c0.98-0.269,1.887-0.829,2.805-1.302c0.199-0.103,0.301-0.396,0.473-0.637c-0.836-0.512-1.518-0.347-2.254-0.011
			c-0.902,0.412-1.83,0.827-2.791,1.048c-3.969,0.911-7.953,1.76-11.938,2.612c-1.045,0.224-2.105,0.377-3.248,0.577
			c-0.166-0.601-0.318-1.088-0.438-1.584c-2.377-9.83-5.092-19.563-8.422-29.118c-1.475-4.229-2.898-8.476-5.057-12.419
			c-0.727-1.327-1.555-2.609-2.428-3.847c-1.787-2.538-6.145-3.025-8.084,0.287c-0.906,1.546-1.764,3.139-2.455,4.789
			c-1.934,4.628-3.09,9.489-4.049,14.398c-2.01,10.294-3.084,20.705-3.824,31.154c-0.057,0.803-0.25,1.277-1.064,1.61
			c-3.467,1.427-6.555,3.489-9.381,5.938c-1.82,1.575-3.508,3.28-4.809,5.32c-0.385,0.602-0.688,1.262-0.971,1.918
			c-0.203,0.469,0.045,0.779,0.521,0.865c0.691,0.123,1.359,0.11,1.887-0.463c0.35-0.383,0.713-0.755,1.055-1.147
			c3.201-3.678,6.838-6.833,11.055-9.3c0.396-0.232,0.814-0.43,1.326-0.698C79.241,178.025,79.255,178.3,79.239,178.573z
			 M83.765,171.358c0.438-5.016,0.844-10.034,1.357-15.042c0.885-8.636,2.156-17.208,4.826-25.504
			c0.645-2.007,1.527-3.943,2.373-5.88c0.313-0.715,0.834-1.337,1.262-2.001c0.119,0,0.24,0.001,0.361,0.002
			c0.434,0.84,0.904,1.663,1.297,2.522c1.611,3.538,2.732,7.246,3.803,10.973c3.158,10.981,6.031,22.036,8.611,33.167
			c0.072,0.311,0.131,0.623,0.227,1.089c-0.633,0.085-1.24,0.206-1.854,0.243c-2.832,0.169-5.664,0.318-8.5,0.468
			c-4.396,0.231-8.756,0.737-13.045,1.762c-0.229,0.055-0.463,0.088-0.727,0.137C83.757,172.619,83.71,171.985,83.765,171.358z"/>
		<path d="M158.433,258.99c-0.453,1.394-1.17,2.711-1.871,4.009c-0.529,0.98-1.242,1.854-2.49,2.482
			c-0.129-0.2-0.307-0.424-0.432-0.674c-0.631-1.242-1.359-2.45-1.842-3.748c-0.934-2.52-1.375-5.172-1.73-7.827
			c-0.875-6.54-1.469-13.105-1.742-19.699c-0.037-0.878-0.109-1.757-0.229-2.628c-0.135-0.994-0.553-1.392-1.52-1.593
			c-1.807-0.378-3.049,0.38-3.516,2.156c-0.082,0.308-0.17,0.621-0.197,0.936c-0.154,1.791-0.398,3.581-0.416,5.374
			c-0.051,4.925,0.316,9.826,1.168,14.682c0.539,3.078,1.307,6.097,2.65,8.938c0.705,1.488,1.58,2.86,2.729,4.063
			c2.371,2.487,7.768,3.108,10.221-1.13c0.637-1.101,1.244-2.257,1.617-3.464c1.023-3.318,1.918-6.678,2.867-10.019
			c0.072-0.252,0.17-0.496,0.313-0.908c2.318,2.731,4.473,5.373,6.213,8.277c-0.111,0.202-0.162,0.313-0.229,0.41
			c-3.094,4.49-4.189,9.528-4.047,14.894c0.037,1.45,0.346,2.852,1.037,4.151c0.914,1.726,2.369,2.672,4.277,2.912
			c4.602,0.581,8.404-2.04,9.488-6.548c0.609-2.537,0.455-5.075-0.113-7.605c-0.834-3.723-2.553-7.046-4.584-10.229
			c-0.229-0.357-0.445-0.723-0.619-1.007c0.734-0.773,1.344-1.463,2.008-2.095c0.691-0.662,1.418-1.292,2.166-1.893
			c0.717-0.573,1.461-1.118,2.223-1.63c0.771-0.518,1.582-0.98,2.527-1.562c-0.828-0.482-1.434-0.432-2.002-0.091
			c-1.471,0.881-2.973,1.725-4.361,2.72c-1.262,0.901-2.395,1.983-3.68,3.066c-2.381-3.121-5.336-5.759-7.24-9.228
			c-0.498-0.906-0.955-1.854-1.277-2.834c-1.186-3.59-0.779-7.03,1.232-10.231c1.01-1.609,1.59-1.592,2.729-0.108
			c0.811,1.055,1.99,1.153,3.082,0.231c-0.424-1.918-1.654-3.075-3.549-3.418c-3.58-0.648-6.662,0.624-8.482,3.588
			c-1.109,1.806-1.693,3.78-1.859,5.887c-0.254,3.206,0.68,6.087,2.445,8.718c0.418,0.621,0.527,1.191,0.311,1.901
			C160.61,251.807,159.599,255.424,158.433,258.99z M171.513,260.264c2.201,4.141,3.832,8.188,3.514,12.742
			c-0.082,1.176-0.387,2.368-0.797,3.476c-0.279,0.754-0.852,1.437-1.416,2.036c-0.58,0.618-1.033,0.61-1.666,0.017
			c-0.484-0.454-0.898-1.016-1.229-1.596c-0.705-1.236-0.955-2.626-1.08-4.021c-0.361-4.063,0.309-7.955,2.086-11.641
			C171.058,261,171.233,260.742,171.513,260.264z"/>
		<path d="M146.601,217.387c-0.334-0.364-0.855-0.55-0.879-1.196c-0.008-0.188-0.441-0.433-0.725-0.528
			c-1.51-0.518-3.152,0.049-3.965,1.42c-0.361,0.609-0.615,1.299-0.811,1.981c-0.295,1.021,0.055,1.889,0.838,2.582
			c0.945,0.837,2.068,1.178,3.326,1.229c0.588-0.094,1.197-0.12,1.758-0.294c1.83-0.563,2.502-2.404,1.473-4.021
			C147.343,218.128,146.952,217.769,146.601,217.387z"/>
	</g>
	<path fill="#C77B32" d="M220.224,103.499c-2.676,0-6.252-1.979-8.111,0.644c-1.463,2.067-0.826,4.379-2.346,6.527
		c-1.178,1.669-3.006,1.829-2.379-0.761c0.262-1.075,0.955-2.046,1.447-3.018c0.723-1.431,0.66-2.448,0.686-4.067
		c0.031-2.216-0.678-4.289-1.566-6.311c-0.998-2.273-1.521-3.964-4.174-3.337c-3.389,0.799-1.139-0.963-0.088-2.208
		c0.666-0.792,1.846-5.18-0.219-5.16c-0.656,0.005-3.297,3.718-3.889,4.338c-1.104,1.154-2.389,2.41-3.352,3.684
		c-0.768,1.013-1.168,2.187-1.941,3.215c-1.254,1.677-3.369,3.087-2.133,5.309c0.871,1.559,2.816,2.697,4.447,3.298
		c1.043,0.386,2.916,0.672,3.646,1.659c0.809,1.084,0.152,0.637-0.037,1.716c-0.424,2.445,1.742,4.231,3.99,5.245
		c0.598,0.267,2.881,0.847,1.859,1.968c-0.645,0.713-2.777-0.345-3.43-0.612c-2.59-1.063-4.051-2.151-5.525-4.47
		c-0.455-0.718-0.533-1.332-1.443-1.189c-1.068,0.167-1.119,2.005-2.02,2.253c-1.404,0.388-2.422-2.916-2.895-3.847
		c-0.33-0.655-0.689-1.682-1.219-2.212c-0.832-0.83-0.746-0.287-1.752-0.646c-1.26-0.449-0.969-0.925-1.443-2.004
		c-0.582-1.321-1.496-2.521-2.189-3.793c-0.381-0.693-1.766-4.211-2.709-4.199c-0.672,0.007-2.422,3.44-2.703,3.887
		c-1.025,1.607-2.02,3.235-3.041,4.848c-0.82,1.291-0.928,2.27-0.053,3.627c1.332,2.083,3.115,1.695,5.061,2.453
		c1.621,0.631,3.986,1.913,3.084,3.703c-0.688,1.364-1.508,2.877-2.279,4.224c-0.186,0.321-0.93,1.801-1.426,1.82
		c-1.184,0.045-0.443-5.844-3.1-2.272c-0.52,0.695-1.061,2.306-2.125,2.426c-1.855,0.209-0.877-1.352-0.361-2.227
		c1.01-1.714,2.463-3.585,1.193-5.513c-1.422-2.165-2.584-0.718-3.932,0.763c-0.195,0.215-1.078,1.533-1.434,1.574
		c-1.965,0.222-0.467-2.635-0.271-3.388c0.271-1.06,0.309-1.936-0.352-2.891c-0.986-1.426-1.572-1.014-2.785-0.179
		c-1.373,0.945-2.529,2.496-3.852,3.653c-2.023,1.773-4.775,1.76-6.711,3.688c-2.021,2.008-4.084,3.984-6.129,5.977
		c-3.365,3.281-6.102,7.91-10.869,9.448c-0.432,0.142-5.705,2.539-5.49,1.005c0.129-0.942,4.203-2.051,5.031-2.541
		c1.516-0.9,2.945-1.995,4.451-2.918c1.68-1.025,2.752-2.443,4.115-3.933c1.375-1.503,3.021-2.706,4.473-4.062
		c1.584-1.479,2.799-3.624,4.76-4.813c2.48-1.501,5.102-2.301,6.988-4.607c1.225-1.495,2.215-4.653,3.957-5.479
		c2-0.948,3.121,2.285,5.291,1.355c2.328-1.001,4.068-5.33,5.369-7.302c0.738-1.113,1.568-3.281,2.695-4.106
		c1.891-1.387,5.15,1.681,6.916,2.343c2.563,0.96,4.563-0.297,6.293-2.164c1.762-1.901,3.668-3.676,5.369-5.646
		c1.336-1.557,3.078-5.311,5.35-3.469c1.463,1.192,2.359,3.326,3.352,4.915c1.451,2.325,3.42,4.612,5.352,6.559
		c2.016,2.032,3.951,2.987,6.844,3.637c1.313,0.296,2.693-0.012,3.875,0.602c0.771,0.397,1.941,1.344,2.535,1.989
		c1.656,1.792,2.053,4.187,4.223,5.611c1.785,1.172,3.787,0.729,5.742,1.28c2.229,0.631,4.152,2.556,5.791,4.099
		c6.814,6.424,15.092,11.604,21.229,18.752c1.262,1.471,1.188,3.646-1.121,3.169c-2.016-0.413-4.564-3.146-6.26-4.356
		c-2.543-1.813-5.236-3.701-8.316-4.449c-3.318-0.807-4.639,0.465-6.922,2.544c-1.576,1.431-3.053,2.12-4.893,0.742
		c-1.861-1.393-3.344-3.442-5.559-4.322c-1.338-0.531-2.418-0.196-3.795-0.206c-0.84-0.004-1.604-0.071-2.438-0.046
		c-0.543,0.017-0.65,0.374-1.154,0.311c-0.4-0.051-2.215-1.023-2.262-1.293c-0.197-1.192,3.096-1.11,3.734-1.286
		c3.934-1.081,7.631-1.912,10.912-4.461c1.514-1.172,3.004-2.92,1.779-4.766c-1.5-2.249-4.99-1.761-7.336-1.719
		c-1.49,0.027-2.551,0.671-3.953,1.141c-0.699,0.232-1.139,0.298-1.834,0.911c-1.518,1.338-3.043,2.123-4.553,3.447
		c-1.422,1.243-4.074,1.826-2.496-0.48c1.289-1.881,3.859-2.987,5.496-4.569c1.299-1.265,2.754-3.576,2.391-5.484
		C224.862,104.83,222.354,103.293,220.224,103.499z M165.798,130.503c-0.787,0.578-3.857,3.138-5.031,2.566
		c-1.041-0.508-0.23-1.116,0.217-1.601c1.346-1.466,3.748-1.884,5.326-3.055c2.541-1.881,6-2.488,9.225-3.378
		c3.105-0.854,6.227-2.049,8.5-4.421c1.367-1.424,2.688-4.435,5.074-4.282c1.949,0.122,4.697,2.657,6.23,3.785
		c1.123,0.828,1.059,1.312-0.5,1.267c-1.432-0.041-2.908-0.43-4.291-0.43c0,0.942-2.064,6.141-3.387,5.551
		c-0.762-0.343-0.227-1.986-0.941-2.584c-0.637-0.531-2.154-0.114-2.842,0.158c-2.23,0.891-4.27,2.236-6.207,3.647
		c-0.811,0.589-2.834,2.932-3.695,2.968c-1.893,0.082-0.449-2.245,0.129-3.17C170.991,127.525,167.868,128.951,165.798,130.503
		C164.261,131.632,167.034,129.579,165.798,130.503z M209.751,135.123c0,1.372,0.408,2.396-1.455,1.535
		c-1.41-0.654-2.82-1.814-4.182-2.604c-1.783-1.038-5.564-2.849-7.734-2.594c-2.379,0.278-4.143,2.968-2.67,4.983
		c0.646,0.895,1.723,1.519,2.697,1.985c0.375,0.177,1.59,0.364,1.842,0.629c0.771,0.814-0.092,1.347-1.158,1.364
		c-1.646,0.024-3.449-0.956-4.945-1.541c-2.4-0.938-4.982-1.733-7.592-1.795c-1.555-0.036-2.963,0.626-4.486,0.796
		c-1.186,0.133-3.166,0.592-4.309,0.298c-3.117-0.807,1.525-1.962,2.352-2.36c3.639-1.749,6.871-4.269,10.734-5.254
		c2.598-0.661,4.902-2.359,7.145-3.757c1.422-0.888,2.932-1.639,4.324-2.571c1.293-0.86,2.217-2.644,3.43-3.334
		c2.158-1.235,3.781,1.428,5.598,2.353c1.947,0.99,4.297,2.191,6.539,3.252c3.34,1.574,6.459,3.638,9.896,4.951
		c1.553,0.592,2.799,1.427,4.197,2.329c0.744,0.48,3.299,1.372,3.715,2.05c1.092,1.781-2.146,0.585-2.771,0.348
		c-1.395-0.529-2.76-0.911-4.074-1.371c-1.863-0.659-3.271-1.335-5.271-1.667c-1.986-0.331-3.389-1.056-5.146-1.924
		c-1.574-0.782-6.27-3.938-8.096-2.807c-0.912,0.564-0.865,2.624-0.59,3.486C208.087,132.974,209.751,134.014,209.751,135.123z"/>
	<path fill="#C77B32" d="M387.962,264.434c0.402-14.615-6.697-29.152-19.977-37.66c-10.055-6.442-21.771-8.222-32.561-5.896
		c-0.445-0.209-1.014-0.116-1.246,0.299c-10.248,2.528-19.555,8.784-25.654,18.304c-12.725,19.861-6.754,46.475,13.311,59.329
		c0.547,0.35,1.098,0.685,1.652,1.007l-0.84,2.27c-0.133,0.287,0.086,0.686,0.371,0.824l1.084,0.41
		c-0.156,0.217-0.246,0.408-0.402,0.624l-0.543-0.206c-0.355-0.111-1.105-0.243-1.256,0.213l-0.463,1.121
		c-6.543-0.367-11.838,2.568-14.273,7.832c-1.551,3.352-1.701,6.681-0.572,9.867c1.098,2.918,3.266,5.447,6.229,7.27
		c-1.521,2.339-4.178,3.881-6.947,3.724c-1.953-0.11-3.051-0.852-4.672-1.746c-2.336-1.293-4.555-2.423-7.123-3.153
		c-5.354-1.523-11.422-2.219-16.965-1.871c-4.1,0.256-8.125,1.441-11.092,4.433c-3.982,4.017-4.688,10.981-9.908,13.663
		c-1.984,1.02-0.666,3.369,1.303,2.355c5.287-2.716,6.189-7.938,9.404-12.514c5.773-8.217,22.324-5.472,30.154-1.461
		c4.814,2.464,8.736,4.993,14.121,2.375c2.088-1.013,3.619-2.531,4.668-4.349c6.807,2.706,13.635,0.067,18.891-7.443
		c4.252-7.195,0.889-12.936-3.783-15.973l0.242-0.646c0.088-0.191-0.014-0.474-0.365-0.587l-1.084-0.411
		c0.063-0.264,0.15-0.455,0.145-0.691l0.73,0.296c0.283,0.139,0.941,0.223,1.139-0.326l0.764-1.978
		c14.285,4.424,29.93,1.136,41.08-8.618c0.238-0.094,0.443-0.27,0.563-0.493c2.711-2.458,5.146-5.301,7.211-8.523
		c3.963-6.186,6.111-13.029,6.586-19.904C388.003,265.171,388.003,265.171,387.962,264.434z M381.122,243.792
		c1.676,3.138,2.936,6.463,3.754,9.892c-1.084,0.071-2.402,0.178-3.916,0.31c-0.707-2.809-1.744-5.538-3.1-8.123
		C378.911,245.121,380.026,244.472,381.122,243.792z M321.267,270.952c3.672-0.395,7.727-0.826,11.947-1.28
		c-1.307,4.81-2.549,8.891-3.887,13.335C325.423,279.771,322.694,275.545,321.267,270.952z M328.716,285.046
		c-0.604,2.015-1.232,4.143-1.895,6.46c-3.107-1.998-5.789-4.409-8.027-7.111c1.748-1.338,3.402-2.791,5.172-4.101
		C325.325,282.035,326.909,283.637,328.716,285.046z M320.062,248.374c6.316,1.916,13.902,4.404,21.184,6.262
		c0.512,2.136,1.65,5.9,2.377,7.99C337.073,259.245,326.497,252.648,320.062,248.374z M330.183,261.791
		c-3.51,1.068-6.885,2.104-10.018,3.073c-0.215-3.692,0.385-7.444,1.854-10.982C324.747,256.522,327.224,258.963,330.183,261.791z
		 M320.499,252.417c-0.852,1.894-1.467,3.853-1.854,5.837c-2.453-0.627-4.951-1.04-7.432-1.54c0.551-3.415,1.629-6.784,3.262-9.988
		C316.761,248.845,318.706,250.693,320.499,252.417z M318.339,260.207c-0.207,1.75-0.242,3.511-0.109,5.257
		c-2.551,0.793-4.91,1.534-7.01,2.206c-0.477-2.965-0.568-5.991-0.26-9.001C313.425,259.161,315.905,259.575,318.339,260.207z
		 M313.868,268.68c1.207-0.348,13.939-4.177,17.893-5.39c0.369,0.349,1.725,1.836,2.42,2.731c-0.141,0.547-0.283,1.089-0.422,1.615
		c-6.48,0.708-12.523,1.369-17.479,1.931C312.88,269.906,304.769,271.291,313.868,268.68z M336.188,266.71
		c0.021-0.01,0.041-0.021,0.063-0.032c2.037-0.577,5.35-1.507,7.408-2.041c-3.76,7.222-10.27,17.048-14.049,23.64
		C331.544,281.833,334.333,273.961,336.188,266.71z M344.075,276.769c1.424,4.254,2.791,8.322,4.049,12.015
		c-2.078,0.202-4.189,0.147-6.285-0.168c-0.154-0.065-0.332-0.09-0.508-0.076c-2.238-0.384-4.451-1.073-6.578-2.08
		C337.89,283.193,340.614,280.424,344.075,276.769z M341.915,252.563c-0.916-0.218-1.555-0.323-2.029-0.448
		c-0.801-5.237-1.561-10.26-2.215-14.733c-1.469-8.983-1.326-10.249,1.393-2.052c1.504,4.293,3.287,9.328,5.188,14.697
		C343.833,250.436,342.745,251.565,341.915,252.563z M342.198,238.698c3.934-0.469,7.998-0.033,11.855,1.396
		c-2.752,2.851-5.379,5.565-8.348,8.503C344.464,245.104,343.28,241.764,342.198,238.698z M359.837,237.952
		c-2.076,6.671-4.258,13.579-6.746,21.332c-0.096,0.088-0.174,0.194-0.236,0.313c-1.682,0.741-3.406,1.367-5.156,1.92
		c-0.348,0.065-1.436,0.29-1.785,0.357C348.733,257.139,358.63,240.111,359.837,237.952z M369.159,255.146
		c-4.004,0.416-8.414,0.889-12.996,1.389c1.6-5.058,2.746-8.884,4.057-13.154C364.433,246.434,367.46,250.568,369.159,255.146z
		 M360.831,241.4c0.73-2.359,1.531-4.913,2.502-7.931c0.047-0.069,0.096-0.141,0.143-0.211c0.178,0.109,0.359,0.211,0.535,0.324
		c3.486,2.234,6.443,4.985,8.836,8.085c-2.172,1.579-4.268,3.274-6.549,4.691C364.741,244.507,362.913,242.834,360.831,241.4z
		 M370.532,258.998c-3.826,1.153-8.146,2.466-12.707,3.853c-0.377-0.385-2.162-2.188-2.506-2.787
		c-0.004-0.171-0.037-0.344-0.123-0.497c0.119-0.365,0.227-0.71,0.34-1.062c6.16-0.659,12.027-1.275,17.061-1.773
		C381.778,255.447,376.435,257.324,370.532,258.998z M368.81,273.593c-3.238-3.117-6.264-6.001-9.512-9.258
		c4.02-1.228,7.828-2.389,11.248-3.42C371.065,265.148,370.519,269.514,368.81,273.593z M370.589,278.679
		c-7.031-2.225-14.789-5.06-22.703-7.606c-0.225-1.979-0.801-4.947-1.365-6.846C350.956,266.879,368.247,277.362,370.589,278.679z
		 M370.335,275.065c0.928-2.044,1.58-4.162,1.963-6.308c2.385,0.344,4.771,0.764,7.184,0.714c-0.709,3.649-2.021,7.23-3.979,10.596
		c-0.07-0.048-0.143-0.096-0.215-0.145c-0.02-0.022-0.037-0.049-0.059-0.069C373.505,278.142,371.892,276.569,370.335,275.065z
		 M372.575,266.819c0.227-2.166,0.191-4.344-0.1-6.485c2.777-0.837,5.25-1.571,7.301-2.167c0.43,3.081,0.445,6.219,0.031,9.328
		C377.378,267.578,374.976,267.169,372.575,266.819z M378.978,254.171c-2.291,0.212-4.924,0.472-7.801,0.767
		c-0.871-2.485-2.102-4.856-3.674-7.027c2.25-1.429,4.346-3.086,6.496-4.658C376.298,246.603,377.968,250.307,378.978,254.171z
		 M356.966,223.78c3.432,1.08,6.783,2.617,9.957,4.651c2.764,1.771,5.238,3.821,7.428,6.081c-1,0.824-1.932,1.723-2.811,2.674
		c-1.916-1.949-4.068-3.725-6.467-5.261c-2.846-1.823-5.85-3.197-8.926-4.161C356.378,226.429,356.755,225.122,356.966,223.78z
		 M351.993,228.733c3.34,0.667,6.625,1.835,9.752,3.526c-0.063,0.04-0.125,0.079-0.178,0.131c-2.193,2.211-4.15,4.227-6.016,6.154
		c-1.568-0.638-3.174-1.118-4.793-1.452C350.868,234.269,351.427,231.497,351.993,228.733z M348.802,236.767
		c-2.43-0.318-4.879-0.307-7.277,0.02c-1.086-3.086-2.045-5.839-2.826-8.126c3.719-0.7,7.559-0.798,11.363-0.258
		C349.491,231.166,348.935,233.946,348.802,236.767z M346.169,221.907c-0.094,1.396-0.371,2.78-0.33,4.185
		c-2.619-0.048-5.227,0.187-7.779,0.688c-0.629-1.863-1.084-3.282-1.332-4.148C339.825,222.033,342.993,221.786,346.169,221.907z
		 M337.89,251.578c-4.529-1.236-8.307-2.409-12.363-3.656c2.848-3.581,6.541-6.194,10.617-7.749
		C336.681,243.741,337.272,247.589,337.89,251.578z M333.78,223.304c0.139,1.21,0.33,2.699,0.561,4.402
		c-2.293,0.703-4.516,1.628-6.637,2.771c-0.631-1.368-1.148-2.787-1.875-4.104C328.372,225.075,331.036,224.045,333.78,223.304z
		 M334.61,229.679c0.35,2.502,0.768,5.371,1.236,8.505c-1.756,0.638-3.445,1.458-5.045,2.452c-1.65-2.251-3.332-4.478-5.041-6.685
		C328.503,232.101,331.489,230.668,334.61,229.679z M324.165,235.099c1.699,2.188,3.365,4.4,5.008,6.63
		c-2.111,1.537-4.023,3.402-5.654,5.577c-2.453-0.75-5.059-1.534-8.035-2.383c-0.006,0-0.008,0-0.014,0
		c0.223-0.378,0.443-0.754,0.682-1.125C318.356,240.356,321.085,237.446,324.165,235.099z M310.183,240.543
		c1.902-2.973,4.135-5.61,6.619-7.901c0.889,1.295,1.934,2.471,2.979,3.645c-1.965,1.902-3.75,4.05-5.287,6.449
		c-2.105,3.287-3.602,6.794-4.533,10.388c-1.557-0.509-3.174-0.96-4.809-1.144C306.198,248.024,307.86,244.165,310.183,240.543z
		 M303.817,262.662c1.662-0.117,3.332-0.114,4.998-0.19c0.016,1.949,0.182,3.892,0.506,5.809c-1.891,0.613-3.523,1.156-4.807,1.604
		C304.069,267.505,303.837,265.088,303.817,262.662z M309.144,282.615c-1.744-3.094-3.07-6.386-3.967-9.784
		c0.979-0.165,2.715-0.388,5.023-0.658c0.781,2.762,1.883,5.438,3.295,7.968C312.079,281.022,310.569,281.743,309.144,282.615z
		 M312.187,271.945c2.064-0.233,4.457-0.495,7.09-0.779c0.785,2.657,1.969,5.204,3.537,7.54c-1.795,1.313-3.467,2.781-5.227,4.139
		C315.138,279.522,313.323,275.827,312.187,271.945z M321.673,308.823l1.424-3.706l0.096,0.047c0.006,0.235,0.012,0.476,0.018,0.712
		c0.109,0.758,0.475,1.347,1.117,1.834c0.645,0.488,1.443,0.762,2.213,0.725c0.863,0.01,1.533-0.31,2.125-0.842
		c0.045-0.098,0.186-0.146,0.229-0.24c0.23-0.004,0.328,0.04,0.354,0.113l-0.09,0.19c-0.178,0.383-0.33,0.837-0.506,1.22
		l-1.424,3.705l-2.004-0.799c-0.447-0.159-0.895-0.319-1.414-0.453c-0.961-0.292-1.951-0.658-2.664-1.12
		C321.368,309.729,321.519,309.276,321.673,308.823z M325.083,305.204c-0.025-0.07,0.043-0.096,0.018-0.168
		c-0.021-0.067,0.045-0.095,0.02-0.166c0.045-0.095,0.02-0.166,0.064-0.262c0.133-0.287,0.266-0.575,0.588-0.77
		c0.184-0.146,0.459-0.245,0.668-0.319c0.234-0.005,0.467-0.007,0.658,0.085c0.094,0.047,0.188,0.09,0.283,0.137
		c0.094,0.048,0.117,0.116,0.238,0.234l0.023,0.07c0.197,0.328,0.297,0.613,0.371,0.825c0.057,0.379,0.043,0.785-0.064,1.142
		l-0.043,0.096c0,0-0.047,0.096-0.09,0.193c-0.113,0.119-0.227,0.242-0.342,0.36c-0.295,0.265-0.846,0.7-1.559,0.238
		c-0.375-0.185-0.666-0.561-0.773-1.08C325.069,305.608,325.087,305.441,325.083,305.204z M329.923,310.259
		c4.213,3.278,4.961,8.042,2.143,12.887c-4.441,6.324-9.959,8.602-15.43,6.489c0.559-1.53,0.838-3.205,0.842-4.95
		c0.004-1.844-3.344-0.633-3.348,1.074c-0.002,0.813-0.141,1.6-0.377,2.345c-4.914-3.284-6.564-9.119-4.092-14.337
		c2.041-4.164,5.973-6.536,10.941-6.637l-1.137,2.964c-0.092,0.189,0.01,0.476,0.361,0.587l7.566,3.037
		c-0.045,0.096,1.041,0.506,1.281-0.139L329.923,310.259z M330.411,304.571l-0.826-0.343c-0.32-0.683-0.918-1.27-1.742-1.61
		c-0.85-0.415-1.785-0.397-2.549-0.125l-0.92-0.39l0.572-1.478c1.943,1.031,3.934,1.892,5.955,2.603L330.411,304.571z
		 M333.183,301.902c-3.547-1.084-7.01-2.653-10.287-4.752c-2.316-1.485-4.434-3.166-6.35-5c1.188-1.156,2.486-2.19,3.662-3.355
		c1.695,1.616,3.563,3.098,5.607,4.408c2.822,1.809,5.799,3.175,8.85,4.137C334.228,298.88,333.638,300.368,333.183,301.902z
		 M339.179,296.452c-3.543-0.678-7.029-1.916-10.332-3.744c1.648-1.772,3.117-3.329,4.48-4.758c2.217,1.114,4.529,1.902,6.873,2.377
		C339.868,292.369,339.456,294.401,339.179,296.452z M342.128,290.65c2.221,0.286,4.453,0.297,6.648,0.045
		c0.744,2.177,1.439,4.187,2.074,5.999c-3.203,0.475-6.482,0.509-9.736,0.074C341.378,294.718,341.79,292.69,342.128,290.65z
		 M345.317,303.702c-0.076-1.553-0.027-3.111-0.133-4.665c2.127,0.032,4.246-0.117,6.334-0.448c0.605,1.699,1.143,3.179,1.592,4.361
		C350.55,303.443,347.94,303.697,345.317,303.702z M350.3,289.207c-1.451-4.228-3.068-9.001-4.752-14.001
		c1.205-1.199,1.15-2.189,2.904-1.755c0.564,0.181,1.115,0.357,1.65,0.529c0.715,5.222,1.391,10.149,1.99,14.45
		C355.472,305.659,351.759,293.667,350.3,289.207z M352.243,274.662c4.957,1.581,8.926,2.821,13.516,4.276
		c-3.07,4.09-7.215,6.993-11.801,8.575C353.442,283.625,352.862,279.248,352.243,274.662z M356.058,302.272
		c-0.174-0.891-0.414-2.442-0.707-4.503c2.559-0.691,5.039-1.663,7.4-2.896c0.623,1.338,1.281,2.66,1.855,4.021
		C361.888,300.34,359.019,301.473,356.058,302.272z M363.159,292.402c-0.27,0.034-0.535,0.187-0.719,0.413
		c-2.336,1.28-4.811,2.276-7.365,2.985c-0.256-1.839-0.541-3.96-0.852-6.3c2.455-0.807,4.795-1.962,6.947-3.447
		c1.336,1.693,2.588,3.441,3.65,5.321C364.276,291.735,363.722,292.076,363.159,292.402z M362.749,284.883
		c1.865-1.503,3.553-3.279,5-5.313c2.018,0.641,4.178,1.333,6.623,2.12c0.012,0.003,0.021,0.004,0.031,0.007
		c0.02,0.014,0.039,0.027,0.061,0.041c-2.227,3.367-4.951,6.217-8.025,8.51C365.356,288.361,364.093,286.592,362.749,284.883z
		 M379.638,285.041c-1.816,2.835-3.936,5.359-6.281,7.575c-0.807-1.175-1.775-2.248-2.775-3.261c2.18-2.022,4.139-4.347,5.814-6.962
		c1.738-2.713,3.063-5.576,3.996-8.514c1.287,0.393,2.576,0.783,3.895,1.045C383.233,278.418,381.698,281.824,379.638,285.041z
		 M382.056,264.19c0.074-2.201-0.053-4.4-0.373-6.571c1.748-0.497,3.043-0.845,3.783-1.008c0.408,2.485,0.592,5.007,0.537,7.533
		C384.69,264.104,383.372,264.197,382.056,264.19z"/>
	<path fill="#C77B32" d="M134.507,238.908c-0.234-0.427-0.723-0.907-1.281-1.018c-0.457-0.089-0.91-0.129-1.348-0.168
		c-0.465-0.041-0.904-0.08-1.318-0.172c-5.424-1.206-10.098-2.782-14.293-4.819c-0.094-0.046-0.195-0.106-0.299-0.167
		c-0.461-0.272-1.686-0.988-2.482,0.158c-0.809,1.155,0.291,1.954,0.65,2.217c0.117,0.084,0.262,0.189,0.313,0.252
		c0.785,0.946,1.594,1.925,1.75,3.172c0.039,0.322-0.01,0.459-0.031,0.485c-0.012,0.015-0.096,0.061-0.301,0.069l-0.33,0.017
		c-0.18,0.011-0.354,0.022-0.541,0.02c-6.52-0.104-18.094-0.223-27.393-0.317c-4.014-0.041-7.668-0.078-10.436-0.109
		c-1.191-0.014-1.943-0.42-2.596-1.403c-1.057-1.59-2.133-3.165-3.211-4.741c-0.893-1.307-1.785-2.614-2.668-3.929l-0.098-0.151
		c-0.309-0.476-0.768-1.204-1.953-1.083c-1.375,0.132-2.785,0.212-4.15,0.29c-0.811,0.046-1.621,0.093-2.432,0.149
		c-0.316,0.021-1.061,0.073-1.342,0.694c-0.281,0.623,0.176,1.221,0.371,1.477c0.49,0.64,0.99,1.272,1.492,1.904
		c0.723,0.914,1.447,1.827,2.137,2.765c0.904,1.231,1.738,2.49,2.479,3.741c0.037,0.065,0.07,0.122,0.096,0.17
		c-0.102,0.021-0.238,0.047-0.416,0.075c-1.701,0.267-2.928-0.253-3.975-1.698c-0.809-1.119-1.637-2.225-2.463-3.331
		c-1.111-1.484-2.26-3.02-3.34-4.557c-0.459-0.653-0.949-1.199-2.025-1.159c-0.984,0.032-2.002-0.009-2.984-0.048
		c-0.428-0.016-0.854-0.032-1.279-0.044l-0.656-0.022c-0.555-0.022-1.109-0.039-1.666-0.025c-0.971,0.031-1.584,0.359-1.822,0.977
		c-0.455,1.168,0.846,2.657,2.318,4.092l0.189,0.186c1.391,1.453,2.775,2.915,4.158,4.376c0.959,1.015,1.92,2.029,2.883,3.041
		c0.004,0.004,0.006,0.008,0.01,0.011c-0.041,0.039-0.1,0.089-0.178,0.154c-1.039,0.85-2.016,1.747-2.926,2.593
		c-0.781,0.724-1.555,1.453-2.33,2.183c-0.65,0.612-1.301,1.225-1.953,1.833c-0.24,0.224-0.508,0.432-0.775,0.642
		c-0.549,0.431-1.115,0.876-1.553,1.475c-0.504,0.692-0.623,1.305-0.355,1.818c0.393,0.752,1.398,0.852,2.289,0.852
		c0.168,0,0.332-0.004,0.486-0.007l0.984-0.018c1.635-0.027,3.326-0.056,4.893-0.212c0.643-0.063,1.355-0.438,1.773-0.933
		c0.332-0.393,0.604-0.818,0.865-1.229c0.35-0.545,0.678-1.06,1.092-1.418c1.973-1.708,4.24-3.799,6.096-6.363
		c0.523-0.724,1.203-0.695,2.363-0.577c0.035,0.003,0.07,0.007,0.105,0.011c-0.029,0.094-0.094,0.22-0.186,0.335
		c-0.627,0.771-1.334,1.46-2.084,2.189c-0.822,0.802-1.674,1.631-2.408,2.578l-0.16,0.203c-0.639,0.797-1.6,2.002-1.279,3.089
		c0.496,1.68,3.139,1.371,4.559,1.203l0.162-0.019c0.67-0.076,1.344-0.13,2.016-0.185c0.625-0.05,1.248-0.101,1.871-0.167
		c1.668-0.181,2.148-1.301,2.572-2.289c0.176-0.408,0.357-0.83,0.627-1.219c0.369-0.536,0.783-1.04,1.221-1.574
		c0.684-0.832,1.389-1.691,1.922-2.688c0.617-1.149,1.385-1.555,2.848-1.502c3.23,0.123,6.465,0.233,10.162,0.36l5.129,0.177
		l3.385-0.004c5.561-0.011,14.861-0.024,18.242,0.018c0.693,0.009,1.816,0.022,2.18,0.149c-0.051,0.387-0.557,1.419-0.9,2.12
		c-0.172,0.354-0.332,0.617-0.5,0.83c-0.068,0.087-0.16,0.177-0.254,0.271c-0.363,0.369-0.861,0.875-0.797,1.555
		c0.025,0.282,0.164,0.692,0.68,1.049c0.756,0.526,1.902,0.009,3.322-0.723c0.23-0.119,0.426-0.221,0.553-0.273
		c2.273-0.928,4.59-1.793,6.887-2.573c1.303-0.442,2.576-0.976,3.811-1.492c1.602-0.671,3.258-1.365,4.941-1.84
		c0.547-0.151,0.836-0.775,0.889-0.899C134.644,239.446,134.644,239.159,134.507,238.908z M63.147,230.158
		c0.078-0.012,0.158-0.014,0.238-0.018c0.158-0.007,0.318-0.017,0.473-0.046c1.838-0.347,2.943,0.112,3.807,1.576
		c0.932,1.579,1.99,3.104,3.014,4.58c0.469,0.678,0.939,1.356,1.436,2.105c-0.24,0.041-0.668,0.067-1.436,0.029l-0.152-0.007
		c-1.535-0.059-2.26-0.516-3.232-2.037c-0.832-1.299-1.809-2.508-2.752-3.678c-0.529-0.655-1.061-1.311-1.564-1.983
		c-0.146-0.192-0.242-0.334-0.305-0.437C62.782,230.219,62.935,230.189,63.147,230.158z M67.577,241.977
		c0.455-0.752,0.891-1.048,1.594-1.048c0.086,0,0.174,0.004,0.268,0.013c0.711,0.064,1.422,0.134,2.133,0.204
		c-0.002,0.005-0.004,0.011-0.006,0.016c-0.223,0.643-0.432,1.249-0.77,1.71c-0.945,1.291-2.049,2.522-3.115,3.714l-0.639,0.716
		c-0.102,0.114-0.334,0.229-0.527,0.26c-0.84,0.135-1.684,0.232-2.611,0.341l-0.879,0.104c0.01-0.022,0.02-0.043,0.031-0.061
		c0.326-0.505,0.699-0.979,1.096-1.48l0.359-0.46c0.309-0.398,0.629-0.789,0.949-1.181
		C66.196,243.927,66.956,242.999,67.577,241.977z M48.677,249.055c0.018-0.019,0.037-0.037,0.055-0.056
		c0.678-0.662,1.367-1.311,2.059-1.958c1.002-0.942,2.039-1.916,3.023-2.923c1.279-1.311,2.93-1.902,4.68-2.528
		c0.314-0.112,0.631-0.226,0.912-0.334c-0.453,0.627-0.883,1.152-1.307,1.6c-0.557,0.587-1.156,1.119-1.793,1.683
		c-1.252,1.112-2.549,2.262-3.463,3.837c-0.123,0.212-0.66,0.519-1.088,0.562C50.747,249.036,49.698,249.049,48.677,249.055z
		 M57.161,236.144c0.563,0.815,1.125,1.632,1.695,2.442c-2.389,0.359-2.441,0.309-4.188-1.593c-1.104-1.203-2.217-2.397-3.33-3.593
		l-2.123-2.276c-0.174-0.177-0.338-0.344-0.422-0.5c-0.043-0.081-0.08-0.173-0.115-0.272c0.035-0.003,0.096,0.007,0.098-0.005
		c0.537,0.002,1.053,0.006,1.551,0.033l0,0c1.768,0.096,3.086,0.465,4.199,2.004C55.423,233.624,56.292,234.884,57.161,236.144z"/>
</g>
</svg>
