<?xml version="1.0" encoding="iso-8859-1"?>
<!-- Generator: Adobe Illustrator 19.0.0, SVG Export Plug-In . SVG Version: 6.00 Build 0)  -->
<svg version="1.1" id="Layer_1" xmlns="http://www.w3.org/2000/svg" xmlns:xlink="http://www.w3.org/1999/xlink" x="0px" y="0px"
	 viewBox="0 0 512 512" style="enable-background:new 0 0 512 512;" xml:space="preserve">
<path style="fill:#64C37D;" d="M238.934,0C114.715,0,13.654,101.061,13.654,225.28s101.061,225.28,225.28,225.28
	c11.31,0,20.48-9.17,20.48-20.48c0-11.31-9.17-20.48-20.48-20.48c-101.635,0-184.32-82.686-184.32-184.32
	s82.685-184.32,184.32-184.32c11.31,0,20.48-9.17,20.48-20.48S250.244,0,238.934,0z"/>
<path style="fill:#77757F;" d="M368.968,507.073c3.861,3.31,8.6,4.927,13.316,4.927c5.773,0,11.511-2.428,15.561-7.154
	l34.819-40.638l45.203-0.003c11.31,0,20.479-9.171,20.479-20.481c0-11.31-9.171-20.479-20.481-20.479l-131.763,0.008l-14.514-24.19
	c-5.819-9.698-18.401-12.845-28.099-7.025c-9.699,5.819-12.844,18.399-7.025,28.099l20.48,34.133
	c3.701,6.169,10.368,9.942,17.562,9.942l44.215-0.003l-11.981,13.984C359.382,486.784,360.379,499.713,368.968,507.073z"/>
<g>
	<path style="fill:#6E76E5;" d="M238.934,81.92c-79.05,0-143.36,64.311-143.36,143.36s64.31,143.36,143.36,143.36
		s143.36-64.31,143.36-143.36S317.983,81.92,238.934,81.92z"/>
	<path style="fill:#6E76E5;" d="M138.596,245.76h39.428c1.292,24.83,4.975,48.878,11.233,69.02
		C163.572,300.466,144.641,275.434,138.596,245.76z"/>
	<path style="fill:#6E76E5;" d="M178.024,204.8h-39.428c6.047-29.674,24.976-54.706,50.661-69.02
		C182.998,155.922,179.315,179.97,178.024,204.8z"/>
</g>
<g>
	<path style="fill:#B3D8F4;" d="M238.934,325.822c-6.61-8.395-17.285-35.622-19.89-80.062h39.782
		C256.219,290.2,245.544,317.426,238.934,325.822z"/>
	<path style="fill:#B3D8F4;" d="M219.044,204.8c2.605-44.44,13.282-71.666,19.89-80.062c6.61,8.395,17.285,35.622,19.89,80.062
		H219.044z"/>
	<path style="fill:#B3D8F4;" d="M288.612,314.78c6.259-20.143,9.941-44.192,11.233-69.02h39.428
		C333.225,275.434,314.296,300.466,288.612,314.78z"/>
	<path style="fill:#B3D8F4;" d="M299.844,204.8c-1.292-24.83-4.974-48.878-11.233-69.02c25.686,14.314,44.615,39.346,50.661,69.02
		H299.844z"/>
</g>
<g>
	<path style="fill:#8CB7E8;" d="M238.934,325.822V245.76h-19.89C221.649,290.2,232.324,317.426,238.934,325.822z"/>
	<path style="fill:#8CB7E8;" d="M138.596,204.8h39.428c1.292-24.83,4.975-48.878,11.233-69.02
		C163.572,150.094,144.641,175.126,138.596,204.8z"/>
	<path style="fill:#8CB7E8;" d="M238.934,204.8v-80.062c-6.61,8.395-17.285,35.622-19.89,80.062H238.934z"/>
	<path style="fill:#8CB7E8;" d="M138.596,245.76c6.047,29.674,24.976,54.706,50.661,69.02c-6.259-20.143-9.941-44.192-11.233-69.02
		H138.596z"/>
</g>
<path style="fill:#424EDE;" d="M219.044,245.76h19.89V204.8h-19.89c2.605-44.44,13.282-71.666,19.89-80.062V81.92
	c-79.05,0-143.36,64.311-143.36,143.36s64.31,143.36,143.36,143.36v-42.818C232.324,317.426,221.649,290.2,219.044,245.76z
	 M138.596,245.76h39.428c1.292,24.83,4.975,48.878,11.233,69.02C163.572,300.466,144.641,275.434,138.596,245.76z M178.024,204.8
	h-39.428c6.047-29.674,24.976-54.706,50.661-69.02C182.998,155.922,179.315,179.97,178.024,204.8z"/>
<path style="fill:#A4E276;" d="M238.934,40.96c11.31,0,20.48-9.17,20.48-20.48S250.244,0,238.934,0
	C114.805,0,13.804,100.913,13.658,225.01h40.96C54.764,123.498,137.39,40.96,238.934,40.96z"/>
<g>
</g>
<g>
</g>
<g>
</g>
<g>
</g>
<g>
</g>
<g>
</g>
<g>
</g>
<g>
</g>
<g>
</g>
<g>
</g>
<g>
</g>
<g>
</g>
<g>
</g>
<g>
</g>
<g>
</g>
</svg>
