<?xml version="1.0" encoding="utf-8"?>
<!-- Generator: Adobe Illustrator 21.1.0, SVG Export Plug-In . SVG Version: 6.00 Build 0)  -->
<svg version="1.1" id="Calque_1" xmlns="http://www.w3.org/2000/svg" xmlns:xlink="http://www.w3.org/1999/xlink" x="0px" y="0px"
	 viewBox="0 0 432 432" style="enable-background:new 0 0 432 432;" xml:space="preserve">
<style type="text/css">
	.st0{fill:#6E3C3F;}
	.st1{fill:#E3635C;}
	.st2{fill:#343434;}
	.st3{fill:#B1C369;}
	.st4{fill:#A490C4;}
	.st5{fill:#A2C1DB;}
	.st6{fill:#AFB67B;}
	.st7{fill:#4F4747;}
	.st8{fill:#AA6555;}
	.st9{fill:#93C6E3;}
	.st10{fill:#9C3A47;}
	.st11{fill:#52B5C3;}
	.st12{fill:#4B6C2A;}
	.st13{fill:#F4A38D;}
	.st14{fill:#6A8E2D;}
	.st15{fill:#EE7A9F;}
	.st16{fill:#F7DA6A;}
	.st17{fill:#E2991A;}
	.st18{fill:#A7B7BE;}
	.st19{fill:#E8D8CA;}
	.st20{fill:#A1A499;}
	.st21{fill:#C42725;}
	.st22{fill:#DBDC50;}
	.st23{fill:#020203;}
	.st24{fill:#92AA3C;}
	.st25{fill:#DFB87F;}
	.st26{fill:#7E4E1C;}
	.st27{fill:#BBCC53;}
	.st28{fill:#BA5C78;}
	.st29{fill:#85924F;}
	.st30{fill:#7C1142;}
	.st31{fill:#3B322E;}
	.st32{fill:#3B6C51;}
	.st33{fill:#C1292E;}
	.st34{fill:#CDCCCC;}
	.st35{fill:#886649;}
	.st36{fill:#F9B03D;}
	.st37{fill:#7D8C5B;}
	.st38{fill:#0D341E;}
	.st39{fill:#4D8F53;}
	.st40{fill:#1B1B1B;}
	.st41{fill:#F39323;}
	.st42{fill:#E7E6E6;}
	.st43{fill:#9A908B;}
	.st44{fill:#548981;}
	.st45{fill:#89525A;}
	.st46{fill:#AB9AB1;}
	.st47{fill:#5E676E;}
	.st48{fill:#DDDBCA;}
	.st49{fill:#56463E;}
	.st50{fill:#457885;}
	.st51{fill:#FFFFFF;}
	.st52{fill:#E69678;}
	.st53{fill:#A5AB9B;}
	.st54{fill:#855354;}
	.st55{fill:#DE8F6E;}
	.st56{fill:#C19D63;}
	.st57{fill:#837F62;}
	.st58{fill:#7D8769;}
	.st59{fill:#39466A;}
	.st60{fill:#4E4D4D;}
	.st61{fill:#673E44;}
	.st62{fill:#CEB283;}
	.st63{fill:#8890A4;}
	.st64{fill:#99B8B3;}
	.st65{fill:#A0747A;}
	.st66{fill:#BB839E;}
	.st67{fill:#E5DA9B;}
	.st68{fill:#BA9BC9;}
	.st69{fill:#8CACB5;}
	.st70{fill:#746458;}
	.st71{fill:#34354B;}
	.st72{fill:#6A8188;}
	.st73{fill:#B4B4B4;}
	.st74{fill:#97CB9E;}
	.st75{fill:#EE7896;}
	.st76{fill:#785F63;}
	.st77{fill:#E4A87C;}
	.st78{fill:#98D5E8;}
	.st79{fill:#CB6083;}
	.st80{fill:#9A9999;}
	.st81{fill:#C49A6C;}
	.st82{fill:#EC96AB;}
	.st83{fill:#ED87AB;}
	.st84{fill:#E2B471;}
	.st85{fill:#59B465;}
	.st86{fill:#4C996E;}
	.st87{fill:#A84F6B;}
	.st88{fill:#6BC4CD;}
	.st89{fill:#D6809C;}
	.st90{fill:#9DD0B3;}
	.st91{fill:#F3AA9A;}
	.st92{fill:#F29292;}
	.st93{fill:#BBBBBB;}
	.st94{fill:#5B5242;}
	.st95{fill:#8CCDC6;}
	.st96{fill:#EAC892;}
	.st97{fill:#F4B0CC;}
	.st98{fill:#7A6350;}
	.st99{fill:#9FC64B;}
	.st100{fill:#A68C6D;}
	.st101{fill:#F1D3D4;}
	.st102{fill:#BE8BBE;}
	.st103{fill:#F49523;}
	.st104{fill:#789835;}
	.st105{fill:#8FA369;}
	.st106{fill:#B17081;}
	.st107{fill:#E1B63D;}
	.st108{fill:#B05274;}
	.st109{fill:#CA9256;}
	.st110{fill:#A9A9AA;}
	.st111{fill:#BE202E;}
	.st112{fill-rule:evenodd;clip-rule:evenodd;fill:#A9A9AA;}
	.st113{fill:#89657B;}
	.st114{fill:#7F95B7;}
	.st115{fill:#9F9EC6;}
	.st116{fill:#7F6178;}
	.st117{fill:#6D8999;}
	.st118{fill:#A0C07E;}
	.st119{fill:#AA779F;}
	.st120{fill:#FBC063;}
	.st121{fill:#80A0C2;}
	.st122{fill:#CFAC75;}
	.st123{fill:#CD94C2;}
	.st124{fill:#AAB6DE;}
	.st125{fill:#CCAE99;}
	.st126{fill:#86B69F;}
	.st127{fill:#555D57;}
	.st128{fill:#86C1BB;}
	.st129{fill:#CA856C;}
	.st130{fill:#A4AA6D;}
	.st131{fill:#EAB978;}
	.st132{fill:#C091A7;}
	.st133{fill:#7E9DAD;}
	.st134{fill:#E5B1C8;}
	.st135{fill:#B9AEA3;}
	.st136{fill:#627F99;}
	.st137{fill:#E6A9AB;}
	.st138{fill:#913E41;}
	.st139{fill:#B46269;}
	.st140{fill:#C69C6C;}
	.st141{fill:#ED6D78;}
	.st142{fill:#C09047;}
	.st143{fill:#AE6C7B;}
	.st144{fill:#918FB2;}
	.st145{fill:#67816D;}
	.st146{fill:#B3B1A2;}
	.st147{fill:#A23A43;}
	.st148{fill:#6A907C;}
	.st149{fill:#B09294;}
	.st150{fill:#7B484D;}
	.st151{fill:#B78B5E;}
	.st152{fill:#DB7D82;}
	.st153{fill:#781611;}
	.st154{fill:#D38F8F;}
	.st155{fill:#965656;}
	.st156{fill:#9AA4B4;}
	.st157{fill:#754D24;}
	.st158{fill:#C8B7A7;}
	.st159{fill:#B4363B;}
	.st160{fill:#C77272;}
	.st161{fill:#91AF82;}
	.st162{fill:#C69462;}
	.st163{fill:#ED6C5B;}
	.st164{fill:#F3C186;}
	.st165{fill:#F3957D;}
	.st166{fill:#D1BBBC;}
</style>
<g>
	<g>
		<g>
			<path class="st52" d="M89.8,169.8c3.6,2.1,7.1,4.4,10.3,7c0.4,0.3,0.8,0.7,1.2,1.1c0.5,0.6,0.7,1.4,0.4,2.2
				c-0.4,0.8-1,1.2-1.9,1.2c-0.5,0-1.1,0-1.6-0.1c-1.9-0.5-3.9-1-5.8-1.6c-4.7-1.6-9.3-3.3-13.9-5c-2.4-0.9-4.7-2.1-6.7-3.7
				c-0.9-0.7-1.7-1.6-2.1-2.6c-1.2-2.5,0.1-4.7,2.9-4.9c1.3-0.1,2.7,0.2,3.9,0.5c2.6,0.7,5,1.8,7.4,2.9
				C85.8,167.8,87.8,168.8,89.8,169.8z"/>
			<path class="st52" d="M92.7,150.3c1.6,0.9,2.8,2.2,3.9,3.6c3.5,4.4,6.5,9.1,9.3,14c0.4,0.8,0.9,1.5,1.3,2.3
				c0.2,0.4,0.4,0.8,0.4,1.2c0.3,1.4-0.9,2.6-2.3,2.3c-0.6-0.1-1.3-0.5-1.8-0.9c-1.4-1.3-2.8-2.6-4.1-4c-2.5-2.6-4.9-5.3-7.3-8
				c-1.6-1.8-2.9-3.6-3.8-5.9c-0.2-0.6-0.4-1.2-0.6-1.9c-0.2-1.2,0.1-2.3,1.1-3c1-0.7,2.1-0.7,3.2-0.2
				C92.4,150,92.6,150.2,92.7,150.3z"/>
			<path class="st52" d="M75.7,190c-0.1,0-0.3-0.2-0.5-0.3c-1.6-1.1-1.8-3.1-0.5-4.5c0.6-0.7,1.4-1.3,2.4-1.5c1-0.2,2-0.4,3-0.5
				c2.3-0.1,4.6-0.1,6.9,0.3c3.4,0.5,6.9,1.1,10.3,1.7c0.6,0.1,1.1,0.3,1.7,0.4c0.3,0.1,0.6,0.2,0.8,0.3c0.7,0.4,1.1,1.1,1.1,1.9
				c0,0.8-0.5,1.4-1.2,1.7c-0.7,0.3-1.5,0.6-2.3,0.7c-2.6,0.3-5.2,0.7-7.7,0.8c-3.1,0.1-6.3,0-9.4,0C78.2,191.1,76.9,190.7,75.7,190
				z"/>
		</g>
		<g>
			<path class="st52" d="M357.7,341.1c-3.4-2.5-6.5-5.2-9.5-8.1c-0.4-0.4-0.8-0.8-1.1-1.3c-0.5-0.7-0.6-1.4-0.1-2.2
				c0.4-0.8,1.1-1.1,2-1c0.5,0,1.1,0.1,1.6,0.3c1.9,0.7,3.8,1.4,5.6,2.3c4.5,2.1,8.9,4.3,13.3,6.5c2.3,1.1,4.4,2.6,6.3,4.4
				c0.8,0.8,1.5,1.7,1.9,2.8c0.9,2.6-0.6,4.7-3.4,4.6c-1.4,0-2.6-0.5-3.9-0.9c-2.5-1-4.8-2.3-7.1-3.7
				C361.5,343.5,359.6,342.3,357.7,341.1z"/>
			<path class="st52" d="M352.7,360.2c-1.4-1.1-2.5-2.5-3.5-4c-3-4.8-5.5-9.8-7.7-15c-0.3-0.8-0.7-1.6-1-2.4
				c-0.1-0.4-0.3-0.8-0.3-1.2c-0.1-1.4,1.1-2.5,2.5-2c0.6,0.2,1.3,0.6,1.7,1.1c1.3,1.4,2.5,2.9,3.7,4.4c2.2,2.9,4.3,5.8,6.4,8.7
				c1.4,1.9,2.5,3.9,3.2,6.2c0.2,0.6,0.3,1.3,0.3,1.9c0.1,1.2-0.3,2.3-1.4,2.9c-1.1,0.6-2.2,0.5-3.2-0.1
				C353.1,360.5,352.9,360.3,352.7,360.2z"/>
			<path class="st52" d="M374,322.5c0.1,0.1,0.3,0.2,0.4,0.3c1.4,1.3,1.4,3.3,0,4.5c-0.7,0.7-1.5,1.1-2.5,1.2c-1,0.1-2,0.2-3,0.1
				c-2.3-0.1-4.6-0.4-6.8-1c-3.4-0.9-6.7-1.9-10-2.8c-0.6-0.2-1.1-0.4-1.6-0.6c-0.3-0.1-0.5-0.3-0.8-0.4c-0.7-0.5-1-1.2-0.9-2
				c0.1-0.8,0.6-1.4,1.4-1.6c0.8-0.2,1.6-0.4,2.4-0.4c2.6,0,5.2-0.1,7.8,0.1c3.1,0.2,6.3,0.6,9.4,1
				C371.6,321.2,372.8,321.7,374,322.5z"/>
		</g>
	</g>
	<g>
		<g>
			<path class="st59" d="M294.1,133.2c-0.2,0.5-0.3,1-0.5,1.6c-1.1,3.9-2,7.9-3.5,11.8c-0.6,1.6-1.4,3.2-2.1,4.7
				c-0.4,0.8-0.9,1.5-1.4,2.2c-2.9,4-7.1,5.4-11.8,3.8c-4.7-1.6-8.1-4.7-10.4-9c-1.6-2.9-2.4-6.2-2.9-9.5c-0.3-2.1-0.5-4.2-0.3-6.3
				c0-0.2,0-0.4-0.1-0.7c-0.6,0.2-1.1,0.4-1.6,0.5c-1,0.3-2,0.7-3.1,0.8c-1.7,0.3-3.3-0.1-4.8-0.9c-0.3-0.2-0.6-0.3-0.9-0.5
				c-0.1,0.4-0.2,0.7-0.3,1c-1.9,6.5-3.8,13-6.4,19.2c-0.8,1.8-1.6,3.5-2.6,5.1c-0.6,1.1-1.4,2.2-2.3,3.1c-2.2,2.3-5,2.5-7.6,0.7
				c-0.9-0.6-1.7-1.4-2.4-2.2c-1.9-2.1-3.2-4.5-4.3-7.1c-1.9-4.6-3.5-9.3-5-14c-0.9-2.7-1.9-5.5-2.9-8.2c-1.8-5.2-3-10.6-4.1-16
				c0-0.2-0.1-0.4-0.3-0.6c0,0.2-0.1,0.5-0.1,0.7c-0.1,3.9-0.2,7.9-0.4,11.8c-0.4,7.1-1,14.2-3.1,21.1c-0.5,1.7-1.2,3.4-2,5
				c-0.4,1-1.1,1.8-1.8,2.6c-1.6,1.7-3.5,2-5.6,1c-1.4-0.7-2.6-1.7-3.6-3c-1.6-2-2.6-4.3-3.4-6.8c-0.5-1.7-0.9-3.5-1.4-5.3
				c0-0.1-0.1-0.3-0.3-0.5c-0.1,0.3-0.2,0.6-0.3,0.8c-0.7,1.9-1.3,3.7-2.1,5.5c-0.5,1.1-1.2,2.2-2,3.2c-1.8,2.3-4.2,3-7.1,2.2
				c-1.8-0.5-3.3-1.4-4.6-2.7c-1-1.1-1.9-2.3-2.8-3.5c-0.2-0.2-0.4-0.5-0.6-0.9c-0.1,0.4-0.2,0.7-0.3,1c-1.7,6.4-3.3,12.8-5.1,19.2
				c-0.8,2.9-1.7,5.7-2.7,8.5c-0.5,1.4-1.2,2.8-2,4.1c-0.7,1.2-1.8,2-3.2,2.2c-1.1,0.1-2.1-0.2-3-0.7c-1.3-0.8-2.3-1.9-3.2-3.1
				c-1.4-2.1-2.2-4.3-2.9-6.7c-0.9-3.3-1.3-6.8-1.6-10.2c-0.4-5.7-0.2-11.4,0.2-17.2c0.4-5.3,1.2-10.5,2.2-15.7
				c1.1-5.7,2.3-11.4,3.5-17.1c0.2-0.9,0.3-1.7,0.3-2.6c0-1.3-0.7-2-2-2.1c-1-0.1-2,0.1-2.9,0.5c-1.2,0.5-2.4,1.1-3.6,1.8
				c-1.9,1.2-3.8,2.4-5.7,3.7c0,0.3,0,0.6,0.1,0.9c0.2,2.2,0.4,4.4,0.5,6.6c0.1,1.9,0.2,3.8,0.1,5.7c-0.2,5.8-0.8,11.5-2.5,17.1
				c-0.6,2-1.4,4-2.3,6c-0.9,2.1-2.3,3.9-3.9,5.6c-3,3-6.5,3.9-10.6,2.8c-2.2-0.6-4.2-1.7-5.9-3.1c-3.9-3.1-6.5-7.1-8.4-11.7
				c-1.7-4.2-2.8-8.6-3.5-13.1c-0.9-5.2-1.2-10.5-1.4-15.7c-0.2-3.7-0.2-7.4-0.1-11.1c0.1-2.4,0.3-4.7,0.4-7.1
				c0.1-1.3,0.2-2.7,0.3-4c0.1-1.5,0.3-3,0.4-4.6c0-0.3,0-0.6,0.1-1c-1,0.1-1.9,0.2-2.8,0.3c-3.6,0.5-7.1,1.1-10.6,2.1
				c-1,0.3-1.9,0.6-2.9,0.9c-0.4,0.1-0.9,0.3-1.3,0.3c-0.8,0-1.5-0.4-1.7-1.2c-0.3-0.7-0.1-1.5,0.6-2c0.4-0.3,0.8-0.5,1.3-0.7
				c2.7-0.8,5.3-1.7,8-2.4c5.8-1.3,11.6-2.3,17.5-2.4c3,0,6-0.1,9,0c4.4,0.2,8.6,1.1,12.9,2c6,1.4,11.9,3.3,17.8,5.2
				c4.1,1.4,8.2,2.8,12.4,3.7c5.9,1.3,11.6,0.6,17-2.2c0.8-0.4,1.6-1.1,2.2-1.8c1.1-1.3,2-2.8,2.7-4.4c0.5-1.2,1.1-2.4,1.7-3.5
				c0.3-0.5,0.7-1,1.1-1.4c1.3-1.2,2.9-0.9,3.8,0.5c0.7,1.2,0.7,2.4,0.5,3.7c-0.3,2.5-1.5,4.6-3.1,6.4c-2.9,3.6-6.4,6.1-10.8,7.4
				c-3,0.9-6.1,1-9.3,0.8c-8.1-0.5-15.7-3.1-23.3-5.7c-2.2-0.7-4.4-1.5-6.6-2.3c-4.4-1.6-8.9-2.6-13.4-3.5c-3.1-0.6-6.2-1-9.4-1
				c-0.3,0-0.6,0-1,0c0,0.1-0.1,0.3-0.1,0.4c-0.1,2.9-0.1,5.7-0.2,8.6c-0.2,7.4-0.2,14.7,0.2,22c0.4,7,1.2,13.9,2.9,20.6
				c0.9,3.6,2,7.1,4.1,10.3c0.9,1.3,1.8,2.5,3,3.5c0.2,0.1,0.4,0.3,0.5,0.4c1.3,1.1,2.7,1,4.1,0.2c1.4-0.8,2.5-1.9,3.3-3.3
				c1.4-2.4,2.2-5,2.9-7.6c1.4-5.3,1.9-10.6,1.8-16c0-3.2-0.2-6.4-0.6-9.5c0-0.2-0.1-0.3-0.1-0.6c-0.4,0.1-0.7,0.3-1,0.4
				c-2.1,0.9-4.3,1.4-6.5,1.3c-3.5-0.1-6.3-1.7-8.5-4.3c-1.8-2.1-2.8-4.6-3.3-7.4c-0.5-3.4-0.2-6.7,1.3-9.8c0.5-1,1.1-1.9,1.8-2.7
				c2.3-2.6,5.5-3.1,8.6-1.5c1.5,0.8,2.7,1.9,3.7,3.3c2,2.6,3.5,5.5,4.4,8.6c0.5,1.6,0.8,3.2,1.2,4.8c0.1,0.4,0.2,0.8,0.3,1.2
				c0.4-0.2,0.7-0.3,1-0.5c2.2-1.2,4.5-2.5,6.7-3.7c1.5-0.8,3-1.5,4.6-1.8c4.5-0.8,8.2,0.7,10.3,4.7c1.2,2.3,1.7,4.8,2,7.3
				c0.7,5.5,0.5,11,0.3,16.5c-0.2,3.4-0.4,6.8-0.6,10.2c-0.2,3.3-0.6,6.5-0.8,9.8c-0.2,2.5-0.4,4.9-0.6,7.4
				c-0.2,3.3-0.5,6.5-0.7,9.8c-0.1,1.8-0.2,3.6-0.3,5.4c0,0.5,0.1,1,0.1,1.6c0.6-0.4,0.8-0.9,1-1.4c0.6-1.7,1.2-3.4,1.6-5.1
				c2-8.1,4-16.3,6-24.4c0.1-0.5,0.1-1-0.1-1.5c-2-6.6-2.5-13.3-1.1-20c0.5-2.1,1.2-4,2.3-5.9c3.1-5,8.2-7,13.9-5.4
				c2,0.6,3.9,1.5,5.5,2.8c0.2,0.2,0.4,0.3,0.6,0.5c0,0,0.1,0,0.2,0.1c0.1-0.3,0.2-0.6,0.2-0.8c0.6-1.9,1.8-3.3,3.6-4.1
				c1.7-0.8,3.4-0.5,4.7,0.9c0.6,0.7,1.1,1.5,1.5,2.3c0.8,1.6,1,3.3,1.1,5c0.1,2.4,0.2,4.7,0.2,7.1c0,3.9,0,7.8,0,11.7
				c0,3.1,0.1,6.1,0.6,9.1c0.1,1,0.4,1.9,0.7,2.8c0.1,0.4,0.4,0.7,0.7,1.2c0.3-0.4,0.6-0.6,0.8-0.9c0.4-0.8,0.9-1.7,1.2-2.6
				c0.9-2.6,1.2-5.2,1.5-7.9c0.4-4.4,0.9-8.9,1.2-13.3c0.3-3.5,0.3-7,0.5-10.5c0.2-3,0.3-6.1,0.6-9.1c0.1-1.2,0.4-2.3,0.8-3.4
				c1.4-4,5.1-5.1,8.5-2.5c1.2,0.9,2.2,2.1,2.8,3.4c0.6,1.3,1.3,2.6,1.8,3.9c1.8,4.8,3,9.8,3.9,14.8c2.3,12.1,5.6,24,10.3,35.4
				c0.1,0.1,0.1,0.3,0.3,0.5c0.4-0.6,0.8-1.1,1.1-1.6c2-3.2,3.5-6.6,4.6-10.2c1.4-4.3,2.6-8.7,3.8-13c0.2-0.6,0-1-0.3-1.5
				c-3.6-4.4-5.6-9.5-6.4-15.2c-0.5-3.7-0.5-7.3,0.4-10.9c0.3-1.2,0.8-2.5,1.4-3.6c0.3-0.7,0.9-1.3,1.4-1.8c1.6-1.5,3.6-1.6,5.3-0.2
				c0.9,0.7,1.5,1.5,2,2.5c0.9,1.7,1.4,3.6,1.7,5.6c0.6,3.5,0.5,7,0.1,10.5c-0.4,3.1-0.8,6.2-1.3,9.3c-0.1,0.5,0,0.8,0.3,1.2
				c0.1,0.2,0.2,0.3,0.3,0.5c1.8,2.7,3.7,3.3,7.3,2.7c1.2-0.2,1.7-0.8,2-2c0.8-4,2.4-7.6,5-10.8c1.6-1.9,3.5-3.5,6-4.2
				c1.7-0.5,3.4-0.6,5.1-0.1c2.1,0.6,3.9,1.6,5.6,2.9c1.6,1.4,2.6,3.1,2.7,5.2c0.1,2.1-0.7,3.9-2.6,5c-1,0.5-2.1,0.9-3.2,1.2
				c-1.6,0.4-3.3,0.7-4.9,1.1c-0.2,0-0.4,0.1-0.7,0.2c-0.3,1.6-0.2,3.2-0.2,4.8c0.2,3.8,0.8,7.6,2.3,11.1c0.6,1.4,1.2,2.8,2.2,4
				c0.4,0.5,0.9,1.1,1.4,1.5c1.3,1.1,2.6,1.2,3.8,0c0.9-0.8,1.7-1.7,2.3-2.7c0.6-1,1.1-2.1,1.6-3.1c1.5-3.3,2.5-6.8,3.5-10.2
				c0.5-1.9,1.1-3.7,1.6-5.6c0.1-0.4,0.2-0.9,0.1-1.3c-0.5-5.5-0.7-11-0.3-16.5c0.3-3.8,0.7-7.6,1.2-11.3c0.6-5,1.6-9.9,3.1-14.7
				c1-3.2,2.2-6.3,4.1-9c0.8-1.1,1.7-2.2,2.7-3.1c2.8-2.5,6.1-2.1,8.3,1c1.4,2,2.1,4.4,2.3,6.9c0.6,5.6-0.3,11.1-1.8,16.6
				c-1.4,5.2-3.7,10.1-6.6,14.6c-0.3,0.5-0.4,1-0.4,1.6c-0.1,5.7,0.4,11.4,1.1,17.1c0.9,7.1,2.4,14.2,4.7,21
				c0.8,2.3,1.7,4.6,2.8,6.7c0.6,1.2,1.5,2.3,2.3,3.4c0.2,0.3,0.6,0.6,1,0.8c0.6,0.4,1.2,0.4,1.8,0.1c0.6-0.3,1.1-0.7,1.6-1.1
				c1.7-1.6,3-3.5,3.9-5.7c1.7-4.2,3.4-8.4,5.1-12.6c0.3-0.8,0.6-1.5,0.9-2.3c0.3-0.5,0.6-1,1-1.4c0.4-0.5,1-0.7,1.7-0.5
				c0.6,0.2,1,0.8,0.9,1.6c0,0.5-0.1,1.1-0.3,1.6c-2.7,6.6-5.4,13.2-8.1,19.8c-0.5,1.3-1.2,2.5-1.9,3.7c-0.5,0.8-1,1.5-1.6,2.2
				c-2.6,2.9-5.8,3.7-9.4,2.5c-1.3-0.4-2.4-1.1-3.5-1.9c-2-1.5-3.6-3.2-5.1-5.2c-3-4-5-8.5-6.7-13.2c-1.6-4.8-2.6-9.7-3.5-14.7
				c0-0.2-0.1-0.5-0.2-0.7C294.2,133.2,294.1,133.2,294.1,133.2z M189.8,126.3c0.2-2.7,0.2-5.7,0.6-8.6c0.2-1.4-0.3-2.1-1.3-2.8
				c-0.3-0.2-0.6-0.4-0.9-0.6c-1.4-0.8-2.7-0.7-3.9,0.4c-0.5,0.4-1,0.9-1.3,1.5c-0.6,1.1-1.1,2.2-1.5,3.4c-0.8,2.5-1.1,5.1-1.3,7.8
				c-0.3,4-0.4,8.1,0.3,12.1c0.3,2.1,0.8,4.1,1.7,6c0.9,1.8,1.6,1.9,2.9,0.4c0.7-0.8,1.2-1.7,1.8-2.6c1.6-2.8,2.2-5.9,3.2-9
				c0.1-0.3,0-0.6,0-0.9C190,131,189.9,128.8,189.8,126.3z M310.3,76.4c-0.2,0.3-0.5,0.6-0.6,0.9c-0.2,0.5-0.4,1-0.5,1.5
				c-1,3.4-1.6,6.9-1.9,10.4c-0.2,1.8-0.3,3.6-0.5,5.4c-0.3,3.3-0.6,6.7-0.5,10c0,0.2,0,0.3,0.1,0.5c0.6-0.8,1.1-1.6,1.5-2.4
				c1.7-3.5,2.7-7.2,3.3-11.1c0.5-3.2,1-6.4,1-9.7c0-1.4-0.3-2.8-0.8-4.2C311.2,77.3,311,76.8,310.3,76.4z M135.8,106.5
				c-0.8-3.7-1.8-7.1-3.8-10.2c-0.6-0.9-1.2-1.7-1.9-2.4c-0.5-0.5-1.2-1-1.9-1.3c-0.6-0.3-1-0.2-1.3,0.4c-0.2,0.4-0.4,0.9-0.5,1.4
				c-0.3,1.3-0.2,2.6,0,3.9c0.4,2.3,1.2,4.4,2.9,6.1C131,106,133.1,106.7,135.8,106.5z M249.8,120c0.1-0.3,0.1-0.4,0.1-0.5
				c0.2-1.5,0.5-2.9,0.7-4.4c0.5-3.7,0.5-7.3-0.4-10.9c-0.3-1.2-0.8-2.4-1.3-3.6c-0.1-0.4-0.4-0.7-0.9-0.6c-0.4,0.1-0.5,0.5-0.6,0.8
				c-0.1,0.9-0.3,1.9-0.3,2.8c0,1.8,0.1,3.6,0.2,5.3c0.3,3.5,1,7,2.1,10.4C249.5,119.4,249.6,119.6,249.8,120z M275.2,124.6
				c0.4-0.1,0.7-0.1,1-0.1c1.2-0.3,2.4-0.5,3.6-0.8c1.2-0.4,2.2-1,2.8-2.1c0.8-1.4-0.1-3.4-1.7-3.7c-1.2-0.2-2.1,0.2-2.9,1.1
				C276.5,120.4,275.9,122.5,275.2,124.6z"/>
			<path class="st45" d="M219.1,234.6c-4.3,1.9-8.1,1.2-11.8-1.4c-0.2,0.5-0.3,0.9-0.5,1.3c-1.8,5-4,10-6.5,14.7
				c-1.2,2.3-2.6,4.6-4.3,6.6c-0.6,0.7-1.2,1.4-1.9,1.9c-1.7,1.3-3.6,1.3-5.4,0.2c-1.1-0.7-2-1.7-2.7-2.8c-1.8-2.6-3-5.5-3.6-8.7
				c-1.3-7-2-14-2.5-21.1c0-0.6-0.1-1.1-0.1-1.7c0-0.1-0.1-0.1-0.2-0.3c-0.3,0.2-0.5,0.4-0.8,0.6c-1.3,1.1-2.7,2.3-4,3.4
				c-0.8,0.7-1.7,1.3-2.6,1.9c-0.5,0.3-0.7,0.7-0.7,1.3c0,4.6-0.6,9.1-2,13.5c-0.9,2.8-1.9,5.5-3.5,8c-1.1,1.8-2.5,3.5-4.2,4.9
				c-3.6,2.9-8.1,3.2-12,0.9c-3.7-2.2-6.2-5.5-7.6-9.6c-0.5-1.3-0.7-2.8-1.1-4.2c-0.1,0.3-0.2,0.6-0.3,0.8c-1,3-2,6-3.1,9
				c-0.7,2-1.7,3.8-3,5.5c-0.5,0.7-1.1,1.4-1.7,2c-2.5,2.3-5.4,2.8-8.6,1.6c-1.8-0.7-3.3-1.9-4.7-3.2c-2.3-2.2-4-4.8-5.4-7.6
				c-2.2-4.1-3.6-8.6-4.8-13c-0.1-0.2-0.1-0.4-0.2-0.7c0-0.1-0.1-0.2-0.2-0.4c-0.8,0.4-1.5,0.8-2.2,1.1c-0.9,0.4-1.7,0.9-2.6,1.3
				c-0.4,0.2-0.9,0.3-1.3,0.4c-0.7,0.1-1.2-0.1-1.6-0.7c-0.4-0.6-0.3-1.2,0.1-1.7c0.6-0.6,1.2-1.1,1.9-1.5c1.3-0.9,2.7-1.7,4-2.6
				c0.1-0.1,0.3-0.2,0.4-0.3c0.4-0.2,0.4-0.5,0.3-0.9c-0.4-2.9-0.8-5.7-1.1-8.6c-0.5-4.5-0.6-9-0.4-13.5c0.1-3.9,0.3-7.8,0.9-11.7
				c0.6-4.2,1.6-8.4,3.3-12.3c0.8-1.7,1.6-3.2,2.7-4.7c1-1.3,2.2-2.5,3.6-3.4c3.6-2.1,7.6-1.6,10.5,1.5c2,2.2,3.1,4.8,3.6,7.7
				c0.7,3.5,0.6,7,0.3,10.6c-0.7,9.2-4.3,17.4-9,25.2c-0.4,0.6-0.5,1.2-0.5,2c0.8,7.1,2.3,14,4.3,20.8c0.7,2.3,1.6,4.6,2.9,6.7
				c0.3,0.5,0.7,1,1.1,1.4c0.5,0.5,1,0.6,1.6,0.1c0.4-0.3,0.9-0.7,1.2-1.1c1.4-1.6,2.5-3.4,3.1-5.5c1.4-4,2.6-8.1,3.9-12.2
				c0.5-1.5,1-3.1,1.4-4.7c0.3-1.1,0.3-1.3-0.6-2.1c-5.2-4.5-7.5-10.1-6.9-17c0.4-3.7,1.7-7.1,4.4-9.8c3.4-3.4,7.6-4.8,12.3-4.8
				c4.4,0,8.1,1.7,11.2,4.7c4,3.9,6.7,8.7,8,14.1c0.6,2.4,0.9,4.9,1.4,7.4c0,0.1,0,0.2,0.1,0.4c0.2-0.1,0.4-0.2,0.6-0.3
				c1.6-1.4,3.3-2.8,4.9-4.2c1-0.9,1.9-1.8,2.9-2.6c0.7-0.5,1.5-1,2.3-1.3c1.7-0.7,3.2-0.3,4.5,0.8c0.9,0.8,1.5,1.8,2,2.9
				c0.9,2,1.5,4.1,1.9,6.2c1,5.1,1.9,10.3,3,15.4c0.5,2.5,1.1,4.9,1.7,7.4c0.1,0.3,0.2,0.5,0.3,0.9c1-1,1.7-2,2.4-3.1
				c0.9-1.4,1.6-2.8,2.5-4.2c2-3.4,3.4-7,4.6-10.7c0.1-0.4,0.3-0.7,0-1.1c-2.5-3-3.7-6.5-4.5-10.3c-0.7-3-0.9-6-0.3-9
				c0.2-1.3,0.6-2.5,1.3-3.6c0.4-0.6,0.8-1.1,1.3-1.6c1.6-1.4,3.6-1.3,5.2,0c0.8,0.7,1.3,1.5,1.8,2.4c0.7,1.5,1.1,3.2,1.2,4.9
				c0.3,3.2-0.1,6.4-0.7,9.6c-0.2,1.2-0.5,2.4-0.8,3.6c-0.1,0.5-0.1,0.9,0.3,1.3c1.1,1.3,2.4,2.5,3.9,3.4c1.3,0.8,2.7,0.8,4.1,0.4
				c1.5-0.4,2.3-1.1,2.5-2.8c0.3-2.3,1.1-4.4,2.1-6.5c1.4-2.8,3.4-5,6.3-6.4c5.6-2.7,11.6,1,13.4,5.3c1.3,3.1,0.1,8.6-4.3,10.1
				c-1.5,0.5-3.1,0.9-4.7,1.1c-0.3,0-0.7,0.1-1.1,0.2c0,1.5,0,2.9,0,4.3c0.1,4.9,0.9,9.8,2.7,14.4c0.4,0.9,0.8,1.9,1.2,2.8
				c0.4,0.9,1,1.7,1.8,2.3c0.6,0.5,1.2,0.7,1.9,0.5c0.7-0.2,1.4-0.4,2-0.8c1.1-0.8,2.1-1.6,3-2.6c2.4-2.5,4.4-5.4,6.2-8.3
				c0.8-1.2,1.7-2.4,2.5-3.6c0.4-0.6,0.8-1,1.5-1.2c1.2-0.4,2.3,0.5,2,1.7c-0.1,0.5-0.3,1-0.6,1.4c-2.3,3.6-4.6,7.1-6.8,10.7
				c-1.5,2.4-3.1,4.6-5.2,6.6c-1.8,1.7-3.8,3-6.2,3.7c-1.9,0.5-3.7,0.5-5.6,0c-4.3-1.2-7.3-3.9-9.3-7.7c-1.4-2.7-2.3-5.7-2.9-8.7
				c-0.8-4.2-1.1-8.5-0.8-12.8C219,235.2,219,235,219.1,234.6z M168.6,226.3c0-0.1,0-0.2,0-0.3c-0.3-2.7-0.7-5.3-1.3-8
				c-1.2-4.8-3.3-9.1-6.9-12.7c-1.5-1.5-3.2-2.5-5.4-3c-2.5-0.5-4.7-0.1-6.6,1.6c-1.5,1.3-2.5,3-3.1,4.9c-0.8,2.5-1,5.2-0.6,7.8
				c0.1,0.7,0.2,1.4,0.7,2c0.3-0.3,0.6-0.6,0.9-0.8c1.4-1.2,3-1.7,4.8-1.2c1.7,0.5,2.7,1.6,3.3,3.2c0.6,1.4,0.8,2.8,0.8,4.3
				c0,1.2,0,2.4,0,3.6C158.9,229,165.6,228.3,168.6,226.3z M154.1,234.1c-0.1,1.2-0.2,2.2-0.3,3.3c-0.3,3.2-0.5,6.4-0.1,9.6
				c0.2,1.5,0.5,3,1.3,4.3c0.8,1.3,1.9,1.7,3.4,1.3c1.2-0.4,2.2-1,3.1-1.8c1.2-1.2,2.1-2.6,2.9-4c1.6-2.9,2.6-6,3.3-9.2
				c0.4-1.9,0.7-3.8,0.7-5.9C163.8,233.5,159.1,234.4,154.1,234.1z M121.3,218.1c0.2-0.4,0.3-0.6,0.4-0.8c0.6-1.2,1.1-2.5,1.7-3.7
				c1.2-2.6,2.2-5.3,2.9-8.2c0.7-3.3,1.3-6.6,1.6-9.9c0.2-3.1-0.1-6.1-0.9-9.1c-0.2-0.8-0.6-1.6-1.1-2.4c-0.6-0.9-1.3-0.9-2,0
				c-0.4,0.6-0.8,1.3-1,2.1c-0.5,1.7-0.9,3.4-1.1,5.1c-0.7,5.1-1,10.1-1,15.3c0,3.6,0.2,7.1,0.4,10.7
				C121.2,217.5,121.2,217.7,121.3,218.1z M232,229.6c1.5,0,2.9-0.3,4.2-0.7c2.7-0.8,3.3-5.2,1.5-6.8c-0.7-0.7-1.4-0.8-2.3-0.5
				c-1,0.3-1.7,1-2.1,1.9c-0.5,1.2-0.9,2.4-1.1,3.7C232,227.9,232.1,228.8,232,229.6z M205.8,209.5c-0.2,0.5-0.5,1-0.6,1.5
				c-0.2,1.2-0.4,2.5-0.3,3.7c0.1,2.9,0.7,5.8,1.9,8.5c0.1,0.2,0.2,0.4,0.4,0.7c0.1-0.2,0.2-0.3,0.2-0.5c0.6-2.7,1-5.5,0.8-8.3
				c-0.1-1.6-0.4-3.1-1-4.5C206.9,210.1,206.6,209.7,205.8,209.5z"/>
			<path class="st52" d="M354.8,298c-0.7-0.3-1.4-0.2-2,0.4c-0.4,0.4-0.7,0.8-1.1,1.3c-1.4,1.8-2.8,3.6-4.2,5.5
				c-1.9,2.5-4.1,4.6-6.5,6.6c-2.8,2.3-5.8,4.2-8.8,6.1c-0.2,0.1-0.3,0.1-0.6,0.2c0-0.8,0-1.5,0-2.2c0.3-5,0.3-10.1,0.1-15.1
				c-0.1-1.8-0.1-3.5-0.3-5.3c-0.3-2.8-0.6-5.6-0.9-8.3c-0.3-2.6-0.9-5.1-1.9-7.4c-0.5-1-1-2.1-1.8-2.9c-2.3-2.7-6.3-2.7-8.6,0
				c-0.5,0.6-1,1.4-1.3,2.2c-0.4,1-0.7,2.1-1,3.2c-0.8,3.2-1.5,6.4-2.4,9.6c-1,3.6-2.2,7.1-4.3,10.2c-0.8,1.3-1.7,2.5-2.7,3.7
				c-0.6,0.8-1.3,1.4-2.2,1.7c-0.6,0.3-1,0.2-1.3-0.5c-0.2-0.5-0.4-1.1-0.5-1.7c-0.5-2.6-0.4-5.3-0.3-8c0.1-3.4,0.3-6.9-0.1-10.3
				c-0.2-2.1-0.7-4.1-1.6-6c-0.6-1.2-1.4-2.3-2.5-3.1c-1.9-1.4-4.3-1-5.7,0.9c-0.6,0.8-1,1.7-1.4,2.6c-0.4,1-0.7,2-1,3.1
				c-0.8,2.6-1.7,5.2-3,7.6c-0.1,0.2-0.3,0.5-0.5,0.7c-0.3-1.6-0.5-3.2-0.9-4.7c-0.8-3.3-2.3-6.3-5-8.5c-3.9-3.2-8.4-3.9-13-1.2
				c-1.4,0.8-2.7,1.8-3.9,2.9c-3,3.1-5.5,6.5-6.9,10.6c-1,2.9-1.9,6-2.8,8.9c-0.1,0.3-0.2,0.6-0.3,0.9c-0.1-0.3-0.1-0.5-0.1-0.7
				c0-3.1,0-6.2-0.1-9.3c-0.1-3-0.3-5.9-0.9-8.8c-0.4-1.6-0.8-3.2-1.7-4.6c-0.8-1.3-1.9-2.3-3.4-2.9c-2.3-0.8-4.6,0-5.8,2.1
				c-0.4,0.7-0.7,1.4-0.9,2.2c-0.4,1.4-0.7,2.8-1,4.2c-0.8,4.7-2.3,9.1-4.9,13c-0.1,0.2-0.3,0.4-0.5,0.7c-0.1-1.3-0.3-2.4-0.4-3.4
				c-0.5-3.5-1.3-6.8-2.9-10c-1.3-2.5-2.9-4.6-5.1-6.3c-2.4-1.8-5-2.7-8-2.3c-2.2,0.2-4.2,1-6,2.2c-2.7,1.7-4.7,4.1-6.4,6.8
				c-1.8,2.9-3,6-3.9,9.2c-0.2,0.7-0.4,1.5-0.6,2.2c-0.2-0.6-0.3-1.2-0.3-1.8c-0.3-3.4-1-6.8-2.1-10c-0.5-1.4-1.2-2.7-2.2-3.8
				c-1.6-1.8-3.9-2.2-6-1c-0.8,0.5-1.5,1.1-2.1,1.8c-1.1,1.2-1.7,2.8-2.1,4.3c-1.3,4.5-2.6,9.1-3.9,13.6c-1.2,4.1-2.7,8.2-4.7,12.1
				c-0.5,0.9-1,1.7-1.5,2.5c-0.3,0.5-0.8,0.9-1.5,1.1c-0.2-0.4-0.4-0.8-0.5-1.2c-0.3-1.1-0.6-2.2-0.7-3.3c-0.6-3.6-0.6-7.3-0.8-10.9
				c-0.2-3.7-0.3-7.4-0.4-11.1c-0.1-2.1-0.4-4.1-1-6.2c-0.3-1.2-0.8-2.4-1.6-3.4c-1.5-1.9-3.9-2.3-5.8-1c-0.8,0.5-1.5,1.2-1.9,2
				c-0.5,0.9-0.8,1.9-1.2,2.9c-0.2,0.6-0.3,1.2-0.5,1.9c-0.3-0.3-0.4-0.5-0.6-0.8c-1.8-2.5-4.1-4.4-6.9-5.8
				c-2.4-1.2-4.9-1.6-7.6-1.2c-3.3,0.5-5.7,2.5-7.5,5.2c-1.9,2.9-2.9,6.1-3.3,9.5c-0.5,4.4-0.3,8.8,0.6,13.2
				c0.1,0.8,0.3,1.5,0.5,2.3c-1.4,2.2-2.8,4.5-4.2,6.7c-0.7,1.2-1.6,2.3-2.5,3.3c-0.4,0.5-0.9,0.8-1.5,1.2c-0.5-0.8-0.6-1.7-0.7-2.5
				c-0.5-4.2-1.1-8.4-1.6-12.6c-0.5-4.5-1.4-8.8-2.9-13.1c-1.5-4.2-4.3-7.2-8.6-8.7c-1.7-0.6-3.4-0.7-5.2-0.4
				c-2.9,0.6-5.3,2.1-7.3,4.3c-1.2,1.3-2.3,2.8-3.2,4.4c-2.6,4.3-4.3,9-5.4,13.9c-0.2,0.9-0.4,1.7-0.6,2.6c-0.2-0.3-0.3-0.6-0.3-0.9
				c-0.8-5.5-1.7-11-2.4-16.5c-0.8-5.7-0.9-11.4-0.9-17.1c0-0.5,0.2-0.9,0.6-1.3c1.2-1.2,2.3-2.4,3.4-3.6c2.2-2.6,3.9-5.5,4.9-8.7
				c1.1-3.3,1.5-6.7,1.4-10.1c-0.1-2.9-0.7-5.6-2.9-7.8c-2.4-2.4-5.1-3.2-8.3-2.1c-2.2,0.7-3.9,2.1-5.4,3.8c-1.3,1.5-2.2,3.1-3,4.9
				c-2.1,4.5-3.2,9.3-3.7,14.2c-0.5,4.6-0.5,9.2-0.3,13.8c0,0.6,0,1.3,0,2c-0.4,0.2-0.7,0.4-1.1,0.6c-3.9,2.1-7.7,4.2-11.6,6.3
				c-1.6,0.9-3.2,1.9-4.8,2.9c-1.2,0.7-2.1,1.7-2.8,2.9c-0.3,0.4-0.5,0.9-0.6,1.4c-0.2,0.6,0.1,1.2,0.6,1.5c0.5,0.3,1.1,0.3,1.6,0
				c0.3-0.2,0.5-0.4,0.8-0.6c0.9-0.7,1.7-1.6,2.7-2.2c2.1-1.4,4.2-2.7,6.3-3.9c2.9-1.7,5.9-3.3,8.8-5c0.1-0.1,0.3-0.1,0.5-0.2
				c0,0.2,0.1,0.3,0.1,0.4c0.7,6.7,1.5,13.4,2.8,20.1c0.8,4.5,1.8,8.9,3.3,13.2c0.8,2.2,1.7,4.4,3,6.4c0.5,0.8,1.1,1.5,1.9,2
				c1.3,0.8,2.8,0.6,3.8-0.6c0.4-0.5,0.7-1,1-1.6c0.5-1,0.9-2,1.2-3.1c1.1-3.4,2.1-6.8,3.1-10.3c1-3.2,2-6.5,3.5-9.5
				c1.1-2.2,2.4-4.3,4.2-6c0.7-0.7,1.6-1.3,2.5-1.8c1.2-0.7,1.9-0.4,2.6,0.8c0.5,1,1,2.1,1.3,3.2c1.3,4.3,1.9,8.7,2.5,13.1
				c0.5,3.6,1.2,7.1,2.5,10.5c0.7,1.8,1.5,3.4,2.7,4.9c1.1,1.4,2.5,2.4,4.2,2.9c1.9,0.7,3.8,0.5,5.5-0.6c1.2-0.7,2.2-1.7,3.1-2.8
				c1.3-1.7,2.6-3.3,3.7-5.1c1.1-1.8,2.2-3.6,3.3-5.4c0.3,0.6,0.6,1.2,0.9,1.8c1.6,2.8,3.8,5.1,6.8,6.5c4,1.9,8.2,1,11-2.5
				c0.8-1,1.5-2.1,2.1-3.3c1.4-2.6,2.3-5.3,3.1-8.1c0.1-0.3,0.2-0.5,0.4-1c0.2,0.6,0.3,1.1,0.4,1.5c0.9,3.3,2.2,6.5,4.1,9.3
				c1,1.4,2.1,2.7,3.5,3.7c2.3,1.6,5,1.6,7.2-0.3c0.7-0.6,1.3-1.2,1.8-1.9c1.3-1.7,2.3-3.7,3.2-5.7c1.6-3.7,2.7-7.5,3.9-11.3
				c1.1-3.5,2.2-7.1,3.3-10.6c0.1-0.4,0.3-0.7,0.4-1.1c0.1,0,0.2,0,0.2,0c0,0.9,0.1,1.8,0.1,2.7c0.5,6.5,0.9,13,1.4,19.5
				c0.5,6.3,1,12.5,1.5,18.8c0.4,4.6,1,9.2,1.8,13.8c0.3,1.6,0.8,3.1,1.3,4.7c0.3,0.9,0.8,1.7,1.5,2.3c0.9,0.7,1.9,1,3,0.6
				c1.1-0.4,1.6-1.3,1.7-2.4c0-0.6,0.1-1.2,0.1-1.8c-0.1-3.5-0.3-7-0.2-10.5c0-5.8,0.1-11.6,0.5-17.3c0.3-4.4,0.6-8.8,1.2-13.1
				c0.7-4.4,1.6-8.8,3.1-13c0.9-2.5,2-4.9,3.5-7.2c1.1-1.7,2.6-2.7,4.5-3.2c0.8-0.2,1.5-0.1,2.2,0.4c0.9,0.5,1.5,1.3,1.9,2.3
				c1,3,1.5,6.1,1.7,9.2c0.2,3.4,0.3,6.9,0.1,10.3c-0.1,1.5-0.3,3-0.4,4.6c0,0.4,0,0.8-0.5,0.9c-2,0.6-3.7,1.9-5.5,2.9
				c-1.7,0.9-3,2.2-4.1,3.8c-1.8,2.6-1.8,5.4-0.3,8.1c1.1,2,3,3.1,5.3,3.1c2.3,0,4.6-0.5,6.6-1.7c1.6-1,3.2-2.1,4.5-3.4
				c3.6-3.8,6.3-8.2,7.8-13.4c0.6-2,1-4.1,1.2-6.2c0.1-0.5,0.2-1,0.6-1.4c1.5-1.5,2.7-3.2,3.8-5.1c1.2-2.1,2.2-4.3,3.1-6.6
				c0.1-0.2,0.2-0.4,0.3-0.6c0.1,0.3,0.2,0.6,0.2,0.8c0.1,1.8,0.1,3.5,0.2,5.3c0.2,5.2,0.5,10.3,0.8,15.5c0.3,4.3,0.6,8.6,0.9,12.8
				c0.3,4.1,0.7,8.2,1.2,12.2c0.5,4.6,1,9.2,1.6,13.8c0.2,1.9,0.5,3.7,1.2,5.5c0.2,0.6,0.6,1.2,1,1.7c0.7,0.8,1.6,1.1,2.6,0.8
				c1-0.3,1.6-1,1.8-2c0.1-0.5,0.2-1,0.2-1.4c-0.1-2.9-0.3-5.7-0.4-8.6c0-0.5-0.1-1,0-1.5c0.1-2.4,0.2-4.9,0.3-7.3
				c0.2-3.3,0.3-6.6,0.6-9.8c0.4-4.7,0.8-9.4,1.4-14.2c0.6-4.9,1.6-9.8,3.1-14.6c1.3-4.1,3-8,5.5-11.5c1-1.4,2.1-2.7,3.4-3.8
				c0.8-0.7,1.6-1.2,2.6-1.5c1-0.3,1.9-0.2,2.6,0.5c0.5,0.4,1,1,1.2,1.6c0.4,0.8,0.7,1.7,0.8,2.6c0.3,1.9,0.5,3.9,0.6,5.8
				c0.2,4.4-0.3,8.8-1.1,13.1c-0.2,0.9-0.5,1.4-1.3,1.9c-1.5,0.8-3.1,1.7-4.5,2.7c-1.2,0.8-2.3,1.7-3.4,2.7c-1.7,1.6-2.7,3.6-3,5.9
				c-0.5,3.6,1.5,7,5.7,7.1c3,0.1,5.6-0.8,7.9-2.7c2.8-2.3,4.9-5.2,6.5-8.4c2.5-4.8,3.8-9.9,4.1-15.3c0-0.5,0.1-0.9,0.3-1.3
				c1.6-2.4,3-5,4.2-7.6c0.1-0.2,0.2-0.4,0.3-0.6c0.1,0,0.1,0,0.2,0c0,0.2,0,0.4,0,0.7c-0.3,4.1-0.5,8.2-0.1,12.4
				c0.3,2.7,0.8,5.3,2.1,7.7c0.9,1.6,2.1,3,3.7,3.9c1.3,0.8,2.8,1,4.3,0.8c1.9-0.3,3.5-1.1,4.9-2.5c1-1,1.9-2.2,2.7-3.3
				c2.5-3.6,3.9-7.8,5.8-11.7c0.2-0.3,0.3-0.7,0.4-1.1c0.7-2.1,1.4-4.2,2.2-6.4c0.1-0.3,0.3-0.6,0.5-1.1c0.1,0.4,0.1,0.5,0.1,0.7
				c0.1,1.4,0.1,2.8,0.2,4.2c0.2,3.5,0.4,7.1,0.5,10.6c0.1,3.2,0.2,6.4,0.2,9.7c0.1,3.7,0.1,7.5,0.2,11.2c0,0.7-0.2,1.2-0.8,1.6
				c-1,0.8-2,1.6-3,2.5c-3,2.8-5.5,6.1-7.3,9.8c-2.5,5.4-2.6,10.8-0.2,16.2c0.5,1.2,1.3,2.3,2.2,3.3c1.9,2,4.3,2.9,6.9,3.3
				c0.9,0.1,1.9,0.2,2.8,0.1c2.5-0.3,4.4-1.7,5.9-3.7c1.5-2,2.4-4.2,3-6.6c1.2-4.7,1.7-9.5,2-14.4c0.3-4.6,0.4-9.2,0.6-13.7
				c0-0.6,0.2-1,0.8-1.3c2.9-1.8,5.7-3.7,8.6-5.6c4-2.7,7.4-5.9,10.5-9.6c1.3-1.6,2.7-3.3,3.7-5.2c0.4-0.7,0.7-1.5,0.9-2.3
				C355.9,299.1,355.5,298.4,354.8,298z M90.4,247.1c0.2-1.2,0.7-2.3,1.2-3.4c0.2-0.6,0.6-1.1,1.4-1.4c1.4,1.2,2.1,2.8,2.4,4.6
				c0.6,2.8,0.2,5.6-0.7,8.3c-1.3,4-3.4,7.6-6,10.8c-0.1,0.1-0.1,0.1-0.3,0.2c0-0.2-0.1-0.4-0.1-0.6
				C88.5,259.4,89.1,253.2,90.4,247.1z M159.2,297.1c-0.3,3.9-1.1,7.6-2.7,11.1c-0.3,0.7-0.7,1.4-1.1,2.1c-0.2,0.3-0.4,0.7-0.7,0.9
				c-1.1,1.2-1.8,1.1-2.8-0.1c-1.2-1.6-1.8-3.5-2.2-5.4c-0.5-2.2-0.8-4.5-0.9-6.8c0-0.8-0.1-1.6-0.1-2.2c0.2-3.2,0.3-6.3,1.2-9.3
				c0.1-0.5,0.3-1,0.5-1.5c0.9-1.8,2.4-2.4,4.2-1.4c0.8,0.4,1.5,0.9,2.1,1.6c1,1.2,1.8,2.6,2.7,3.9c0.1,0.2,0.2,0.6,0.2,0.8
				C159.4,293,159.3,295,159.2,297.1z M216.3,320c-0.4,0.6-1,1-1.5,1.5c-0.3,0.2-0.7,0.4-1.1,0.5c-1.4,0.2-2.2-0.3-1.9-1.8
				c0.2-1.4,0.8-2.6,1.8-3.6c1.4-1.4,3.1-2.1,5.1-2.6C218.1,316.2,217.5,318.2,216.3,320z M269.5,318.4c-0.4,0.5-0.9,0.9-1.5,1.3
				c-0.5,0.3-1,0.7-1.6,0.4c-0.6-0.3-0.5-1-0.5-1.6c0-1,0.3-1.9,0.8-2.7c0.4-0.7,0.9-1.3,1.4-1.9c1.4-1.6,3.2-2.7,5.1-3.8
				C272.5,313.1,271.6,316.1,269.5,318.4z M318.8,337.3c-0.3,3.4-0.7,6.8-1.1,10.2c-0.2,1.4-0.6,2.9-1,4.3c-0.2,0.8-0.7,1.5-1.2,2.2
				c-0.7,0.9-1.4,0.9-2.3,0.2c-1-0.9-1.7-2-2-3.3c-0.7-2.5-0.6-5,0.1-7.5c1-3.5,2.9-6.5,5.2-9.3c0.8-0.9,1.7-1.8,2.5-2.7
				c0.1,0,0.2,0.1,0.3,0.1C319,333.4,319,335.4,318.8,337.3z"/>
			<path class="st60" d="M270.2,202.7c-0.4-0.3-0.7-0.6-1-0.8c-7.9-6.2-10-18.4-2.3-26.6c2.2-2.3,4.8-4.1,8.2-4.7
				c2.2-0.4,4.5-0.3,6.5,0.7c4.2,2,7.1,5,8.3,9.2c0.3,1.2,0.5,2.4,0.1,3.7c-0.1,0.3-0.2,0.7-0.4,1c-0.2,0.2-0.5,0.4-0.8,0.3
				c-0.2,0-0.5-0.3-0.6-0.5c-0.1-0.2-0.1-0.5-0.1-0.8c-0.4-2.8-1.9-5.1-4.7-6.6c-2.2-1.3-4-0.9-5.6,1c-1.5,1.8-2,3.9-2.3,6
				c-0.4,2.7,0,5.5,0.7,8.1c0.4,1.4,1.1,2.8,2,4c1.3,1.7,2.7,3.3,4.5,4.6c0.7,0.6,1.4,1.1,2.1,1.7c0.3,0.2,0.5,0.5,0.7,0.7
				c0.7,0.9,1,1.9,0.4,2.9c-0.6,1-1.6,1.6-2.8,1.6c-0.8,0-1.7-0.1-2.5-0.3c-0.9-0.2-1.8-0.5-2.7-0.7c-1.5-0.4-2.1-0.1-2.9,1.1
				c-0.8,1.2-1.1,2.6-1.2,3.9c-1.3,10.3,0.9,20.1,6,29.3c0.9,1.6,1.9,3.1,3.3,4.4c0.9,0.8,1.9,1.5,3.1,2c1.2,0.4,2.4,0.4,3.6-0.2
				c1.6-0.8,2.7-1.9,3.6-3.3c1.3-2,1.6-4.2,1.8-6.5c0.3-3.3-0.2-6.5-0.5-9.7c0-0.1-0.1-0.2-0.1-0.5c-0.5,0-0.9,0.1-1.4,0.1
				c-1.5,0.2-2.9,0.6-4.2,1.4c-1,0.6-1.7,1.3-2.1,2.3c-0.2,0.4-0.3,0.7-0.5,1.1c-0.7,1.1-1.8,1.3-2.9,0.5c-1.1-0.8-1.5-1.8-1.6-3
				c-0.1-1.8,0.5-3.4,1.7-4.9c1.2-1.5,2.7-2.6,4.6-3.4c2.4-1,5-1.5,7.6-1.7c2.1-0.2,4.3-0.3,6.4-0.6c2.1-0.2,4-1,5.8-1.9
				c3-1.5,4.6-3.8,5.5-6.7c0.5-1.7,0.2-3.4-0.3-5c-0.4-1.2-1-2.3-1.5-3.4c-0.3-0.8-0.7-1.6-0.8-2.4c-0.3-1.8,1.4-3.2,3.4-2.9
				c1.2,0.2,2.1,0.8,2.8,1.6c1.6,1.7,2.4,3.6,2.8,5.7c0.5,2.9,0.2,5.7-0.8,8.5c-1.3,3.6-3.4,6.8-6.4,9.5c-2.6,2.3-5.6,3.9-9.2,4.5
				c-1.6,0.3-3.3,0.3-4.9,0.5c-0.4,0-0.7,0.1-1.2,0.1c0.2,0.9,0.3,1.7,0.5,2.6c0.7,3.5,1.2,7.1,1,10.7c-0.2,3-0.8,5.9-2.2,8.7
				c-1.7,3.6-4.4,6.3-8.7,7.5c-2.1,0.6-4.2,0.7-6.4,0.4c-3.3-0.6-6.3-1.7-8.8-3.7c-1.3-1-2.6-2.1-3.8-3.2c-5.6-5.5-9-11.9-10.4-19.1
				c-0.8-3.9-1.1-7.9-0.9-11.8c0.2-2.9,0.8-5.7,2-8.4c1.8-4.1,4.9-7.1,9.8-8.4C269.7,202.9,269.8,202.9,270.2,202.7z"/>
		</g>
		<g>
			<g>
				<g>
					<path class="st60" d="M182.1,174.4c-0.2,0.3-1,0.5-1.3,0.4c-0.9-0.4-0.3-2.3-1.9-1c-0.8,0.5-2.3,3.5-2,4.5
						c0.3,1,1.4-0.1,1.9,0.6c0.8,1-1.1,1.2-2.2,1.2c-1,9.6,1.4,15-1.1,15.7c-0.6,0.1-2.4,0.5-2.9,0c-0.4-0.4-0.3-0.4-0.3-7.1
						c0-1.5,0.1-3,0.1-4.5c0-0.5,0.5-3.7,0.3-4c-0.3-0.4-2.7,0.4-2.6-0.7c0.1-0.9,1.7-0.8,2.7-0.6c0.4-3.5,0.8-6.7,4.5-7.3
						C181.1,170.7,182.9,173.3,182.1,174.4z"/>
					<path class="st60" d="M190.7,195.1c-9.5-0.3-7.2-14.5-0.3-16.8c3-1,6.3,0.2,8.3,2.8c0-1.6,0.1-3.5,1.5-3.7
						c1.5-0.1,3.7,0.3,3.6,0.9c-0.8,3.8-0.8,7.7-0.8,11.6c0.1,3.6,0.5,5.2-0.7,5.7c-0.8,0.3-3.2,0.3-3.6-0.3
						c-0.2-0.4-0.2-1.5-0.2-4.1C196.8,193.8,193.8,195.3,190.7,195.1z M198.2,188.2c2.6-8.2-9.4-12.5-11.7-2.6
						c-0.6,2.6-0.4,6.4,2.3,7.4C192.8,194.3,196.8,192.6,198.2,188.2z"/>
					<path class="st60" d="M210.8,176.1c0,0.1-0.1,18.9-0.1,19c-0.6,1.2-3.4,1-4.1,0.1c-0.7-0.3-0.2-12.8-0.2-15
						c0.1-9-0.2-8.9,0.9-9.3c1-0.4,3.3-0.5,3.5,0.9C211.1,173,210.8,174.7,210.8,176.1z"/>
					<path class="st60" d="M217.8,176.1c0,0.1-0.1,18.9-0.1,19c-0.6,1.2-3.4,1-4.1,0.1c-0.7-0.3-0.2-12.8-0.2-15
						c0.1-9-0.2-8.9,0.9-9.3c1-0.4,3.3-0.5,3.5,0.9C218.1,173,217.9,174.7,217.8,176.1z"/>
				</g>
				<g>
					<path class="st60" d="M230.3,179c0.2-0.9,0.8-1,1.6-1.1c3.8-0.4,2.7,1.2,2.7,4.6c-0.1,13.5,0.1,12.7-0.7,13.1
						c-0.8,0.4-2.9,0.4-3.6-0.3C230.1,195.2,230.3,179.3,230.3,179z M232.6,173.5c2.4,0.1,1.7,3.2-0.2,3.1
						C229.7,176.5,230.8,173.2,232.6,173.5z"/>
					<path class="st60" d="M252.4,192.3c0,0.7,0.2,1.8-0.1,2.5c-0.3,0.9-1.1,0.9-1.6,0.6c-0.6-0.2-0.3-1.9-0.2-2.4
						c0.2-4,0.3-11-2.7-13.3c-1-0.8-2.3-0.9-3.5-0.4c-3,1.1-2.4,2.3-2.5,4.2c-0.2,3.6-0.6,6.8-0.2,10.5c0.1,0.5,0.2,0.7,0,1.1
						c-0.5,0.9-3.1,1.1-3.9,0.7c-0.8-0.3-0.5-1.3-0.5-2.1c0.1-17-0.2-16.3,0.8-16.2c1.5,0,4-1.5,4,1.4c2.4-1.6,5.7-2.1,7.8,0.2
						C252.6,182.1,252.6,188,252.4,192.3z"/>
				</g>
			</g>
			<g>
				<path class="st60" d="M309.2,252.1c-0.3-12.3-0.3-11.7,0-11.9c0.6-0.3,1.4-0.3,2.1-0.3c0.4,0,2.8-0.3,2.8,0.3
					c-0.1,3.7-0.2,7.4-0.2,11.1c6.5-11,18.4,5.5,11.9,12c-3.1,3.1-9.1,2.5-11.4,0.8c-0.3,1.5-1.7,1.2-2.5,1.1
					c-0.8,0-1.7,0.1-2.3-0.4C309.3,264.6,309.2,253.4,309.2,252.1z M316.1,250.7c-2.3,2.9-2.8,9.7,0.3,12.3c1.5,1.3,6.5,1.7,8.2-0.8
					C327.9,257.5,320.7,245.3,316.1,250.7z"/>
				<path class="st60" d="M330,260.6c-3-8.6,8.1-16.5,14.3-10.6c1.1,1,2.8,3.7,2.5,5.4c-0.3,1.6-3.2,1.3-4.4,1.5
					c-1.8,0.3-7.8,1.4-7.8,1.4c-0.1,7.3,6.2,6.2,8.4,3.4c0.5-0.6,1-4,2.4-2.7c1.6,1.5-2.1,4.7-2.5,4.9
					C339.6,266.2,332.1,266.5,330,260.6z M344.8,254.9c-1.3-6-8.2-8.7-10,1.7C338.1,256.1,341.4,255.4,344.8,254.9z"/>
			</g>
		</g>
	</g>
</g>
</svg>
