<?xml version="1.0" encoding="utf-8"?>
<!-- Generator: Adobe Illustrator 24.3.0, SVG Export Plug-In . SVG Version: 6.00 Build 0)  -->
<svg version="1.1" id="Calque_1" xmlns="http://www.w3.org/2000/svg" xmlns:xlink="http://www.w3.org/1999/xlink" x="0px" y="0px"
	 viewBox="0 0 432 432" style="enable-background:new 0 0 432 432;" xml:space="preserve">
<style type="text/css">
	.st0{fill:#998675;}
	.st1{fill:#8B9B75;}
	.st2{fill:#C79C52;}
	.st3{fill:#B2C191;}
	.st4{fill:#CCCCCC;}
	.st5{fill:#736357;}
	.st6{fill:#B7535A;}
	.st7{fill:#F9A332;}
	.st8{fill:#C7B299;}
	.st9{fill:#F9C132;}
	.st10{fill:#E6E6E6;}
	.st11{fill:#5D6B82;}
	.st12{fill:#7F9979;}
	.st13{fill:#D8A05D;}
	.st14{fill:#1A1A1A;}
	.st15{fill:#747C67;}
</style>
<g>
	<g>
		<g>
			<path d="M158.99,220.76c0.23-6.74,0.62-13.01,1.77-19.2c0.45-2.44,0.99-4.87,1.92-7.18c0.35-0.87,0.78-1.71,1.2-2.55
				c0.82-1.66,2.27-2.55,3.98-2.97c2.06-0.5,4.13-0.43,6.17,0.18c0.43,0.13,0.85,0.33,1.27,0.52c1.13,0.51,1.93,1.34,2.27,2.53
				c0.37,1.31,0.66,2.65,1,3.98c0.1,0.41,0.18,0.84,0.34,1.23c0.43,1.06,1.32,1.19,2.03,0.27c0.29-0.38,0.52-0.82,0.71-1.26
				c0.43-1,0.85-2,1.21-3.02c0.94-2.72,2.88-4.01,5.7-4.07c0.88-0.02,1.77-0.03,2.65,0.05c2.01,0.2,3.48,1.33,4.67,2.88
				c1.03,1.35,1.71,2.89,2.26,4.49c0.99,2.9,1.59,5.89,2.03,8.92c0.46,3.13,0.9,6.27,1.28,9.41c0.38,3.18,0.55,6.37,0.41,9.57
				c-0.06,1.29-0.24,2.56-0.67,3.78c-0.63,1.79-1.86,2.92-3.72,3.3c-2.2,0.45-4.42,0.54-6.63,0.07c-0.47-0.1-0.93-0.26-1.37-0.47
				c-0.83-0.39-1.34-1.06-1.46-1.97c-0.09-0.65-0.13-1.31-0.15-1.96c-0.17-4.45-0.32-8.9-0.51-13.35c-0.02-0.59-0.19-1.18-0.36-1.75
				c-0.12-0.4-0.4-0.71-0.86-0.71c-0.46-0.01-0.76,0.28-0.91,0.67c-0.19,0.5-0.36,1.03-0.45,1.55c-0.3,1.92-0.56,3.84-0.85,5.76
				c-0.04,0.28-0.11,0.56-0.17,0.84c-0.26,1.17-1,1.96-2.12,2.24c-0.96,0.24-1.97,0.37-2.95,0.36c-1.22-0.01-2.11-0.69-2.51-1.86
				c-0.37-1.08-0.64-2.19-0.98-3.28c-0.44-1.39-0.88-2.77-1.36-4.14c-0.15-0.42-0.37-0.84-0.64-1.2c-0.49-0.65-1.22-0.57-1.55,0.19
				c-0.17,0.41-0.26,0.88-0.26,1.33c0.01,2.06,0.03,4.11,0.12,6.16c0.11,2.6,0.06,5.19-0.25,7.78c-0.14,1.16-0.56,2.21-1.3,3.12
				c-0.59,0.72-1.32,1.16-2.26,1.24c-1.49,0.13-2.97,0.06-4.43-0.27c-2.48-0.57-3.67-1.86-3.99-4.4c-0.16-1.27-0.21-2.56-0.25-3.84
				C158.95,222.59,158.99,221.44,158.99,220.76z"/>
			<path d="M242.67,200.23c0.06-1.2,0.11-2.99,0.24-4.78c0.1-1.34,0.58-2.57,1.36-3.67c0.94-1.33,2.22-2.21,3.8-2.52
				c1.69-0.34,3.41-0.63,5.13-0.7c4.14-0.18,8.28-0.02,12.38,0.68c1.64,0.28,3.27,0.68,4.87,1.17c4.58,1.39,6.93,4.69,7.7,9.26
				c0.37,2.19,0.37,4.38-0.3,6.54c-0.92,2.97-2.73,5.23-5.35,6.85c-0.77,0.48-1.59,0.88-2.42,1.25c-1.27,0.56-1.09,1.79-0.37,2.42
				c0.37,0.33,0.78,0.64,1.23,0.83c1.1,0.48,2.24,0.87,3.36,1.32c1.17,0.47,2.36,0.9,3.49,1.44c0.95,0.46,1.44,1.3,1.34,2.37
				c-0.05,0.61-0.18,1.23-0.41,1.79c-0.83,2.11-1.88,4.13-3.27,5.92c-1.39,1.81-3.54,2.67-5.89,1.09c-2.43-1.63-4.58-3.57-6.43-5.84
				c-0.69-0.84-1.33-1.72-1.99-2.58c-0.16-0.21-0.68-1.19-1.17-1.09c-0.43-0.02-0.45,0.51-0.47,0.77c-0.08,1.17-0.11,2.34-0.11,3.51
				c0,0.73,0.13,1.47,0.11,2.2c-0.04,1.88-0.79,2.82-2.62,3.22c-2.2,0.48-4.43,0.56-6.65,0.19c-1.6-0.27-2.84-1.12-3.56-2.59
				c-0.4-0.81-0.7-1.68-0.94-2.55c-0.76-2.81-1.13-5.69-1.58-8.56C243.26,212.43,243.11,206.62,242.67,200.23z M257.59,203.12
				c0.05,0.44,0.07,0.88,0.15,1.31c0.28,1.54,1.14,2.15,2.68,1.92c0.12-0.02,0.23-0.02,0.35-0.04c1.16-0.24,2.27-0.59,3.15-1.44
				c0.97-0.93,1.14-2.05,0.42-3.18c-0.9-1.42-2.25-2-3.89-1.93c-1.67,0.07-2.56,0.91-2.77,2.58
				C257.64,202.6,257.62,202.86,257.59,203.12z"/>
			<path d="M281.59,203.32c0.08-1.9,0.14-3.93,0.27-5.96c0.04-0.71,0.21-1.42,0.4-2.1c0.65-2.29,2.07-3.9,4.28-4.83
				c2.24-0.95,4.6-1.36,7-1.55c4.62-0.36,9.21-0.08,13.77,0.69c1.44,0.24,2.86,0.56,4.2,1.18c2,0.92,3.11,2.47,3.36,4.63
				c0.25,2.11,0.37,4.22-0.03,6.33c-0.13,0.67-0.34,1.33-0.61,1.95c-0.41,0.96-1.18,1.59-2.22,1.69c-1.16,0.12-2.34,0.17-3.5,0.11
				c-2-0.11-3.99-0.36-5.99-0.51c-0.88-0.07-1.78-0.1-2.66-0.03c-1.17,0.1-1.75,0.95-1.56,2.1c0.12,0.71,0.48,1.08,1.2,1.1
				c0.71,0.02,1.43-0.06,2.14-0.09c0.86-0.04,1.71-0.12,2.57-0.13c0.85-0.01,1.38,0.48,1.65,1.26c0.44,1.3,0.55,2.63,0.36,3.98
				c-0.17,1.15-0.75,1.76-1.9,1.87c-1.22,0.12-2.45,0.09-3.68,0.14c-0.34,0.01-0.69,0.02-1.01,0.11c-0.48,0.14-0.62,0.42-0.59,0.92
				c0.06,0.77,0.65,1.36,1.51,1.35c0.83-0.01,1.65-0.13,2.48-0.2c2.25-0.2,4.5-0.43,6.75-0.58c0.82-0.06,1.66,0.02,2.48,0.11
				c2.2,0.25,3.59,1.58,3.98,3.74c0.33,1.89,0.25,3.77-0.22,5.62c-0.49,1.92-1.62,3.3-3.49,4.07c-1.58,0.66-3.23,0.98-4.91,1.16
				c-2.47,0.27-4.95,0.51-7.44,0.61c-3.18,0.12-6.35-0.08-9.47-0.75c-0.56-0.12-1.09-0.33-1.63-0.52c-1.47-0.53-2.53-1.52-3.28-2.88
				c-0.86-1.57-1.42-3.25-1.83-4.98c-0.86-3.65-1.44-7.35-1.77-11.09C281.97,209.05,281.8,206.25,281.59,203.32z"/>
			<path d="M203.56,209.62c0.12-5.28,1.64-10.47,5.34-14.88c2.73-3.26,6.16-5.39,10.41-6.04c3.58-0.54,6.95,0.15,10.11,1.9
				c2.7,1.5,4.86,3.58,6.6,6.12c5.27,7.68,5.63,18.59,0.87,26.59c-0.93,1.56-2.04,2.98-3.34,4.24c-6.07,5.88-14.83,6.35-21.48,1.12
				c-3.97-3.12-6.38-7.27-7.67-12.1C203.83,214.45,203.55,212.12,203.56,209.62z M218.37,209.06c0,2.01,1.78,3.78,3.81,3.8
				c1.86,0.02,3.36-1.52,3.34-3.42c-0.02-2.03-1.78-3.78-3.82-3.78C219.8,205.65,218.37,207.12,218.37,209.06z"/>
			<path d="M131.94,232.11c-2.92,0-5.59-0.16-8.21-0.71c-0.77-0.16-1.52-0.39-2.26-0.65c-2.96-1.05-4.63-3.2-5.05-6.27
				c-0.28-2.02-0.12-4.04,0.62-5.98c1.14-3.01,3.58-4.01,6.49-2.65c0.68,0.32,1.31,0.76,1.97,1.13c1.32,0.75,2.61,1.55,3.97,2.2
				c1.38,0.66,2.85,1.03,4.41,0.78c1.27-0.21,1.8-1.12,1.19-2.26c-0.24-0.45-0.64-0.85-1.04-1.18c-0.81-0.68-1.81-1.01-2.81-1.29
				c-1.68-0.47-3.37-0.88-5.04-1.36c-2.34-0.68-4.53-1.68-6.38-3.31c-2.63-2.33-4.14-5.25-4.24-8.77c-0.12-4.26,1.66-7.61,5.22-9.97
				c2.05-1.36,4.35-2.08,6.74-2.51c4.1-0.74,8.21-0.84,12.31-0.04c0.84,0.16,1.68,0.46,2.47,0.81c1.33,0.58,2.25,1.63,2.63,3.02
				c0.93,3.44,0.63,6.74-1.37,9.77c-0.32,0.49-0.73,0.94-1.16,1.32c-1.08,0.97-2.34,1.2-3.67,0.59c-0.71-0.32-1.38-0.75-2.06-1.13
				c-1.03-0.57-2.04-1.18-3.09-1.71c-0.99-0.5-2.06-0.75-3.16-0.81c-0.49-0.03-1.02,0.02-1.49,0.17c-0.95,0.3-1.12,1.15-0.38,1.81
				c0.39,0.34,0.87,0.63,1.35,0.83c1.27,0.53,2.55,1.04,3.85,1.47c1.9,0.64,3.69,1.51,5.41,2.52c0.96,0.57,1.88,1.24,2.73,1.96
				c2.67,2.26,3.94,5.26,4.47,8.63c0.4,2.54-0.04,4.99-1.02,7.33c-1.12,2.69-3.07,4.5-5.91,5.34
				C136.9,231.95,134.31,232.18,131.94,232.11z"/>
			<path d="M149.97,199.36c0.08-0.68-0.12-1.41-0.58-2.08c-0.23-0.33-0.44-0.67-0.63-1.03c-0.94-1.74-0.72-3.84,0.55-5.34
				c1.36-1.6,3.89-2.29,5.69-1.53c1.83,0.77,2.62,2.3,2.84,4.16c0.08,0.7-0.01,1.45-0.14,2.15c-0.3,1.65-0.99,3.16-1.9,4.57
				c-0.15,0.22-0.32,0.43-0.49,0.64c-1.09,1.36-2.43,1.61-4.18,0.87c-0.83-0.35-1.26-0.97-1.18-1.89
				C149.95,199.75,149.96,199.62,149.97,199.36z"/>
		</g>
		<g>
			<path d="M239.44,174.18c-1.38,0-2.36-0.56-3.01-1.67c-0.24-0.42-0.42-0.88-0.6-1.33c-5.61-14.42-11.21-28.83-16.81-43.25
				c-0.14-0.36-0.28-0.71-0.38-1.08c-0.25-0.91-0.04-1.44,0.83-1.74c1.25-0.43,2.52-0.8,3.8-1.1c1.03-0.24,1.35-0.03,1.75,0.98
				c1.04,2.62,2.05,5.24,3.07,7.87c3.48,8.94,6.95,17.88,10.43,26.83c0.1,0.26,0.18,0.53,0.32,0.77c0.28,0.46,0.7,0.45,0.97-0.02
				c0.14-0.24,0.22-0.51,0.32-0.77c4.4-11.31,8.79-22.61,13.19-33.92c0.1-0.26,0.19-0.52,0.3-0.78c0.43-1.03,0.89-1.28,1.96-0.91
				c1.24,0.44,2.47,0.95,3.67,1.48c0.76,0.33,0.92,0.72,0.66,1.51c-0.35,1.05-0.76,2.09-1.16,3.13
				c-5.29,13.61-10.58,27.22-15.87,40.82c-0.19,0.49-0.37,0.98-0.62,1.43C241.61,173.54,240.65,174.14,239.44,174.18z"/>
			<path d="M219.13,158.01c-0.21,5.62-0.38,10.19-0.57,14.77c-0.05,1.19-0.17,1.33-1.32,1.36c-1.55,0.03-3.1,0.01-4.65-0.02
				c-0.8-0.02-0.93-0.14-0.92-0.99c0.01-1.26,0.07-2.52,0.11-3.79c0.13-4.22,0.25-8.44,0.38-12.65c0.01-0.25,0.01-0.51-0.01-0.76
				c-0.05-0.9-0.29-1.15-1.17-1.19c-0.18-0.01-0.36,0-0.54,0c-6.31-0.01-12.63-0.01-18.94-0.02c-0.29,0-0.6-0.06-0.86,0.04
				c-0.23,0.09-0.46,0.31-0.56,0.54c-0.1,0.21-0.06,0.49-0.05,0.75c0.12,4.33,0.23,8.65,0.35,12.98c0.04,1.3,0.11,2.6,0.14,3.89
				c0.02,0.96-0.1,1.08-1.04,1.08c-1.55,0-3.1-0.02-4.65-0.08c-1.05-0.04-1.17-0.17-1.22-1.22c-0.11-2.63-0.19-5.26-0.31-7.89
				c-0.28-6.31-0.3-12.62,0.05-18.93c0.19-3.5,0.6-6.98,1.69-10.33c2.08-6.42,6.45-10.23,13.13-11.38c2.62-0.45,5.2-0.32,7.72,0.39
				c5.68,1.59,9.42,5.27,11.22,10.87c1.09,3.38,1.56,6.9,1.71,10.43C219.01,150.25,219.05,154.65,219.13,158.01z M201.19,147.81
				C201.19,147.81,201.19,147.81,201.19,147.81c3.1,0.01,6.21,0.01,9.31,0.01c1.47,0,1.51-0.03,1.42-1.54
				c-0.05-0.94-0.13-1.87-0.24-2.8c-0.25-2.15-0.56-4.3-1.29-6.35c-1.05-2.99-3.11-4.99-6.17-5.87c-1.4-0.4-2.84-0.46-4.29-0.35
				c-4.1,0.33-7.19,2.83-8.33,6.77c-0.81,2.79-1.17,5.65-1.34,8.53c-0.08,1.36,0.17,1.59,1.51,1.6
				C194.91,147.81,198.05,147.81,201.19,147.81z"/>
			<path d="M177.9,127.55c0-0.78,0.01-1.57-0.01-2.35c-0.03-1-0.1-1.11-1.08-1.14c-1.3-0.04-2.61-0.03-3.91-0.02
				c-2.07,0-2.14,0.08-2.13,2.14c0.04,6.15,0.08,12.3,0.11,18.46c0.01,1.43-0.19,1.62-1.61,1.62c-5.82,0-11.63-0.01-17.45-0.02
				c-0.22,0-0.45,0-0.67-0.02c-0.39-0.03-0.62-0.23-0.62-0.64c0-0.3-0.01-0.6-0.01-0.89c0-6.08-0.01-12.16-0.01-18.23
				c0-0.37,0.01-0.75-0.02-1.12c-0.09-0.97-0.27-1.18-1.23-1.21c-1.23-0.04-2.46-0.03-3.69-0.03c-2.19,0-2.2,0-2.2,2.17
				c0.01,15.18,0.02,30.35,0.03,45.53c0,0.34-0.01,0.67,0.02,1.01c0.08,1.04,0.26,1.23,1.3,1.24c1.23,0.01,2.46-0.01,3.69-0.02
				c1.99-0.01,2.13-0.15,2.13-2.2c0-5.59,0-11.19-0.01-16.78c0-0.3,0-0.6,0.01-0.89c0.01-0.51,0.29-0.74,0.78-0.75
				c0.26,0,0.52-0.01,0.78-0.01c5.78,0.01,11.56,0.01,17.34,0.02c0.19,0,0.37-0.01,0.56,0c0.77,0.04,0.87,0.13,0.92,0.93
				c0.02,0.3,0.01,0.6,0.01,0.89c0.02,5.37,0.04,10.74,0.06,16.11c0,0.45,0,0.9,0.05,1.34c0.09,1.02,0.18,1.14,1.23,1.17
				c1.3,0.04,2.61,0.01,3.91-0.01c1.83-0.02,1.95-0.15,1.95-1.99C178.12,164.17,177.91,134.64,177.9,127.55z"/>
			<path d="M287.46,123.97c-0.2-0.01-0.41-0.01-0.61-0.01c-6.17,0-12.34,0-18.51,0.01c-0.54,0-1.09,0.02-1.62,0.1
				c-1.69,0.26-2.81,1.48-2.94,3.15c-0.02,0.3-0.02,0.61-0.03,0.91c-0.04,13.83-0.09,27.66-0.13,41.49c0,0.51,0.03,1.02,0.1,1.52
				c0.22,1.52,1.18,2.51,2.68,2.8c0.43,0.08,0.87,0.11,1.31,0.11c6.2,0.02,12.41,0.04,18.61,0.06c0.28,0,0.56,0.01,0.83-0.02
				c0.47-0.05,0.82-0.46,0.83-0.93c0.02-0.7,0.02-1.4-0.01-2.1c-0.04-0.81-0.09-1.62-0.21-2.42c-0.11-0.69-0.41-0.91-1.1-0.98
				c-0.3-0.03-0.61-0.02-0.91-0.02c-4.71-0.02-9.42-0.03-14.13-0.05c-0.27,0-0.54-0.01-0.81-0.01c-0.36-0.01-0.57-0.2-0.63-0.54
				c-0.04-0.23-0.06-0.47-0.06-0.71c0.01-4.03,0.02-8.07,0.04-12.1c0.01-1.13,0.16-1.27,1.31-1.26c3.39,0.04,6.78,0.08,10.17,0.12
				c0.34,0,0.68,0,1.02-0.02c0.47-0.02,0.77-0.27,0.78-0.76c0.02-1.53,0.04-3.05,0-4.58c-0.02-0.59-0.48-1.06-1.06-1.11
				c-0.3-0.03-0.6-0.02-0.9-0.02c-3.42-0.04-6.85-0.08-10.27-0.13c-0.94-0.01-0.98-0.06-0.99-0.98c-0.01-0.68,0-1.36,0.01-2.03
				c0.01-3.97,0.02-7.93,0.03-11.9c0-1,0.1-1.09,1.11-1.11c0.2,0,0.41,0,0.61,0c4.95,0,9.9-0.01,14.85-0.01c0.18,0,0.37,0,0.56,0
				c0.63,0,1.19-0.48,1.21-1.11c0,0,0-0.01,0-0.01c0.03-1.39,0.05-2.78,0.04-4.17C288.62,124.27,288.35,124.03,287.46,123.97z"/>
		</g>
		<path d="M275.06,77.98c-1.48-0.2-2.83-0.32-4.16-0.59c-1.63-0.33-3.02-1.14-4.13-2.39c-2.61-2.94-1.49-7.34,2.22-8.67
			c2.9-1.04,5.95-0.22,7.7,2.3c0.98,1.41,1.63,3.06,2.52,4.77c0.84-0.08,1.92-0.28,2.99-0.27c1.7,0.01,3.43-0.04,5.08,0.29
			c3.93,0.77,6.17,3.37,6.43,7.37c0.12,1.87,0.02,3.76-0.05,5.63c-0.13,3.49-0.35,6.99-0.44,10.48c-0.06,2.43,0.52,4.77,1.35,7.05
			c0.2,0.56,0.53,1.07,0.91,1.84c0.65-0.86,1.26-1.49,1.68-2.23c1.52-2.7,3.11-5.38,4.44-8.18c1.35-2.84,2.43-5.8,3.62-8.71
			c0.13-0.32,0.2-0.65,0.33-1.09c-0.92-0.55-1.81-1.09-2.71-1.62c-2.22-1.32-4.45-2.64-6.25-4.52c-0.81-0.85-1.56-1.78-2.15-2.79
			c-0.91-1.54-0.98-3.24-0.44-4.95c1.12-3.58,5.09-6.67,8.82-6.88c4.55-0.26,8.37,2.85,9.29,7.57c0.41,2.08,0.39,4.17,0.15,6.27
			c-0.06,0.56-0.12,1.12-0.18,1.71c1.05,0.66,2.04,1.29,3.13,1.97c0.25-0.41,0.48-0.77,0.7-1.14c1.11-1.85,2.43-3.54,4.07-4.95
			c1.8-1.55,3.85-2.57,6.3-2.52c2.64,0.05,4.75,1.49,5.6,3.98c0.39,1.14,0.59,2.38,0.69,3.58c0.1,1.23-0.74,2.22-1.79,2.4
			c-1.1,0.19-2.19-0.54-2.57-1.77c-0.24-0.79-0.36-1.63-0.64-2.41c-0.84-2.36-1.91-2.65-3.88-1.09c-2.18,1.74-3.54,4.06-4.78,6.59
			c0.44,0.4,0.86,0.77,1.27,1.14c2.22,2,4.29,4.12,5.94,6.63c1.59,2.41,2.62,5.01,2.96,7.9c0.77,6.6-3.82,12.35-10.41,12.85
			c-3.96,0.3-6.49-1.51-7.61-5.04c-0.81-2.55-0.8-5.17-0.65-7.8c0.2-3.46,0.73-6.86,1.67-10.28c-0.73-0.63-1.45-1.25-2.3-1.98
			c-0.22,0.52-0.39,0.89-0.54,1.28c-1.71,4.54-3.53,9.04-5.85,13.32c-0.91,1.68-1.95,3.32-3.12,4.84c-1.47,1.92-3.44,3.21-5.85,3.74
			c-2.4,0.53-4.51-0.04-6.33-1.67c-1.43-1.28-2.42-2.86-3-4.69c-0.83-2.61-1.22-5.3-1.24-8.01c-0.02-3.06,0.22-6.11,0.33-9.17
			c0.08-2.05,0.26-4.11,0.16-6.15c-0.13-2.67-1.92-4.09-4.69-3.93c-0.08,1.25-0.13,2.51-0.26,3.76c-0.8,7.35-2.63,14.43-5.43,21.27
			c-0.81,1.99-1.86,3.86-3.26,5.51c-3.86,4.57-9.57,5.45-14.6,2.22c-2.58-1.66-4.66-3.8-6.16-6.51c-2.05-3.72-3.28-7.7-3.93-11.88
			c-0.03-0.21-0.08-0.42-0.13-0.68c-0.4-0.09-0.78-0.2-1.16-0.26c-0.34-0.06-0.68-0.07-1.09-0.11c-0.12,0.47-0.23,0.88-0.34,1.3
			c-1.47,5.52-4.91,9.07-10.52,10.36c-2.62,0.6-5.22,0.37-7.67-0.83c-0.2-0.09-0.4-0.17-0.6-0.25c-0.03-0.01-0.08,0.03-0.18,0.07
			c0,0.92-0.03,1.86,0.01,2.8c0.1,2.4,0.27,4.8,0.34,7.21c0.06,1.86-1.1,3.26-2.9,3.7c-1.42,0.34-2.49-0.04-3.29-1.28
			c-1.3-2.04-2.26-4.24-2.94-6.56c-0.46-1.58-0.82-3.19-1.27-4.94c-0.24,0.28-0.43,0.48-0.6,0.7c-1.01,1.37-1.98,2.78-3.03,4.12
			c-0.45,0.58-1.01,1.1-1.61,1.53c-2.7,1.94-5.76,1.65-8.06-0.74c-1.86-1.93-2.96-4.31-3.82-6.81c-0.66-1.92-0.92-3.93-0.98-5.93
			c-0.07-2.58,0.03-5.16,0.08-7.74c0.04-2.32,0.11-4.63,0.15-6.95c0.01-0.56-0.08-1.11-0.14-1.94c-0.4,0.38-0.66,0.57-0.85,0.82
			c-1.8,2.36-2.93,5.05-3.76,7.88c-1.27,4.3-1.8,8.72-2.06,13.19c-0.03,0.52-0.06,1.05-0.06,1.57c-0.01,3.03-3.01,4.26-4.99,3.92
			c-1.11-0.19-1.89-0.87-2.46-1.8c-1-1.62-1.66-3.39-1.95-5.26c-0.35-2.24-0.55-4.51-0.74-6.77c-0.23-2.83-0.34-5.67-0.6-8.5
			c-0.16-1.73-0.49-3.44-0.75-5.15c-0.11-0.03-0.21-0.06-0.32-0.1c-0.27,0.36-0.57,0.7-0.82,1.07c-1.87,2.92-2.84,6.18-3.61,9.51
			c-1.02,4.41-1.45,8.88-1.52,13.4c-0.01,0.74,0,1.49-0.02,2.23c-0.05,1.72-0.91,2.86-2.57,3.38c-1.58,0.5-2.89,0.08-3.92-1.32
			c-1.25-1.71-2.04-3.66-2.73-5.65c-0.13-0.37-0.24-0.75-0.42-1.34c-0.23,0.45-0.38,0.73-0.51,1.02c-0.79,1.85-1.52,3.72-2.38,5.54
			c-0.36,0.77-0.87,1.54-1.48,2.13c-1.54,1.45-3.81,1.56-5.71,0.4c-1.49-0.91-2.61-2.2-3.49-3.68c-0.69-1.16-1.23-2.41-1.82-3.62
			c-0.19-0.38-0.33-0.79-0.57-1.35c-0.31,0.49-0.52,0.85-0.75,1.2c-1.39,2.12-2.76,4.25-4.2,6.34c-0.9,1.3-2.17,2.14-3.72,2.52
			c-1.85,0.45-3.61,0.14-5.12-0.96c-1.12-0.82-2.15-1.8-3.04-2.85c-1.57-1.84-2.67-3.99-3.59-6.22c-0.16-0.39-0.33-0.78-0.56-1.3
			c-0.37,0.48-0.62,0.83-0.9,1.16c-2.2,2.66-4.33,5.38-6.62,7.97c-2.67,3.01-6.46,3.41-9.82,1.18c-2.25-1.49-3.92-3.51-5.06-5.92
			c-3.18-6.72-4.16-13.76-2.74-21.08c0.54-2.76,1.74-5.23,3.84-7.17c2.25-2.08,4.88-3.06,7.95-2.33c0.87,0.21,1.77,0.57,2.51,1.07
			c2.53,1.71,4.16,4.08,4.75,7.11c0.07,0.34,0.1,0.69,0.1,1.04c0,0.9-0.35,1.4-1.08,1.58c-0.84,0.21-1.48-0.13-1.86-1.02
			c-0.17-0.4-0.3-0.82-0.45-1.23c-0.6-1.59-1.54-2.94-2.87-4c-0.43-0.34-0.94-0.6-1.39-0.88c-0.9,0.57-1.21,1.39-1.48,2.22
			c-0.92,2.89-1.39,5.86-1.38,8.9c0.01,5.96,1.81,11.44,4.58,16.64c0.2,0.38,0.47,0.72,0.77,1.17c0.49-0.45,0.91-0.81,1.31-1.2
			c2.94-2.89,5.53-6.08,7.98-9.39c0.52-0.7,0.61-1.39,0.52-2.2c-0.42-4-0.1-7.95,1.14-11.79c0.66-2.06,1.64-3.96,3.04-5.62
			c3.56-4.19,9.37-5.07,13.97-2.07c1.09,0.71,2.04,1.64,3.05,2.47c0.33,0.27,0.63,0.58,1.02,0.94c0.14-0.27,0.26-0.44,0.32-0.63
			c0.94-2.69,4.31-3.41,6.49-2.38c1.22,0.58,1.93,1.51,1.97,2.86c0.04,1.18-0.01,2.36-0.06,3.54c-0.14,3.54-0.42,7.08-0.43,10.61
			c-0.01,4.11,0.43,8.2,1.33,12.23c0.1,0.45,0.26,0.88,0.47,1.55c0.32-0.55,0.54-0.86,0.68-1.21c1.37-3.31,2.73-6.62,4.06-9.95
			c0.2-0.51,0.26-1.11,0.25-1.66c-0.08-4.95,0.16-9.88,0.84-14.79c0.15-1.08,0.36-2.17,0.71-3.19c0.87-2.51,3.58-3.75,6.07-2.86
			c1.21,0.43,2.03,1.24,2.16,2.55c0.11,1.04,0.14,2.09,0.11,3.13c-0.06,1.74-0.19,3.49-0.15,5.28c0.13-0.29,0.26-0.57,0.38-0.86
			c0.84-2.02,1.6-4.07,2.54-6.04c0.88-1.86,2.35-3.12,4.41-3.62c3.3-0.8,6.38,0.57,7.94,3.59c1.04,2.01,1.43,4.21,1.79,6.41
			c0.05,0.33,0.1,0.65,0.38,1.03c0.15-0.37,0.32-0.74,0.46-1.12c0.9-2.38,1.98-4.67,3.62-6.65c1.15-1.38,2.53-2.49,4.33-2.76
			c1.19-0.18,2.46-0.25,3.63-0.02c2.54,0.49,4.23,2.11,4.82,4.63c0.38,1.6,0.6,3.28,0.62,4.92c0.03,2.71-0.15,5.42-0.27,8.13
			c-0.19,4.22,0.1,8.39,1.06,12.51c0.17,0.75,0.44,1.48,0.73,2.43c0.44-0.46,0.74-0.74,1-1.07c1.95-2.43,3.63-5.04,5.05-7.81
			c0.27-0.52,0.38-1.16,0.42-1.75c0.24-3.62,0.35-7.25,0.69-10.86c0.22-2.3,0.62-4.6,1.17-6.84c0.68-2.79,2.82-4.15,5.69-3.9
			c2.24,0.2,3.38,1.53,3.21,3.77c-0.04,0.48-0.07,0.95-0.13,1.76c0.47-0.49,0.75-0.78,1.03-1.06c3.05-3.04,6.67-3.85,10.74-2.62
			c2.96,0.9,4.84,3.03,6.07,5.78c0.94,2.1,1.33,4.33,1.55,6.61c0.03,0.3,0.06,0.6,0.09,0.97c0.53,0.11,1.03,0.22,1.65,0.35
			c0.13-1.25,0.22-2.4,0.38-3.55c0.29-2.14,0.92-4.18,2-6.07c2.21-3.88,6.28-5.76,10.68-4.93c3.33,0.63,5.86,3.22,6.53,6.55
			c1.01,5-2.36,9.78-6.99,11.38c-0.82,0.28-1.66,0.48-2.59,0.74c0.13,0.64,0.22,1.23,0.36,1.82c0.93,3.9,2.8,7.34,5.3,10.43
			c0.75,0.93,1.74,1.72,2.74,2.4c1.01,0.69,1.66,0.61,2.4-0.37c1.08-1.42,2.12-2.9,2.95-4.47c1.46-2.75,2.38-5.72,3.22-8.72
			c1.22-4.34,2.17-8.74,2.52-13.25c0.04-0.48,0.04-0.96,0.04-1.44C275.14,78.33,275.09,78.16,275.06,77.98z M137.68,105.9
			c0.19-0.17,0.31-0.24,0.39-0.34c2.68-3.31,4.84-6.96,6.78-10.74c0.15-0.3,0.21-0.67,0.22-1c0.09-3.63,0.18-7.25,0.23-10.88
			c0.01-0.4-0.12-0.87-0.36-1.18c-1.41-1.86-3.11-3.43-5.11-4.65c-0.33-0.2-0.7-0.36-1.05-0.53c-0.78-0.36-1.47-0.17-2.02,0.43
			c-0.35,0.38-0.7,0.8-0.92,1.27c-0.58,1.27-1.19,2.54-1.62,3.86c-1.25,3.76-1.36,7.63-0.87,11.54c0.39,3.09,1.03,6.12,2.23,9.01
			C136.06,103.85,136.65,104.97,137.68,105.9z M234.5,89.79c-1.63-0.42-3.15-0.38-4.64,0.01c-2.62,0.69-4.33,3.72-3.55,6.29
			c0.4,1.32,1.27,2.16,2.66,2.42c1.21,0.23,2.29-0.02,3.03-1.06C233.61,95.2,234.59,92.73,234.5,89.79z M234.27,86.12
			c-0.31-2.44-1.05-4.52-2.42-6.33c-0.82-1.08-1.39-1.14-2.37-0.19c-2.33,2.24-3.28,5.15-4.05,8.48
			C228.27,86.37,231.12,85.96,234.27,86.12z M317.45,108.2c0.26-0.21,0.48-0.35,0.65-0.53c1.74-1.87,1.95-4.12,1.52-6.48
			c-0.42-2.28-1.56-4.24-2.97-6.04c-0.17-0.21-0.39-0.38-0.75-0.71c-0.19,1.55-0.42,2.87-0.51,4.21c-0.17,2.39-0.27,4.79,0.42,7.14
			C316.08,106.7,316.44,107.59,317.45,108.2z M255.2,88.74c2.43-0.19,3.95-1.42,4.81-3.48c0.88-2.12,1.06-4.24-0.41-6.22
			c-0.05-0.07-0.11-0.13-0.17-0.2c-0.91-0.96-1.42-0.94-2.12,0.2C255.48,81.97,254.92,85.18,255.2,88.74z M307.56,77.67
			c0.24-2.38,0.22-4.44-0.6-6.38c-0.33-0.77-0.91-1.47-1.49-2.1c-0.41-0.45-0.99-0.44-1.54-0.02c-1.26,0.98-1.76,3.29-0.88,4.64
			C304.13,75.47,305.74,76.49,307.56,77.67z M274.86,74.07c-0.32-1.7-0.79-3.23-1.85-4.5c-0.92-1.1-2.3-0.8-2.69,0.58
			c-0.12,0.43-0.1,0.96,0.01,1.4C270.8,73.38,272.59,74.39,274.86,74.07z"/>
		<path d="M220.74,276.74c0.37-0.79,0.77-1.55,1.09-2.36c1.3-3.34,2.6-6.68,3.84-10.04c0.23-0.63,0.28-1.36,0.28-2.05
			c-0.01-4.51,0.02-9.01,0.98-13.45c0.21-0.97,0.58-1.94,1.06-2.8c1.09-1.93,3.44-2.86,5.52-2.31c1.66,0.43,2.56,1.48,2.54,3.2
			c-0.02,1.35-0.23,2.7-0.32,4.05c-0.19,2.79-0.35,5.57-0.52,8.36c0.09,0.02,0.18,0.04,0.26,0.05c0.13-0.38,0.27-0.76,0.38-1.14
			c0.82-2.77,1.74-5.5,3.14-8.04c0.98-1.77,2.1-3.44,3.66-4.75c2.02-1.7,4.36-2.35,6.97-1.97c2.75,0.41,4.63,1.92,5.66,4.5
			c0.87,2.18,1.1,4.49,1.24,6.8c0.21,3.32,0.24,6.65,0.59,9.95c0.35,3.3,0.98,6.56,1.55,9.83c0.15,0.85,0.5,1.67,0.8,2.49
			c0.13,0.37,0.33,0.72,0.55,1.04c1.11,1.62,1.91,1.6,2.83-0.09c1.15-2.1,1.66-4.4,2.08-6.73c0.16-0.9,0.32-1.81,0.55-2.69
			c0.28-1.04,0.98-1.61,1.93-1.69c1.07-0.08,1.61,0.37,1.51,1.43c-0.14,1.43-0.34,2.87-0.6,4.28c-0.27,1.42-0.64,2.81-0.99,4.21
			c-0.33,1.33-1,2.5-1.79,3.62c-2.45,3.47-6.96,3.85-9.97,2.26c-1.63-0.86-2.91-2.07-3.92-3.6c-1.99-3.02-3.14-6.34-3.47-9.93
			c-0.4-4.35-0.67-8.71-1.03-13.07c-0.13-1.56-0.35-3.12-0.55-4.68c-0.03-0.25-0.15-0.48-0.27-0.82c-1.09,0.71-1.73,1.68-2.34,2.67
			c-1.96,3.21-3.11,6.73-3.97,10.36c-1.07,4.53-1.55,9.13-1.8,13.76c-0.04,0.7-0.03,1.4-0.08,2.1c-0.14,2.08-1.52,3.6-3.56,3.94
			c-1.7,0.28-3-0.33-3.92-1.77c-1.52-2.38-2.57-4.96-3.24-7.7c-0.11-0.45-0.23-0.9-0.4-1.58c-0.24,0.51-0.4,0.8-0.52,1.11
			c-0.56,1.47-1.06,2.97-1.69,4.41c-0.42,0.95-0.9,1.91-1.54,2.72c-2.17,2.74-5.64,3.09-8.36,0.9c-1.42-1.14-2.49-2.58-3.32-4.19
			c-0.76-1.47-1.42-2.99-2.18-4.62c-0.16,0.41-0.31,0.74-0.43,1.08c-0.46,1.27-0.88,2.56-1.37,3.82c-0.56,1.45-1.45,2.69-2.66,3.68
			c-2.62,2.13-5.86,2.07-8.52-0.15c-1.36-1.13-2.41-2.53-3.32-4.04c-1.95-3.24-2.93-6.8-3.46-10.51c-0.05-0.38-0.13-0.76-0.25-1.42
			c-2.57,2.73-5.36,4.76-8.88,6.08c0.47,0.2,0.77,0.32,1.05,0.46c0.93,0.47,1.93,0.86,2.78,1.44c2.52,1.73,3.4,4.47,2.5,7.38
			c-1.07,3.43-4.18,5.66-8.09,5.75c-2.48,0.06-4.75-0.69-6.78-2.1c-3.34-2.32-5.68-5.46-7.04-9.25c-2.81-7.84-2.48-15.62,0.88-23.24
			c1.05-2.37,2.71-4.27,4.89-5.7c1.57-1.02,3.27-1.63,5.16-1.74c4.52-0.25,7.84,2.79,7.97,7.32c0.04,1.55-0.26,3.05-0.79,4.5
			c-1.43,3.9-3.68,7.25-6.91,9.87c-0.98,0.79-2.09,1.42-3.29,2.24c0.02,0.23,0.06,0.64,0.11,1.14c2.28,0.01,4.42-0.29,6.52-0.88
			c4.19-1.19,7.13-3.95,9.37-7.55c0.23-0.37,0.23-0.92,0.23-1.38c0-3.07,0.27-6.12,0.82-9.13c0.16-0.85,0.38-1.72,0.72-2.51
			c0.92-2.11,3.33-3.26,5.55-2.69c1.35,0.35,2.25,1.19,2.4,2.62c0.1,0.95,0.13,1.92,0.1,2.88c-0.09,2.71-0.31,5.42-0.32,8.13
			c-0.03,5.57,1.19,10.93,2.88,16.2c0.29,0.9,0.63,1.8,1.47,2.6c0.43-0.87,0.88-1.62,1.17-2.43c1.35-3.79,2.66-7.59,3.94-11.39
			c0.19-0.56,0.19-1.2,0.18-1.81c-0.07-3.63,0.01-7.26,0.53-10.86c0.08-0.56,0.17-1.13,0.31-1.68c0.63-2.51,3-3.93,5.54-3.34
			c1.63,0.38,2.61,1.39,2.8,3.06c0.13,1.13,0.14,2.27,0.14,3.4c-0.01,3.11-0.16,6.21-0.06,9.31c0.14,4.39,0.92,8.69,2.32,12.86
			c0.23,0.69,0.56,1.35,0.84,2.03C220.53,276.77,220.64,276.75,220.74,276.74z M172.58,265.05c0.27-0.17,0.46-0.26,0.62-0.4
			c3.26-2.8,5.34-6.28,6.11-10.52c0.2-1.13,0.16-2.27-0.22-3.36c-0.29-0.82-0.67-1.6-1.52-2.04c-0.89,0.42-1.32,1.2-1.74,1.95
			c-2.34,4.16-3.39,8.66-3.39,13.41C172.44,264.37,172.52,264.66,172.58,265.05z M174.07,273.74c0.92,2.74,2.12,5.03,4.08,6.85
			c0.74,0.69,1.58,1.21,2.62,1.37c0.83,0.13,1.49-0.15,1.86-0.89c0.24-0.49,0.44-1.06,0.46-1.6c0.07-1.82-0.95-3.03-2.44-3.87
			C178.69,274.5,176.52,274.1,174.07,273.74z"/>
	</g>
	<g>
		<path class="st8" d="M219.38,332.5c-3.63-0.06-6.51-0.66-9.34-1.44c-3.78-1.04-7.56-2.12-11.3-3.29
			c-8.97-2.8-17.94-5.64-26.89-8.52c-2.34-0.75-4.59-1.76-6.89-2.61c-2.17-0.8-3.03-2.4-2.99-4.63c0.02-1.16,0.47-2.03,1.55-2.48
			c1-0.42,2.02-0.82,3.05-1.14c9.98-3.11,19.72-6.9,29.5-10.57c4.29-1.61,8.61-3.16,12.92-4.72c4.31-1.56,8.68-1.69,13.11-0.5
			c13.38,3.59,26.76,7.14,40.13,10.75c1.59,0.43,3.13,1.07,4.68,1.64c1.57,0.57,2.23,1.74,2.28,3.39c0.06,2.22-0.67,4.01-2.61,5.16
			c-1.71,1.01-3.43,2.02-5.23,2.85c-7.69,3.53-15.36,7.12-23.15,10.42c-4.82,2.04-9.72,3.97-14.87,5.07
			C221.81,332.21,220.25,332.37,219.38,332.5z"/>
		<path class="st4" d="M270.12,319.81c0.05,1.87-0.7,3.32-2.13,4.46c-0.26,0.21-0.52,0.42-0.78,0.61c-2.07,1.52-3.97,3.21-5.47,5.31
			c-1.5,2.1-3.49,3.15-6.11,3.33c-4.27,0.28-7.24,2.58-8.85,6.52c-0.66,1.61-1,3.35-1.52,5.01c-0.35,1.13-0.67,2.28-1.18,3.34
			c-1.17,2.45-3.16,3.01-5.51,1.61c-0.73-0.43-1.38-0.99-2.03-1.54c-0.54-0.46-1.02-0.99-1.5-1.51c-2.96-3.24-6.7-4.44-10.99-4.23
			c-3.14,0.15-6.16,0.95-9.2,1.66c-0.92,0.21-1.85,0.38-2.78,0.53c-1.93,0.32-3.77-0.02-5.51-0.87c-0.64-0.31-1.29-0.62-1.87-1.02
			c-3.07-2.12-6.43-2.35-9.92-1.48c-1.51,0.38-2.97,0.95-4.45,1.43c-0.81,0.26-1.61,0.54-2.43,0.77c-2.04,0.58-3.86,0.08-5.4-1.31
			c-0.87-0.78-1.72-1.66-2.36-2.63c-2.33-3.52-5.6-5.7-9.55-6.96c-0.9-0.29-1.78-0.65-2.67-0.95c-3.49-1.2-5.29-3.69-5.43-7.34
			c-0.05-1.22,0.09-2.46,0.28-3.67c0.19-1.21,1-1.64,2.18-1.34c0.14,0.04,0.26,0.1,0.4,0.15c6.98,2.38,13.92,4.88,20.95,7.09
			c7.97,2.51,16.02,4.8,24.06,7.08c2.08,0.59,4.26,0.9,6.41,1.19c2.95,0.4,5.84-0.16,8.7-0.91c4.12-1.08,8.11-2.56,12.05-4.19
			c9.17-3.8,18.27-7.77,27.18-12.16c0.98-0.48,1.93-1.01,2.93-1.42c1.17-0.47,1.79-0.16,2.13,1.06
			C269.93,318.21,269.99,319.02,270.12,319.81z"/>
		<path class="st8" d="M222.97,367.2c-3.71-0.07-7.32-0.83-10.9-1.76c-6.95-1.81-13.85-3.81-20.64-6.19
			c-5.97-2.1-12-4.05-17.97-6.18c-2.8-1-5.5-2.28-8.25-3.42c-2.66-1.09-3.96-2.95-3.45-5.89c0.14-0.84,0.14-1.7,0.35-2.52
			c0.28-1.14,0.83-1.51,1.99-1.26c1,0.22,1.98,0.62,2.94,1.02c3.84,1.6,7.62,3.35,11.51,4.81c11.42,4.29,22.97,8.22,34.77,11.34
			c2.69,0.71,5.46,1.16,8.22,1.51c4.46,0.56,8.75-0.34,12.93-1.89c2.08-0.77,4.16-1.56,6.28-2.21c1.82-0.56,3.39-1.46,4.63-2.89
			c1.32-1.53,2.9-2.69,4.59-3.76c4.48-2.83,8.91-5.74,13.39-8.56c1.44-0.91,2.95-1.7,4.48-2.45c1.26-0.62,2.14-0.16,2.36,1.22
			c0.38,2.38-0.02,4.59-1.99,6.17c-1.8,1.45-3.66,2.87-5.64,4.06c-6.17,3.69-12.37,7.33-18.64,10.85
			c-3.62,2.04-7.36,3.88-11.11,5.68C229.74,366.35,226.46,367.24,222.97,367.2z"/>
		<g>
			<path class="st5" d="M224.45,356.19c-4.49-0.18-8.57-0.96-12.57-2.17c-6.83-2.08-13.62-4.26-20.42-6.42
				c-0.55-0.17-1.32-0.23-1.37-1.03c-0.05-0.82,0.71-0.94,1.27-1.11c1.85-0.57,3.69-1.16,5.58-1.59c1.97-0.45,3.85-0.06,5.59,0.98
				c0.45,0.27,0.9,0.52,1.34,0.79c3.27,2.03,6.77,2.47,10.5,1.61c2.72-0.63,5.43-1.29,8.19-1.68c1.66-0.23,3.39-0.08,5.07,0.09
				c1.79,0.18,3.31,1.09,4.62,2.31c1,0.94,1.97,1.91,2.91,2.91c1.12,1.19,0.94,2.2-0.58,2.88
				C231.28,355.27,227.78,356.01,224.45,356.19z"/>
			<path class="st5" d="M269.29,330.63c0.04,1.36-0.41,2.21-1.24,2.86c-0.44,0.34-0.94,0.64-1.43,0.9
				c-5.44,2.88-10.5,6.35-15.66,9.67c-0.44,0.28-0.87,0.59-1.34,0.78c-0.85,0.34-1.28,0.01-1.25-0.88c0.11-3.7,3.26-7.19,6.95-7.71
				c0.51-0.07,1.03-0.16,1.55-0.2c2.44-0.18,4.43-1.23,6.02-3.06c1.02-1.18,1.98-2.41,3.02-3.57c0.43-0.48,0.97-0.92,1.53-1.22
				c0.83-0.45,1.19-0.27,1.46,0.63C269.09,329.5,269.2,330.21,269.29,330.63z"/>
			<path class="st5" d="M164.55,335.44c0.03-0.28,0.01-0.58,0.09-0.84c0.18-0.57,0.53-0.9,1.17-0.65c2.42,0.95,4.85,1.85,7.24,2.88
				c2.02,0.87,3.43,2.49,4.63,4.28c0.21,0.31,0.39,0.84,0.26,1.12c-0.24,0.53-0.76,0.19-1.12,0.04c-2.57-1.08-5.13-2.18-7.69-3.28
				c-1-0.43-1.99-0.87-3-1.27C165.07,337.3,164.53,336.58,164.55,335.44z"/>
		</g>
	</g>
</g>
</svg>
