<?xml version="1.0" encoding="utf-8"?>
<!-- Generator: Adobe Illustrator 24.3.0, SVG Export Plug-In . SVG Version: 6.00 Build 0)  -->
<svg version="1.1" id="Calque_1" xmlns="http://www.w3.org/2000/svg" xmlns:xlink="http://www.w3.org/1999/xlink" x="0px" y="0px"
	 viewBox="0 0 432 432" style="enable-background:new 0 0 432 432;" xml:space="preserve">
<style type="text/css">
	.st0{fill:#8B9B75;}
	.st1{fill:#CCCCCC;}
	.st2{fill:#74AFC4;}
	.st3{fill:#B7535A;}
	.st4{fill:#5F6852;}
	.st5{fill:#B2C191;}
	.st6{fill:#998675;}
	.st7{fill:#E5AE6C;}
	.st8{fill:#736357;}
	.st9{fill:#E6E6E6;}
	.st10{fill:#999999;}
	.st11{fill:#C69C6D;}
	.st12{fill:#CCE0E5;}
	.st13{fill:#E0CACC;}
	.st14{fill:#EACAA4;}
	.st15{fill:#B3B3B3;}
	.st16{fill:#D69950;}
	.st17{fill:#E5AD6A;}
	.st18{fill:#D3B4B6;}
	.st19{fill:#E8A34F;}
	.st20{fill:#808080;}
	.st21{fill:#534741;}
	.st22{fill:#5D808C;}
	.st23{fill:#F9C132;}
	.st24{fill:#6C755F;}
	.st25{fill:#95AEB7;}
	.st26{fill:#C79C52;}
	.st27{fill:#DD9F54;}
	.st28{fill:#748B91;}
	.st29{fill:#9BC2CC;}
	.st30{fill:#AD868A;}
	.st31{fill:#727C62;}
	.st32{fill:#666666;}
	.st33{fill:#F9A332;}
	.st34{fill:#CCD3BA;}
	.st35{fill:#C7B299;}
	.st36{fill:#4D4D4D;}
	.st37{fill:#333333;}
	.st38{fill:none;}
	.st39{fill:#879193;}
	.st40{fill:#E09F51;}
	.st41{fill:#869372;}
</style>
<g>
	<path d="M252.43,295.46c-0.98,0.56-1.83,1.02-2.65,1.53c-0.73,0.46-1.39,1.06-2.16,1.44c-1.6,0.81-3,0.5-4.18-0.85
		c-0.33-0.37-0.58-0.8-0.87-1.21c-0.96-1.36-1.31-1.52-2.68-0.5c-1.13,0.84-2.18,1.85-3.04,2.95c-0.83,1.06-1.47,2.3-2.04,3.53
		c-2.7,5.83-6.26,11.12-10.23,16.15c-2.81,3.56-5.38,7.27-7.58,11.24c-0.72,1.3-1.51,2.57-2.37,3.78c-0.53,0.75-1.18,1.46-1.9,2.01
		c-1.67,1.27-3.35,1.13-4.87-0.31c-0.31-0.3-0.59-0.64-0.87-0.97c-1.4-1.61-1.77-1.77-3.68-1.07c-2.73,1-5.45,2.06-8.14,3.15
		c-2.56,1.03-4.81,2.54-6.82,4.43c-0.77,0.72-1.57,1.42-2.41,2.03c-0.96,0.7-2.04,0.95-3.14,0.31c-1.16-0.67-1.58-1.79-1.36-3.02
		c0.23-1.33,0.53-2.7,1.11-3.91c1.04-2.18,2.28-4.26,3.47-6.36c0.91-1.62,1.93-3.18,2.81-4.82c1.58-2.94,2.11-6.06,1.35-9.35
		c-0.19-0.84-0.29-1.71-0.5-2.55c-0.27-1.07-1.02-1.4-1.95-0.81c-0.51,0.32-0.98,0.78-1.31,1.28c-2.3,3.4-4.93,6.52-7.75,9.5
		c-1.26,1.34-2.29,2.93-3.26,4.5c-1.32,2.12-2.76,4.12-4.62,5.79c-1.48,1.33-3.09,2.14-5.24,1.77c-0.89-0.16-1.94,0.23-2.84,0.57
		c-0.67,0.26-1.3,0.76-1.78,1.31c-2.74,3.13-6.17,5.32-9.68,7.46c-2.85,1.74-5.63,3.63-8.27,5.67c-1.9,1.46-3.63,3.19-5.26,4.96
		c-2.35,2.55-4.53,5.27-6.8,7.89c-0.57,0.65-1.16,1.33-1.87,1.79c-0.45,0.3-1.21,0.43-1.71,0.27c-0.72-0.23-0.89-1.02-0.74-1.72
		c0.19-0.9,0.41-1.83,0.8-2.66c1.89-4.04,3.69-8.13,5.83-12.04c1.3-2.37,3.04-4.53,4.77-6.62c4.16-5.02,8.75-9.65,13.6-14
		c9.4-8.42,18.05-17.54,25.85-27.46c0.92-1.17,1.92-2.27,2.93-3.37c0.67-0.73,1.37-1.44,2.12-2.08c4.4-3.73,8.92-3.9,13.57-0.51
		c2.73,1.99,4.88,4.55,6.99,7.17c1.24,1.54,2.65,2.94,4,4.39c0.29,0.31,0.66,0.57,1.01,0.82c1.36,0.96,2.79,1.07,4.14,0.05
		c0.98-0.74,1.93-1.57,2.73-2.5c5.01-5.79,9.32-12.07,13.14-18.69c2.66-4.62,5.16-9.33,7.9-13.9c1.59-2.64,3.47-5.12,5.32-7.59
		c0.62-0.82,1.48-1.51,2.35-2.08c2.74-1.79,5.62-1.23,7.47,1.45c0.66,0.96,1.17,2.04,1.59,3.13c0.44,1.15,0.75,2.36,1.02,3.57
		c1.59,7.09,4.78,13.42,9.22,19.1c2.98,3.81,6.14,7.48,9.26,11.17c0.51,0.6,1.16,1.13,1.86,1.5c1.38,0.72,2.74,0.66,3.94-0.49
		c1.57-1.5,3.14-3,4.73-4.48c2.4-2.24,4.78-4.52,7.25-6.67c1.88-1.64,4-2.92,6.42-3.65c2.05-0.62,4.07-0.61,5.95,0.42
		c1.57,0.86,3.1,1.83,4.51,2.92c3.23,2.51,6.33,5.19,9.56,7.7c4.78,3.71,8.25,8.35,10.28,14.06c0.71,1.98,1.41,3.98,2.27,5.9
		c1.29,2.88,2.51,5.83,4.15,8.51c5.46,8.94,11.04,17.81,16.69,26.62c2.04,3.17,4.43,6.12,6.67,9.17c0.33,0.45,0.72,0.87,0.95,1.37
		c0.88,1.85-0.43,3.8-2.48,3.62c-0.66-0.06-1.33-0.29-1.96-0.54c-2.49-1-4.73-2.41-6.82-4.11c-4.76-3.86-8.8-8.39-12.24-13.43
		c-4.47-6.55-8.79-13.21-13.22-19.79c-1.7-2.52-3.36-5.08-5.33-7.38c-1.68-1.96-3.63-3.75-5.71-5.28c-3.02-2.23-6.42-2.4-9.89-0.96
		c-1.14,0.48-2.26,1.03-3.38,1.54c-2.25,1.02-4.6,1.51-7.06,1.13c-5-0.78-9.22,0.77-13.09,3.91c-4.38,3.55-8.96,6.86-13.38,10.36
		c-2.04,1.61-3.92,3.43-5.83,5.18c-1.78,1.63-3.47,3.37-5.3,4.94c-0.88,0.76-1.92,1.41-2.99,1.83c-2.01,0.78-3.79-0.17-4.32-2.25
		c-0.22-0.87-0.23-1.85-0.09-2.74c0.91-5.82,3.59-10.91,6.67-15.82c1.78-2.83,3.65-5.62,5.57-8.36c1.87-2.68,2.13-5.5,0.97-8.48
		c-1.26-3.23-2.58-6.44-3.91-9.64C253.37,296.72,252.91,296.21,252.43,295.46z"/>
	<path d="M101.04,307.97c-0.19-2.4-0.38-4.81-0.58-7.21c-0.13-1.61-0.97-2.67-2.57-2.99c-2.48-0.51-4.96-1.05-7.47-1.41
		c-3.31-0.47-6.65-0.74-9.96-1.15c-0.79-0.1-1.57-0.37-2.31-0.67c-3.13-1.28-4.52-3.96-3.54-7.21c0.52-1.7,1.33-3.34,2.17-4.91
		c1.55-2.9,3.28-5.69,4.82-8.59c0.87-1.63,1.54-3.38,2.23-5.1c0.5-1.24,0.29-2.38-0.55-3.48c-2.01-2.64-2.33-5.55-1.09-8.61
		c0.9-2.24,1.84-4.46,2.84-6.66c2.81-6.21,5.69-12.39,8.47-18.61c0.78-1.75,1.31-3.6,1.89-5.43c0.52-1.63,0.21-3-1.27-4.1
		c-3.17-2.36-4.03-5.58-2.93-9.26c0.76-2.55,1.59-5.11,2.77-7.48c3.09-6.21,6.37-12.33,9.6-18.47c1.21-2.3,2.45-4.6,3.76-6.84
		c0.52-0.89,1.17-1.79,1.96-2.43c1.46-1.19,3.28-0.83,4.38,0.7c0.14,0.2,0.26,0.42,0.38,0.64c3.71,6.87,7.45,13.73,11.11,20.62
		c2.03,3.83,3.95,7.73,5.18,11.92c0.35,1.18,0.59,2.41,0.72,3.63c0.27,2.59-0.56,4.89-2.66,6.4c-2.25,1.61-2.46,3.52-1.57,5.85
		c0.71,1.85,1.32,3.75,2.13,5.55c2.7,5.99,5.5,11.93,8.22,17.91c0.92,2.03,1.79,4.08,2.58,6.17c1.13,2.99,0.88,5.87-1.09,8.45
		c-0.89,1.17-1.07,2.36-0.57,3.65c0.63,1.61,1.28,3.23,2.09,4.76c1.55,2.9,3.25,5.71,4.82,8.59c0.8,1.47,1.59,2.96,2.13,4.53
		c1.33,3.88-0.23,7.01-4.18,8.08c-2.37,0.64-4.87,0.86-7.32,1.18c-3.01,0.4-6.03,0.69-9.04,1.09c-0.85,0.11-1.67,0.47-2.51,0.65
		c-1.69,0.38-2.52,1.49-2.68,3.14c-0.18,1.85-0.36,3.7-0.42,5.56c-0.07,2.29,0.06,4.59-0.05,6.88c-0.19,3.91-2.13,5.92-6.05,6.12
		c-2.71,0.14-5.45,0.11-8.17-0.08c-3.68-0.26-5.35-1.89-5.75-5.59c-0.21-1.9-0.04-3.84-0.04-5.76
		C100.98,307.98,101.01,307.98,101.04,307.97z"/>
	<g>
		<path d="M342.06,164.56c0,26.79,0,53.58,0,80.37c0,0.68,0.03,1.37-0.02,2.05c-0.13,1.93-1.25,2.74-3.15,2.22
			c-4.3-1.19-8.59-2.41-12.88-3.63c-15.2-4.31-30.39-8.61-45.58-12.94c-1.06-0.3-2-0.31-3.07,0c-18.72,5.49-37.46,10.93-56.19,16.4
			c-1.71,0.5-3.38,0.55-5.12,0.14c-18.75-4.4-37.51-8.78-56.27-13.17c-2.43-0.57-2.85-1.11-2.87-3.75
			c-0.26-28.77-0.52-57.55-0.78-86.32c-0.22-24.56-0.45-49.11-0.67-73.67c-0.01-0.81-0.05-1.62,0.03-2.42
			c0.17-1.7,1.39-2.69,3.07-2.46c0.85,0.12,1.69,0.39,2.52,0.62c18.43,5.18,36.85,10.36,55.27,15.58c1.2,0.34,2.26,0.29,3.43-0.09
			c18.66-6.12,37.33-12.2,55.98-18.33c1.3-0.43,2.52-0.48,3.82-0.18c19.74,4.57,39.47,9.13,59.21,13.7
			c2.77,0.64,3.48,1.53,3.48,4.38c0,27.16,0,54.33,0,81.49C342.2,164.56,342.13,164.56,342.06,164.56z M280.51,208.57
			c0.35,0.04,0.54,0.1,0.7,0.07c4.45-0.92,8.77-2.22,12.63-4.73c0.67-0.44,1.24-1.04,1.91-1.47c0.93-0.59,2.04-0.42,2.71,0.32
			c0.63,0.71,0.76,1.73,0.13,2.57c-0.52,0.68-1.18,1.28-1.86,1.79c-2.15,1.61-4.55,2.79-7.09,3.62c-2.93,0.95-5.91,1.75-9.11,2.69
			c0.05,4.75-0.04,9.67,0.14,14.51c6.43,2.28,55.25,15.91,56.95,15.87c0-53.54,0-107.09,0-160.78
			c-19.22-4.45-38.39-8.88-57.57-13.32c-0.39,2.19-0.18,28.49,0.24,29.85c0.33,0,0.7-0.02,1.06,0c2.9,0.21,5.8,0.42,8.7,0.66
			c0.49,0.04,0.98,0.18,1.43,0.37c0.98,0.42,1.46,1.28,1.33,2.22c-0.14,0.99-0.97,1.74-2.07,1.79c-0.42,0.02-0.85-0.12-1.28-0.15
			c-2.65-0.2-5.31-0.4-7.96-0.55c-0.46-0.03-0.93,0.14-1.49,0.23C280.17,139.02,280.34,173.79,280.51,208.57z M220.34,88
			c0,0.74,0,1.35,0,1.97c0.04,21.89,0.07,43.77,0.11,65.66c0,0.74,0.06,1.49,0.1,2.23c0.09,1.4,0.74,2.32,2.19,2.59
			c1.96,0.37,3.54,1.43,4.97,2.76c1.04,0.97,2.09,1.94,3.17,2.87c2.41,2.08,5.2,3.4,8.35,3.76c3.01,0.34,6.06,0.43,9.08,0.72
			c1.91,0.18,3.83,0.39,5.69,0.83c2.67,0.63,4.43,2.38,5.26,5.01c0.2,0.65,0.38,1.31,0.52,1.98c0.53,2.62,1.72,4.87,3.56,6.83
			c1.09,1.17,2.07,2.48,2.94,3.83c1.05,1.63,1.7,3.44,1.69,5.43c-0.02,2.59-1.47,4.5-4.01,5.12c-0.83,0.2-1.72,0.34-2.57,0.3
			c-1.98-0.09-3.96-0.25-5.92-0.49c-4.06-0.5-8.1-1.14-12.22-0.96c-3.42,0.15-6.43,1.22-8.77,3.83c-3,3.34-6.64,5.54-11.13,6.19
			c-1.4,0.2-2.2,1.09-2.51,2.4c-0.17,0.72-0.23,1.47-0.23,2.21c-0.02,3.97-0.01,7.94,0,11.9c0,0.48,0.08,0.96,0.13,1.55
			c0.81,0.09,1.54,0.22,2.27,0.23c2.05,0.02,4.09-0.05,6.14,0c1.24,0.03,2.02,0.86,2.06,1.96c0.04,1.04-0.58,1.9-1.7,2.11
			c-0.97,0.18-1.97,0.26-2.96,0.28c-1.9,0.04-3.81,0.01-5.73,0.01c-0.35,1.87-0.27,11.81,0.18,13.27
			c18.35-5.34,36.7-10.69,55.18-16.07c-0.12-21.51-0.23-42.88-0.35-64.25c-0.43-0.12-0.66-0.18-0.89-0.24
			c-4.71-1.36-9.34-2.94-13.52-5.58c-0.47-0.3-0.96-0.59-1.35-0.97c-0.67-0.67-0.87-1.48-0.42-2.38c0.45-0.88,1.3-1.32,2.34-1.07
			c0.59,0.15,1.16,0.44,1.68,0.76c3.29,2.05,6.87,3.42,10.56,4.52c0.45,0.13,0.92,0.21,1.61,0.36c-0.16-29.86-0.32-59.53-0.48-89.44
			C256.87,76.06,238.65,82.02,220.34,88z M216.15,244.6c0-0.81,0-1.3,0-1.79c-0.02-14.76-0.04-29.52-0.06-44.28
			c0-0.25,0.01-0.5-0.01-0.74c-0.1-1.62-0.67-2.19-2.32-2.26c-0.8-0.04-1.61,0.02-2.42-0.02c-5.21-0.25-9.28-2.44-11.87-7.08
			c-0.69-1.24-1.33-2.52-1.93-3.81c-1.14-2.45-2.99-4.09-5.54-4.91c-1.59-0.51-3.21-0.92-4.82-1.36c-2.21-0.61-4.44-1.12-6.62-1.82
			c-2.27-0.73-4.28-1.95-5.89-3.75c-2.61-2.9-3.24-6.21-1.92-9.85c1.28-3.53,3.85-5.54,7.6-5.95c1.17-0.13,2.36-0.21,3.52-0.09
			c2.09,0.22,4.2,0.47,6.24,0.94c4.8,1.1,9.1,0.27,12.89-2.92c0.09-0.08,0.2-0.15,0.3-0.22c3.15-2.44,6.63-3.81,10.7-3.42
			c1.21,0.12,1.61-0.21,1.75-1.39c0.16-1.29,0.19-2.6,0.19-3.9c-0.03-18.6-0.07-37.21-0.1-55.81c0-0.67,0-1.34,0-2.06
			c-18.67-5.26-37.18-10.47-55.73-15.69c-0.4,3.43,1.12,157.98,1.56,159.44C179.72,236.07,197.81,240.31,216.15,244.6z"/>
		<path d="M295.9,143.26c-1.66-0.05-3.32,0.22-4.99,0.33c-0.92,0.06-1.86,0.24-2.77,0.15c-2.24-0.23-3.43-2.17-2.39-4.17
			c0.79-1.51,1.9-2.89,3.05-4.17c0.99-1.09,2.22-1.97,3.38-2.91c1.85-1.49,3.44-3.2,4.81-5.15c1.03-1.47,2.1-2.93,3.32-4.24
			c2.39-2.56,4.74-2.56,7.28-0.21c1.64,1.51,3.35,2.95,4.94,4.51c1.1,1.08,2.15,2.24,3.01,3.51c1.23,1.81,2.6,3.45,4.24,4.9
			c0.97,0.86,1.9,1.8,2.67,2.83c1.16,1.56,0.72,3.38-1.05,4.19c-1.04,0.48-2.25,0.75-3.4,0.8
			C315.67,143.78,300.92,143.41,295.9,143.26z"/>
		<path d="M320.36,165.13c-1.76-0.24-3.25-0.36-4.7-0.66c-2.71-0.56-5.4-0.58-8.11-0.01c-1.41,0.29-2.84,0.34-4.2-0.27
			c-1.9-0.84-2.61-2.62-1.34-4.23c2.43-3.12,4.83-6.32,7.95-8.82c2.04-1.63,4.1-1.49,5.74,0.55c2.12,2.63,4.59,4.86,7.17,6.99
			c0.48,0.39,0.92,0.84,1.3,1.33c1.27,1.63,0.87,3.65-1.01,4.49C322.22,164.91,321.14,164.96,320.36,165.13z"/>
		<path d="M313.24,101.31c1.34-1.54,2.55-2.94,3.78-4.3c0.41-0.45,0.86-0.91,1.37-1.23c0.79-0.48,1.76-0.31,2.39,0.33
			c0.61,0.63,0.86,1.39,0.47,2.21c-0.26,0.55-0.64,1.06-1.03,1.52c-1.19,1.42-2.42,2.81-3.75,4.36c0.47,0.47,0.89,0.9,1.32,1.3
			c1.45,1.35,2.93,2.67,4.34,4.05c1.05,1.03,1.15,2.25,0.38,3.14c-0.8,0.94-2.14,0.96-3.3-0.05c-1.31-1.13-2.55-2.34-3.83-3.51
			c-0.54-0.5-1.09-0.98-1.79-1.6c-0.95,1.08-1.83,2.09-2.71,3.1c-0.69,0.79-1.36,1.61-2.07,2.38c-1.14,1.23-2.46,1.44-3.41,0.59
			c-0.91-0.82-0.9-2.05,0.12-3.31c1.18-1.44,2.42-2.82,3.63-4.23c0.4-0.46,0.78-0.94,1.26-1.53c-1.41-1.31-2.77-2.56-4.11-3.82
			c-0.45-0.42-0.93-0.83-1.31-1.31c-0.73-0.93-0.7-1.92-0.02-2.72c0.7-0.82,1.83-0.97,2.85-0.3c0.46,0.3,0.86,0.7,1.27,1.08
			C310.4,98.68,311.72,99.9,313.24,101.31z"/>
		<path d="M305.86,191.51c-0.24,1.16-0.67,3.34-1.14,5.51c-0.09,0.41-0.33,0.81-0.58,1.14c-0.55,0.72-1.33,0.89-2.17,0.66
			c-0.86-0.23-1.38-0.85-1.41-1.75c-0.02-0.61,0.11-1.23,0.22-1.83c0.18-0.97,0.45-1.93,0.61-2.9c0.44-2.74-0.03-5.31-1.61-7.62
			c-1.15-1.67-0.63-3.05,0.26-3.62c1.12-0.72,2.33-0.25,3.36,1.3C305.03,184.84,305.86,187.52,305.86,191.51z"/>
		<path d="M285.22,166.68c0.18,0.03,0.49,0.06,0.79,0.15c3.81,1.22,7.39,2.85,10.26,5.74c0.09,0.09,0.18,0.17,0.26,0.26
			c1.05,1.15,1.15,2.42,0.28,3.29c-0.86,0.85-2.08,0.89-3.15-0.18c-2.55-2.51-5.64-3.97-8.97-5.06c-0.18-0.06-0.35-0.12-0.52-0.21
			c-1.03-0.52-1.53-1.45-1.3-2.4C283.09,167.34,284,166.68,285.22,166.68z"/>
		<path d="M251.25,150.58c-0.3-0.14-0.92-0.31-1.37-0.69c-3.97-3.3-6.54-7.52-7.94-12.45c-0.38-1.34,0.25-2.5,1.39-2.85
			c1.03-0.32,2.06,0.26,2.63,1.49c0.16,0.33,0.27,0.69,0.39,1.04c1.14,3.62,3.13,6.69,5.96,9.22c0.41,0.37,0.82,0.78,1.07,1.25
			C254.14,149.01,253.13,150.61,251.25,150.58z"/>
		<path d="M249.84,219.67c1.21,0.11,1.93,0.69,2.14,1.56c0.23,0.95-0.07,1.72-0.87,2.26c-0.35,0.24-0.77,0.4-1.18,0.53
			c-3.65,1.18-7.3,2.35-10.96,3.5c-0.53,0.17-1.08,0.32-1.62,0.33c-1.02,0.03-1.83-0.6-2.09-1.51c-0.25-0.88,0.17-1.84,1.05-2.36
			c0.26-0.16,0.56-0.26,0.86-0.35c3.77-1.22,7.54-2.43,11.31-3.63C249,219.82,249.55,219.74,249.84,219.67z"/>
		<path d="M241.96,126.07c0.03-0.12,0.07-0.36,0.14-0.59c1.22-3.81,2.9-7.37,5.78-10.24c0.52-0.52,1.1-1.01,1.74-1.37
			c0.98-0.54,2.04-0.27,2.65,0.55c0.57,0.76,0.55,1.74-0.07,2.58c-0.11,0.15-0.24,0.29-0.38,0.41c-2.64,2.24-4.14,5.19-5.29,8.37
			c-0.21,0.58-0.43,1.18-0.78,1.67c-0.54,0.76-1.3,1.13-2.26,0.84C242.55,128.02,241.96,127.21,241.96,126.07z"/>
		<path d="M259.72,112.89c-1.21,0.04-1.87-0.34-2.28-1.13c-0.39-0.74-0.29-1.46,0.18-2.09c0.25-0.34,0.6-0.63,0.96-0.85
			c3.23-1.99,6.62-3.59,10.34-4.43c0.6-0.13,1.23-0.23,1.83-0.2c1.02,0.05,1.78,0.77,1.91,1.71c0.13,0.97-0.29,1.69-1.13,2.14
			c-0.32,0.17-0.68,0.3-1.04,0.37c-3.31,0.69-6.34,2.04-9.23,3.75C260.7,112.51,260.06,112.73,259.72,112.89z"/>
		<path d="M260.78,220.79c-1.27-0.02-2.08-0.61-2.32-1.62c-0.25-1.06,0.27-2.09,1.44-2.45c1.53-0.47,3.11-0.78,4.67-1.16
			c1.32-0.32,2.63-0.69,3.96-0.96c0.59-0.12,1.25-0.16,1.82-0.03c0.77,0.17,1.26,0.75,1.39,1.57c0.13,0.8-0.09,1.51-0.75,1.96
			c-0.44,0.31-0.98,0.53-1.51,0.67c-2.63,0.66-5.27,1.29-7.92,1.92C261.27,220.75,260.96,220.76,260.78,220.79z"/>
		<path d="M197.66,139.27c-0.47,4.09-1.1,4.97-3.57,5.08c-1.33,0.06-2.79,0-3.45-1.31c-0.53-1.05-0.58-2.34-0.9-3.79
			c-0.42,0-0.95-0.01-1.47,0c-1.24,0.02-2.49,0.17-3.71,0.05c-0.96-0.09-1.96-0.37-2.82-0.82c-1.31-0.68-1.63-1.88-0.87-3.15
			c0.5-0.84,1.23-1.54,1.88-2.28c0.61-0.7,1.33-1.31,1.87-2.06c0.66-0.9,0.53-1.31-0.38-1.99c-0.2-0.15-0.42-0.26-0.62-0.41
			c-1.31-1.04-1.54-2.15-0.62-3.57c0.43-0.67,1.05-1.22,1.55-1.84c0.66-0.82,1.37-1.61,1.9-2.5c0.66-1.09,0.53-1.51-0.4-2.43
			c-0.18-0.17-0.38-0.32-0.55-0.5c-1.34-1.39-1.44-2.76-0.27-4.33c0.96-1.29,2.07-2.48,2.95-3.83c1.01-1.55,1.84-3.23,2.73-4.85
			c0.3-0.54,0.51-1.13,0.84-1.66c1.16-1.83,2.73-1.85,3.97-0.05c0.31,0.46,0.53,0.98,0.77,1.48c1.38,3,3.12,5.77,5.28,8.28
			c1.91,2.21,1.82,3.36-0.25,5.39c-1.09,1.06-1.17,1.38-0.34,2.72c0.52,0.83,1.2,1.57,1.83,2.33c0.47,0.57,1.04,1.07,1.45,1.68
			c0.98,1.45,0.75,2.66-0.62,3.72c-0.15,0.11-0.32,0.19-0.47,0.3c-1.11,0.81-1.21,1.18-0.35,2.24c0.74,0.91,1.63,1.7,2.44,2.55
			c0.95,1.01,1.96,2.07,1.37,3.59c-0.57,1.47-2.01,1.79-3.37,1.94c-1.28,0.14-2.6,0.02-3.9,0.01
			C198.96,139.27,198.36,139.27,197.66,139.27z"/>
		<path d="M197.04,211.55c-1.16-0.01-1.72-0.74-2.18-1.7c-0.54-1.1-1.12-2.2-1.82-3.2c-1.16-1.64-2.68-2.89-4.5-3.76
			c-0.5-0.24-1.01-0.48-1.46-0.8c-1-0.72-1.29-1.8-0.8-2.75c0.49-0.95,1.55-1.39,2.69-0.94c1.08,0.43,2.14,0.96,3.13,1.59
			c2.82,1.81,4.95,4.26,6.35,7.3c0.3,0.66,0.55,1.39,0.61,2.11C199.16,210.64,198.24,211.54,197.04,211.55z"/>
		<path d="M211.52,225.51c-0.37-0.12-0.97-0.26-1.54-0.49c-3.46-1.35-6.37-3.52-9.01-6.08c-0.26-0.26-0.51-0.55-0.68-0.87
			c-0.41-0.79-0.26-1.83,0.32-2.42c0.69-0.69,1.54-0.84,2.38-0.41c0.59,0.3,1.11,0.77,1.61,1.23c2.21,2.02,4.63,3.71,7.46,4.76
			c0.34,0.13,0.69,0.28,0.99,0.5c0.77,0.57,1.07,1.34,0.82,2.28C213.63,224.91,212.76,225.52,211.52,225.51z"/>
	</g>
</g>
</svg>
