<?xml version="1.0" encoding="utf-8"?>
<!-- Generator: Adobe Illustrator 23.0.1, SVG Export Plug-In . SVG Version: 6.00 Build 0)  -->
<svg version="1.1" id="Calque_1" xmlns="http://www.w3.org/2000/svg" xmlns:xlink="http://www.w3.org/1999/xlink" x="0px" y="0px"
	 viewBox="0 0 432 432" style="enable-background:new 0 0 432 432;" xml:space="preserve">
<style type="text/css">
	.st0{fill:#282828;}
	.st1{fill:#C0864D;}
	.st2{fill:#BF9C63;}
	.st3{fill:#D67388;}
	.st4{fill:#74AAAF;}
	.st5{fill:#F2ACA5;}
	.st6{fill:#A47B9B;}
	.st7{fill:#D5A8B2;}
	.st8{fill:#B6C8A3;}
	.st9{fill:#3C3C3B;}
	.st10{fill:#E1AD73;}
	.st11{fill:#354F2C;}
	.st12{fill:#9E1D28;}
	.st13{fill:#3E6689;}
	.st14{fill:#036838;}
	.st15{fill:#C7D2D8;}
	.st16{fill:#7D95B2;}
	.st17{fill:#E6E5E5;}
	.st18{fill:#80171B;}
	.st19{fill:#6595AA;}
	.st20{fill:#162640;}
	.st21{fill:#634E42;}
	.st22{fill:#EBCCD2;}
	.st23{fill:#362317;}
	.st24{fill:#C74E26;}
	.st25{fill:#827270;}
	.st26{fill:#EC6C78;}
	.st27{fill:#3C628E;}
	.st28{fill:#544841;}
	.st29{fill:#88525A;}
	.st30{fill:#EA94AA;}
	.st31{fill:#EF8491;}
	.st32{fill:#466C8C;}
	.st33{fill:#BF8E72;}
	.st34{fill:#8A2F2F;}
	.st35{fill:#3F4F45;}
	.st36{fill:#C58247;}
	.st37{fill:#A1272D;}
	.st38{fill:#DFEBF2;}
	.st39{fill:#ABB9CE;}
	.st40{fill:#333333;}
	.st41{fill:#9B3947;}
	.st42{fill:#4D4D4D;}
	.st43{fill:#C2B19F;}
	.st44{fill:#B0C268;}
	.st45{fill:#D98880;}
	.st46{fill:#D95548;}
	.st47{fill:#BA2314;}
	.st48{fill:#CC8A56;}
	.st49{fill:#E6E6E6;}
	.st50{fill:#728290;}
	.st51{fill:#CDDDEC;}
	.st52{fill:#DCE0E3;}
</style>
<g>
	<path class="st0" d="M282.212,350.599c0.895-1.063,1.353-2.185,1.794-3.31c1.314-3.354,2.313-6.812,3.303-10.271
		c1.969-6.874,4.001-13.73,5.697-20.679c0.256-1.05,0.439-2.106,0.503-3.191c0.097-1.629,0.793-2.428,2.366-2.87
		c2.782-0.781,6.026,0.805,7.265,3.552c0.658,1.458,0.897,3.021,1.034,4.587c0.236,2.688,0.414,5.383,0.559,8.078
		c0.34,6.291,0.75,12.577,1.924,18.779c0.837,4.42,1.841,8.803,3.478,13.013c0.376,0.967,0.82,1.901,1.386,2.771
		c0.664,1.021,0.805,1.034,1.705,0.158c1.147-1.116,1.935-2.475,2.6-3.913c1.366-2.955,2.271-6.062,2.964-9.231
		c1.27-5.807,2.097-11.677,2.506-17.611c0.263-3.817,0.416-7.637,0.408-11.46c-0.013-5.992-0.575-11.946-1.415-17.876
		c-0.259-1.825-0.487-3.654-0.713-5.484c-0.083-0.672-0.055-1.349,0.051-2.019c0.179-1.139,0.741-1.738,1.778-1.906
		c1.051-0.17,2.035,0.277,2.525,1.157c0.695,1.249,0.878,2.638,1.045,4.022c0.631,5.224,1.283,10.447,1.588,15.702
		c0.25,4.311,0.373,8.626,0.137,12.948c-0.481,8.818-1.506,17.559-3.591,26.153c-0.807,3.327-1.835,6.585-3.479,9.616
		c-0.452,0.833-0.94,1.638-1.543,2.371c-2.412,2.933-5.878,3.883-9.474,2.577c-2.356-0.855-4.194-2.418-5.767-4.316
		c-2.86-3.452-4.766-7.393-5.919-11.71c-1.141-4.272-1.756-8.634-2.158-13.028c-0.246-2.686-0.409-5.379-0.614-8.128
		c-0.393,0.189-0.402,0.561-0.498,0.879c-1.578,5.21-2.859,10.5-4.284,15.751c-0.6,2.213-1.203,4.429-2.146,6.53
		c-1.544,3.439-4.277,4.726-7.926,3.764c-1.977-0.522-3.589-1.645-5.024-3.04c-2.894-2.815-4.881-6.209-6.235-9.987
		c-1.401-3.908-2.318-7.937-2.964-12.032c-0.188-1.19-0.182-1.189-1.339-1.054c-2.236,0.261-4.477,0.435-6.731,0.456
		c-1.093,0.01-1.123,0.038-1.197,1.096c-0.265,3.774-0.72,7.521-1.55,11.217c-0.873,3.889-2.207,7.599-4.334,10.992
		c-2.427,3.871-5.644,6.77-10.146,7.981c-5.504,1.48-10.521,0.27-15.083-2.99c-3.864-2.761-6.636-6.418-8.549-10.752
		c-0.688-1.559-1.222-3.176-1.936-5.051c-0.523,1.833-0.685,3.448-0.972,5.034c-0.536,2.965-1.022,5.94-1.916,8.827
		c-0.441,1.423-1.006,2.793-1.785,4.067c-1.736,2.838-4.181,3.819-7.384,2.902c-3.16-0.905-5.557-2.899-7.492-5.479
		c-2.074-2.766-3.17-5.928-3.602-9.336c-0.495-3.913-0.121-7.816,0.163-11.719c0.417-5.739,1.191-11.457,0.981-17.232
		c-0.053-1.448-0.249-2.869-0.722-4.24c-0.19-0.55-0.429-1.091-0.713-1.599c-1.067-1.904-2.05-2.287-4.126-1.597
		c-2.175,0.723-4.021,1.998-5.696,3.527c-3.772,3.443-6.055,7.773-7.441,12.624c-1.641,5.747-1.85,11.616-1.456,17.533
		c0.17,2.559,0.36,5.117,0.521,7.676c0.031,0.49-0.011,0.989-0.063,1.478c-0.222,2.078-1.265,3.135-3.338,3.395
		c-1.704,0.214-3.317-0.126-4.847-0.869c-2.706-1.314-4.785-3.338-6.417-5.828c-2.115-3.227-3.521-6.779-4.593-10.464
		c-1.006-3.458-1.758-6.975-2.233-10.548c-0.04-0.303,0.007-0.641-0.405-0.964c-6.243,3.421-12.592,6.765-18.437,11.176
		c0.426,0.563,0.806,1.052,1.171,1.551c1.873,2.556,3.494,5.238,4.226,8.371c0.629,2.695,0.346,5.307-0.937,7.737
		c-1.8,3.409-4.466,5.955-8.036,7.488c-1.511,0.649-3.108,0.933-4.746,0.818c-5.415-0.383-9.225-5.246-8.363-10.632
		c0.392-2.446,1.403-4.637,2.753-6.687c1.194-1.813,2.625-3.426,4.163-4.951c0.784-0.778,0.782-0.793,0.092-1.603
		c-1.547-1.818-3.216-3.523-4.89-5.222c-2.339-2.375-4.587-4.829-6.594-7.497c-2.598-3.454-4.614-7.186-5.47-11.471
		c-0.71-3.556-0.564-7.083,0.518-10.537c2.209-7.052,7.576-11.074,15.017-11.078c6.176-0.003,11.4,2.311,15.432,7.071
		c1.68,1.984,2.91,4.219,3.335,6.831c0.198,1.215,0.196,2.421-0.209,3.599c-0.191,0.557-0.459,1.074-0.883,1.498
		c-1.352,1.353-3.204,1.025-3.923-0.751c-0.353-0.87-0.547-1.805-0.815-2.709c-0.655-2.212-1.45-4.359-2.949-6.164
		c-1.649-1.987-3.783-2.983-6.356-3.056c-1.55-0.044-2.929,0.439-4.124,1.411c-2.821,2.295-4.395,5.292-4.929,8.863
		c-0.602,4.016,0.454,7.667,2.457,11.103c1.415,2.427,3.242,4.538,5.16,6.569c1.947,2.061,3.936,4.082,5.911,6.117
		c0.674,0.694,0.687,0.701,1.53,0.091c3.869-2.799,7.93-5.299,12.019-7.756c2.046-1.229,4.12-2.423,6.344-3.287
		c1.18-0.458,1.465-1.109,1.401-2.321c-0.227-4.321-0.068-8.637,0.563-12.925c0.308-2.093,0.669-4.182,1.582-6.114
		c0.96-2.031,2.559-2.845,4.857-2.549c2.108,0.271,3.716,1.722,4.107,3.725c0.164,0.842,0.194,1.689,0.124,2.552
		c-0.247,3.049-0.551,6.093-0.683,9.151c-0.357,8.262,0.572,16.348,3.264,24.195c0.715,2.086,1.538,4.127,2.77,6.094
		c0.417-0.456,0.263-0.958,0.257-1.397c-0.039-3.331-0.081-6.661,0.206-9.985c0.528-6.111,1.911-11.985,4.856-17.422
		c2.215-4.088,5.103-7.62,8.769-10.491c2.009-1.573,4.21-2.804,6.776-3.152c5.153-0.698,9.141,1.287,12.074,5.483
		c1.555,2.224,2.286,4.767,2.612,7.438c0.484,3.958,0.193,7.913-0.124,11.859c-0.497,6.186-1.214,12.36-0.894,18.584
		c0.111,2.156,0.203,4.316,0.739,6.424c0.302,1.19,0.792,2.291,1.54,3.273c0.326,0.428,0.606,0.45,0.947,0.008
		c0.555-0.718,0.972-1.511,1.348-2.331c1.207-2.634,1.856-5.443,2.567-8.231c1.323-5.189,2.267-10.46,3.303-15.709
		c0.335-1.699-0.038-3.408-0.091-5.112c-0.099-3.147-0.246-6.294,0.085-9.436c0.185-1.754,1.177-2.875,2.786-3.481
		c3.342-1.259,6.534,0.551,7.209,4.104c0.404,2.128,0.458,4.292,0.53,6.45c0.178,5.364,0.665,10.687,2.19,15.862
		c1.284,4.357,3.336,8.34,6.019,12c0.56,0.764,1.208,1.452,1.954,2.043c2.46,1.949,5.484,2.162,8.192,0.559
		c1.456-0.862,2.623-2.04,3.629-3.386c1.247-1.668,2.219-3.488,2.999-5.416c2.067-5.109,2.941-10.457,3.178-15.93
		c0.043-0.998,0.01-1.034-0.993-1.132c-2.417-0.238-4.838-0.428-7.217-0.958c-2.162-0.482-4.253-1.157-6.203-2.222
		c-9.608-5.25-7.13-16.68-1.411-20.955c3.353-2.507,8.084-2.71,11.687-0.466c2.673,1.665,4.586,4.02,5.985,6.807
		c1.49,2.969,2.257,6.155,2.715,9.421c0.187,1.334,0.302,2.68,0.416,4.023c0.051,0.601,0.267,0.873,0.92,0.845
		c2.338-0.099,4.677-0.221,7.018-0.098c0.727,0.038,0.781-0.318,0.705-0.923c-0.332-2.635-0.483-5.288-0.599-7.939
		c-0.122-2.788-0.082-5.578,0.137-8.364c0.203-2.595,1.095-3.929,3.033-4.4c2.361-0.573,4.898,0.488,6.043,2.537
		c0.675,1.208,0.885,2.542,0.976,3.895c0.193,2.873,0.31,5.751,0.543,8.62c0.556,6.823,1.37,13.606,3.491,20.159
		c0.831,2.567,1.77,5.097,2.782,7.598C281.185,348.706,281.589,349.607,282.212,350.599z M250.701,325.09
		c-0.05-0.48-0.118-1.285-0.221-2.086c-0.377-2.948-0.917-5.858-2.103-8.609c-0.921-2.139-2.196-4.024-4.036-5.48
		c-2.334-1.847-4.647-1.627-6.462,0.711c-1.974,2.543-2.682,5.465-2.118,8.638c0.509,2.862,2.199,4.846,4.781,6.132
		c2.88,1.435,5.989,1.845,9.132,2.103C250.765,326.587,250.768,326.552,250.701,325.09z M129.803,356.432
		c-0.011-0.54-0.065-1.07-0.205-1.597c-0.718-2.696-2.24-4.973-3.751-7.256c-0.362-0.546-0.655-0.246-0.945,0.077
		c-1.814,2.013-3.391,4.179-4.377,6.732c-0.342,0.884-0.576,1.796-0.684,2.734c-0.221,1.909,0.155,3.665,1.425,5.163
		c1.105,1.303,2.257,1.589,3.849,0.983C127.677,362.291,129.816,359.172,129.803,356.432z"/>
	<path class="st0" d="M180.053,83.794c0.137-0.04,0.189-0.041,0.222-0.067c5.367-4.375,11.643-6.701,18.315-8.146
		c6.645-1.439,13.36-1.763,20.132-1.394c10.505,0.571,20.789,2.536,31.017,4.859c5.394,1.225,10.8,2.395,16.264,3.262
		c2.295,0.364,1.847,0.438,2.01-1.549c0.282-3.451,0.283-6.924,0.776-10.36c0.128-0.893,0.294-1.778,0.612-2.622
		c1.156-3.068,4.375-3.92,6.907-1.825c1.231,1.019,1.888,2.381,2.211,3.92c0.233,1.107,0.272,2.229,0.28,3.356
		c0.024,3.152-0.114,6.298-0.274,9.444c-0.051,0.998-0.02,1.031,0.898,1.069c6.937,0.283,13.855,0.165,20.721-1.022
		c1.291-0.223,2.548-0.548,3.76-1.046c0.291-0.12,0.585-0.238,0.888-0.321c1.032-0.283,1.749,0.005,2.165,0.848
		c0.429,0.869,0.194,1.723-0.707,2.334c-0.935,0.634-1.957,1.097-3.05,1.406c-1.304,0.368-2.64,0.568-3.976,0.739
		c-6.399,0.816-12.821,1.053-19.263,0.684c-1.808-0.103-1.788-0.102-1.933,1.728c-0.567,7.135-0.869,14.283-0.992,21.436
		c-0.1,5.762,0.203,11.515,0.572,17.265c0.277,4.317,0.78,8.599,1.742,12.821c0.69,3.03,2.024,5.753,3.869,8.245
		c1.436,1.939,2.899,2.167,4.979,0.269c1.011-0.922,1.659-2.117,2.241-3.344c1.167-2.459,1.774-5.087,2.375-7.72
		c0.2-0.876,0.393-1.757,0.658-2.614c0.361-1.167,1.655-1.639,2.727-1.044c0.579,0.322,0.755,0.82,0.742,1.467
		c-0.035,1.728-0.499,3.378-0.855,5.047c-0.442,2.071-1.01,4.105-1.887,6.041c-0.635,1.403-1.444,2.697-2.475,3.843
		c-3.069,3.411-7.705,3.935-11.456,1.297c-1.449-1.019-2.632-2.314-3.755-3.668c-3.656-4.412-5.933-9.5-7.454-14.986
		c-1.695-6.109-2.521-12.326-2.601-18.655c-0.006-0.49,0.061-0.989-0.113-1.504c-0.113-0.019-0.257-0.093-0.351-0.052
		c-4.518,1.939-8.927,4.068-12.65,7.371c-0.168,0.149-0.326,0.311-0.5,0.454c-0.394,0.322-0.395,0.631-0.065,1.025
		c0.894,1.07,1.778,2.151,2.63,3.254c2.951,3.817,5.196,7.979,6.252,12.732c0.747,3.364,0.477,6.621-0.958,9.755
		c-2.503,5.467-8.666,8.229-14.301,6.434c-2.799-0.892-4.853-2.7-6.261-5.238c-2.161-3.897-2.412-8.051-1.437-12.308
		c0.904-3.948,2.683-7.525,4.88-10.908c0.679-1.045,0.852-0.819-0.117-1.912c-1.637-1.847-3.293-3.678-4.989-5.571
		c-0.477,0.513-0.522,1.112-0.678,1.639c-2.318,7.804-4.328,15.689-6.245,23.599c-0.583,2.404-1.241,4.79-2.182,7.084
		c-0.53,1.294-1.142,2.548-2.031,3.641c-1.737,2.138-4.231,2.619-6.647,1.299c-0.716-0.392-1.346-0.901-1.93-1.466
		c-4.254-4.117-6.665-9.073-6.97-15.039c-0.359-7.029,0.027-14.032,0.6-21.031c0.055-0.67,0.145-1.35,0.33-1.993
		c0.183-0.639,0.041-0.891-0.627-0.985c-1.335-0.188-2.66-0.446-3.989-0.679c-2.036-0.356-4.027-0.907-6.011-1.441
		c-0.373,0.302-0.258,0.687-0.29,1.02c-0.694,7.311-1.795,14.553-3.781,21.636c-0.959,3.422-2.07,6.797-3.44,10.08
		c-0.73,1.749-1.62,3.412-2.678,4.985c-0.529,0.787-1.11,1.531-1.808,2.176c-2.42,2.235-5.168,2.812-8.226,1.528
		c-2.624-1.102-4.798-2.836-6.582-5.036c-3.247-4.005-4.934-8.643-5.334-13.747c-0.229-2.919-0.114-5.847,0.119-8.767
		c0.081-1.01,0.091-1.05-0.816-1.132c-3.27-0.294-6.526-0.748-9.811-0.872c-0.63-0.024-1.26-0.041-1.89-0.04
		c-1.203,0.001-1.227,0.011-1.054,1.204c0.516,3.568,0.877,7.146,0.727,10.756c-0.107,2.57-0.393,5.128-1.326,7.544
		c-2.281,5.907-6.345,9.97-12.678,11.126c-6.863,1.253-12.987-1.922-15.987-7.305c-2.112-3.789-3.001-7.793-1.991-12.089
		c1.139-4.844,4.164-8.188,8.513-10.401c3.23-1.644,6.676-2.642,10.241-3.282c1.842-0.331,1.895,0.192,1.496-2.173
		c-1.395-8.259-2.394-16.559-2.547-24.943c-0.09-4.938,0.42-9.79,2.167-14.457c1.483-3.963,3.732-7.349,7.142-9.943
		c3.952-3.008,8.246-3.771,12.986-2.31c4.429,1.366,7.9,4.022,10.612,7.72c1.442,1.966,2.578,4.113,3.548,6.349
		C179.584,82.984,179.652,83.451,180.053,83.794z M249.709,118.506c0.227-0.167,0.376-0.267,0.513-0.38
		c4.511-3.729,9.563-6.567,14.911-8.872c1.053-0.454,1.387-0.969,1.408-2.046c0.132-6.614,0.423-13.222,0.94-19.819
		c0.099-1.267,0.067-1.264-1.124-1.458c-4.396-0.712-8.766-1.561-13.101-2.581c-9.854-2.32-19.723-4.534-29.844-5.383
		c-7.113-0.597-14.201-0.619-21.25,0.683c-4.622,0.854-9.101,2.147-13.306,4.296c-2.295,1.173-4.409,2.605-6.383,4.264
		c-0.741,0.622-1.056,1.195-0.716,2.189c0.377,1.1,0.546,2.271,0.798,3.413c0.862,3.916,1.069,7.838,0.088,11.768
		c-0.296,1.185-0.688,2.336-1.404,3.34c-1.765,2.473-4.481,2.787-6.759,0.772c-1.395-1.234-2.224-2.811-2.637-4.61
		c-0.566-2.465-0.307-4.924,0.13-7.371c0.607-3.403,2.052-6.422,4.35-8.997c0.639-0.716,0.7-1.312,0.341-2.164
		c-0.999-2.368-2.081-4.686-3.492-6.841c-1.278-1.952-2.876-3.598-4.919-4.727c-5.131-2.834-8.832-2.023-12.141,3.142
		c-1.051,1.64-1.708,3.477-2.076,5.389c-1.078,5.598-1.302,11.256-0.994,16.934c0.381,7.015,1.309,13.967,2.588,20.874
		c0.185,0.997,0.178,1.017,1.172,1.029c4.1,0.047,8.173,0.487,12.251,0.847c1.202,0.106,1.549,0.471,1.773-1.2
		c0.047-0.353,0.173-0.699,0.296-1.037c0.751-2.072,2.402-3.002,4.572-2.588c3.142,0.599,5.057,2.874,4.999,6.08
		c-0.031,1.707-0.19,3.414-0.349,5.115c-0.548,5.832-0.158,11.594,1.271,17.274c0.407,1.616,0.949,3.197,1.985,4.547
		c0.958,1.249,1.686,1.35,2.967,0.407c0.995-0.732,1.721-1.709,2.384-2.731c1.33-2.049,2.317-4.268,3.156-6.552
		c3.424-9.32,5.111-18.999,5.967-28.852c0.072-0.834-0.16-1.278-0.948-1.646c-3.022-1.411-5.627-3.381-7.605-6.102
		c-1.986-2.733-2.829-5.801-2.507-9.162c0.183-1.911,0.777-3.702,1.96-5.242c1.599-2.082,4.023-2.642,6.391-1.516
		c1.168,0.555,2.068,1.425,2.821,2.457c1.208,1.657,2.003,3.511,2.566,5.469c1.03,3.579,1.277,7.253,1.309,10.953
		c0.015,1.718-0.245,1.436,1.496,2.008c3.388,1.112,6.898,1.684,10.407,2.242c0.618,0.098,1.23,0.211,1.874,0.162
		c3.699-0.277,6.7,2.373,6.813,6.068c0.051,1.662-0.018,3.331-0.11,4.993c-0.381,6.883-0.432,13.76,0.221,20.632
		c0.153,1.611,0.098,3.24,0.389,4.841c0.197,1.08,0.38,2.165,0.999,3.254c0.701-0.743,1.062-1.513,1.421-2.277
		c0.846-1.798,1.392-3.702,1.91-5.613c2.507-9.245,5.044-18.482,8.184-27.537c0.358-1.033,0.332-1.795-0.255-2.735
		c-1.318-2.11-2.309-4.39-2.551-6.902c-0.446-4.632,1.213-8.568,4.193-11.999c1.21-1.392,2.799-2.241,4.612-2.637
		c4.06-0.888,9.198,1.224,11.723,4.826c0.676,0.965,1.207,2.006,1.493,3.155c0.228,0.918,0.408,1.854,0.285,2.803
		c-0.145,1.115-1.057,1.583-2.068,1.099c-0.521-0.249-0.833-0.678-0.986-1.22c-0.135-0.476-0.236-0.961-0.366-1.438
		c-0.351-1.287-0.986-2.404-1.96-3.329c-2.287-2.169-4.845-1.813-6.301,0.997c-1.162,2.242-1.639,4.677-1.252,7.197
		C243.015,111.527,246.379,114.992,249.709,118.506z M147.303,137.955c0.03-2.158-0.241-4.392-0.39-6.633
		c-0.102-1.522-0.316-3.037-0.481-4.555c-0.146-1.344-0.149-1.363-1.441-1.154c-2.764,0.447-5.411,1.295-7.984,2.384
		c-7.185,3.042-8.646,9.693-7.527,14.752c0.689,3.117,2.129,5.819,4.887,7.636c3.131,2.063,6.566,1.737,9.215-0.909
		c1.864-1.862,3.005-4.115,3.444-6.725C147.288,141.191,147.324,139.622,147.303,137.955z M246.977,128.531
		c-2.18,4.064-4.037,8.218-3.766,12.993c0.11,1.949,0.556,3.826,1.602,5.514c0.477,0.77,1.025,1.483,1.782,2.002
		c1.06,0.725,1.696,0.697,2.676-0.126c1.258-1.058,1.969-2.422,2.257-4.032c0.4-2.24,0.284-4.477,0.023-6.719
		c-0.42-3.603-2.044-6.665-4.221-9.482C247.282,128.62,247.171,128.61,246.977,128.531z M198.314,107.597
		c0.074-2.022-0.014-3.9-0.284-5.766c-0.42-2.901-1.068-5.738-2.611-8.285c-1.009-1.664-1.51-1.651-2.42,0.07
		C190.593,98.168,191.846,104.547,198.314,107.597z M178.46,91.976c-0.227,0.185-0.315,0.228-0.361,0.298
		c-2.206,3.365-2.863,7.111-2.654,11.05c0.045,0.846,0.264,1.682,0.725,2.428c0.28,0.453,0.59,0.486,0.981,0.141
		c0.596-0.527,0.875-1.241,1.153-1.949C179.845,100.019,179.57,96.07,178.46,91.976z"/>
	<path class="st0" d="M289.206,191.064c0,1.402,0.019,2.612-0.003,3.821c-0.158,8.448,0.632,16.804,2.385,25.07
		c0.084,0.395,0.131,0.8,0.167,1.203c0.163,1.829-0.758,3.004-2.586,3.315c-2.576,0.438-4.79-0.861-5.566-3.361
		c-1.63-5.249-2.873-10.589-3.561-16.048c-0.335-2.662-0.608-5.332-0.923-8.119c-0.474,0.409-0.53,0.918-0.696,1.354
		c-1.567,4.124-3.246,8.197-5.403,12.056c-0.989,1.768-2.035,3.501-3.226,5.142c-1.277,1.759-2.761,3.319-4.47,4.664
		c-4.372,3.439-9.187,4.305-14.475,2.525c-3.493-1.176-6.454-3.15-8.91-5.881c-2.364-2.628-4.292-5.544-5.718-8.788
		c-0.173-0.393-0.236-0.861-0.628-1.155c-0.393,0.428-0.439,0.99-0.608,1.492c-0.92,2.727-1.772,5.477-2.953,8.109
		c-0.553,1.233-1.138,2.45-1.932,3.55c-1.735,2.402-4.31,3.249-7.146,2.374c-1.362-0.42-2.527-1.162-3.552-2.137
		c-1.216-1.158-2.169-2.519-3.034-3.949c-2.593-4.285-4.178-8.938-5.184-13.826c-0.89-4.327-1.409-8.699-1.822-13.089
		c-0.098-1.039-0.115-1.072-1.073-1.097c-2.609-0.067-5.219-0.095-7.83-0.018c-0.766,0.023-1.074,0.258-1.231,1.042
		c-1.018,5.07-2.083,10.131-3.166,15.188c-0.736,3.433-1.629,6.824-2.934,10.093c-0.652,1.634-1.416,3.21-2.406,4.669
		c-0.481,0.709-1.007,1.381-1.606,1.996c-3.142,3.223-7.213,3.559-10.829,0.861c-1.982-1.479-3.468-3.393-4.646-5.548
		c-1.929-3.527-2.967-7.309-3.278-11.315c-0.41-5.272,0.049-10.522,0.312-15.778c0.112-2.242,0.108-2.237-2.058-2.746
		c-1.357-0.319-2.709-0.657-4.062-0.992c-1.098-0.272-1.088-0.274-1.156,0.862c-0.337,5.631-1.198,11.179-2.704,16.618
		c-0.952,3.439-2.321,6.714-4.088,9.816c-1.053,1.848-2.287,3.563-3.897,4.971c-3.834,3.351-8.182,4.367-13.059,2.766
		c-4.536-1.489-8.032-4.348-10.661-8.294c-3.184-4.779-4.881-10.099-5.569-15.755c-0.462-3.801-0.544-7.628-0.519-11.456
		c0.002-0.315-0.019-0.632,0.006-0.945c0.051-0.634-0.199-0.875-0.855-0.862c-1.529,0.032-3.06,0.005-4.589-0.013
		c-1.396-0.016-2.788-0.12-4.169-0.326c-0.848-0.126-1.7-0.282-2.369-0.878c-0.531-0.473-0.846-1.072-0.688-1.803
		c0.157-0.726,0.753-0.958,1.396-1.091c1.503-0.31,3.032-0.385,4.556-0.509c1.973-0.161,3.943-0.356,5.918-0.475
		c0.738-0.045,0.994-0.307,1.01-1.052c0.049-2.249,0.176-4.496,0.266-6.744c0.083-2.069,0.231-4.133,0.58-6.176
		c0.113-0.662,0.278-1.322,0.495-1.957c0.914-2.666,3.233-3.671,5.82-2.53c2.093,0.923,3.126,2.617,3.42,4.823
		c0.239,1.792,0.196,3.59,0.128,5.391c-0.085,2.248-0.135,4.498-0.175,6.748c-0.018,1.036,0.01,1.058,1.046,1.045
		c1.395-0.017,2.79-0.051,4.184-0.117c0.908-0.043,1.799,0.071,2.685,0.214c1.217,0.195,2.164,1.148,2.356,2.295
		c0.159,0.951-0.179,1.572-1.086,1.904c-0.721,0.264-1.474,0.379-2.247,0.409c-2.023,0.078-4.046,0.179-6.068,0.281
		c-1.014,0.051-1.044,0.06-1.045,1.1c-0.003,4.547,0.149,9.085,0.628,13.612c0.374,3.534,0.715,7.07,1.476,10.549
		c0.444,2.029,0.989,4.022,2.119,5.798c1.22,1.918,2.833,3.364,5.018,4.104c1.517,0.513,3.011,0.431,4.472-0.217
		c1.723-0.764,3.124-1.944,4.307-3.394c1.782-2.186,3.039-4.669,4.061-7.278c1.982-5.059,3.095-10.331,3.761-15.704
		c0.238-1.919,0.398-3.85,0.513-5.78c0.097-1.628,0.086-1.347-1.178-1.818c-2.744-1.023-5.42-2.194-7.95-3.678
		c-2.231-1.308-4.254-2.861-5.837-4.938c-3.948-5.18-3.838-11.59,0.29-16.229c1.254-1.409,2.724-2.491,4.608-2.89
		c2.773-0.586,5.16,0.23,7.216,2.096c1.56,1.415,2.634,3.18,3.488,5.085c1.546,3.449,2.203,7.116,2.647,10.835
		c0.278,2.327,0.342,4.667,0.399,7.006c0.017,0.691,0.227,1.035,0.935,1.216c2.222,0.569,4.45,1.106,6.7,1.555
		c0.773,0.154,1.469,0.041,2.223-0.223c3.223-1.125,6.971,0.826,7.731,3.958c0.193,0.795,0.187,1.61,0.161,2.418
		c-0.098,3.013-0.236,6.025-0.322,9.038c-0.138,4.867,0.11,9.717,0.806,14.537c0.238,1.65,0.635,3.272,1.399,4.771
		c0.75,1.472,1.166,1.559,2.431,0.548c1.179-0.943,2.035-2.156,2.789-3.443c1.42-2.425,2.357-5.047,3.121-7.737
		c1.34-4.721,2.208-9.55,3.237-14.341c1.52-7.078,2.907-14.189,5.118-21.098c1.249-3.901,2.695-7.728,4.587-11.373
		c0.375-0.722,0.813-1.4,1.359-2.006c1.015-1.126,2.294-1.552,3.773-1.352c2.479,0.337,4.314,1.697,5.704,3.712
		c1.433,2.077,2.158,4.437,2.658,6.875c0.616,3.003,0.879,6.053,1.055,9.107c0.358,6.204,0.234,12.418,0.369,18.627
		c0.115,5.269,0.442,10.519,1.843,15.641c0.56,2.047,1.228,4.049,2.398,5.842c1.548,2.372,2.304,2.358,3.767-0.067
		c1.38-2.286,2.32-4.769,3.208-7.272c1.204-3.392,2.182-6.855,3.172-10.313c0.22-0.769,0.128-1.52,0.068-2.276
		c-0.6-7.61,0.542-14.979,3.068-22.151c0.809-2.297,1.894-4.463,3.222-6.516c3.853-5.961,10.392-7.526,16.178-5.786
		c6.631,1.994,10.931,6.524,13.514,12.817c0.67,1.632,1.144,3.318,1.145,5.104c0.001,0.677-0.037,1.348-0.305,1.987
		c-0.477,1.136-1.375,1.701-2.417,1.505c-0.973-0.183-1.437-0.777-1.478-2.095c-0.113-3.627-1.327-6.87-3.41-9.794
		c-1.558-2.188-3.549-3.802-6.258-4.389c-1.986-0.43-3.654,0.09-4.999,1.595c-1.756,1.965-3.087,4.206-4.108,6.624
		c-2.553,6.047-3.799,12.365-3.751,18.924c0.029,3.944,0.933,7.757,1.952,11.542c0.538,1.998,1.102,3.99,1.988,5.87
		c1.133,2.406,2.721,4.44,4.916,5.976c2.336,1.635,4.778,1.653,7.283,0.466c1.19-0.564,2.193-1.404,3.133-2.32
		c1.954-1.903,3.451-4.145,4.8-6.492c3.42-5.954,5.952-12.299,8.206-18.764c0.311-0.892,0.55-1.812,0.911-2.682
		c1.051-2.529,1.484-5.155,1.5-7.886c0.02-3.421,0.288-6.833,0.613-10.237c0.257-2.688,0.631-5.36,1.365-7.967
		c0.269-0.954,0.604-1.887,1.091-2.754c1.499-2.668,4.603-3.147,6.85-1.052c1.222,1.14,1.73,2.596,1.799,4.232
		c0.08,1.899-0.253,3.767-0.418,5.648c-0.134,1.523-0.244,3.049-0.397,4.57c-0.067,0.668,0.169,0.924,0.831,0.798
		c0.794-0.151,1.603-0.244,2.384-0.443c3.329-0.85,6.522-2.039,9.44-3.892c0.417-0.265,0.852-0.504,1.287-0.74
		c0.824-0.448,1.634-0.455,2.405,0.127c0.786,0.593,1.114,1.388,1.009,2.361c-0.098,0.903-0.612,1.584-1.227,2.194
		c-0.838,0.832-1.825,1.463-2.874,1.991c-3.291,1.66-6.777,2.638-10.452,2.938c-0.223,0.018-0.447,0.043-0.669,0.07
		c-0.038,0.005-0.072,0.038-0.112,0.061c-0.147,0.301,0.074,0.514,0.203,0.734c2.002,3.419,3.758,6.966,5.529,10.507
		c2.598,5.195,5.311,10.323,8.853,14.961c1.644,2.152,3.439,4.157,5.473,5.953c1.871,1.653,3.919,3.012,6.198,4.031
		c1.034,0.462,1.999,1.026,2.733,1.925c0.464,0.569,0.805,1.188,0.941,1.915c0.255,1.365-0.554,2.406-1.947,2.485
		c-0.884,0.05-1.673-0.292-2.46-0.631c-6.053-2.605-11.194-6.438-15.588-11.345c-4.444-4.963-8.099-10.444-11.16-16.341
		c-0.311-0.599-0.632-1.192-0.958-1.782C289.605,191.296,289.506,191.265,289.206,191.064z M159.743,180.738
		c0.219-0.373,0.144-0.741,0.126-1.089c-0.077-1.48-0.138-2.964-0.28-4.438c-0.333-3.451-0.894-6.86-2.129-10.122
		c-0.706-1.864-1.616-3.614-3.047-5.035c-1.575-1.565-2.968-1.671-4.618-0.203c-2.654,2.362-3.877,5.385-3.532,8.918
		c0.326,3.34,2.17,5.843,4.827,7.774c2.491,1.812,5.283,3.049,8.148,4.131C159.397,180.734,159.584,180.719,159.743,180.738z
		 M207.529,163.977c-2.188,2.092-7.089,16.307-6.899,19.902c2.593-0.204,5.191-0.199,7.789-0.102
		c0.498,0.019,0.594-0.295,0.571-0.705c-0.066-1.166-0.141-2.332-0.194-3.499c-0.194-4.309-0.49-8.611-0.912-12.904
		C207.8,165.798,207.657,164.932,207.529,163.977z"/>
	<g>
		<path class="st0" d="M284.443,295.319c0.883-1.281,1.354-2.538,1.784-3.809c1.143-3.377,1.823-6.865,2.391-10.374
			c0.46-2.841,0.865-5.691,1.294-8.538c0.128-0.851,0.092-1.67-0.115-2.53c-2.777-11.492-1.795-22.677,2.902-33.518
			c1.259-2.905,2.93-5.578,5.234-7.797c2.615-2.519,5.725-3.649,9.36-3.247c1.447,0.16,2.813,0.596,4.12,1.22
			c7.083,3.383,11.283,11.95,9.663,19.628c-1.929,9.141-17.208,8.518-21.152,8.166c-1.064-0.095-1.143,0-1.227,1.073
			c-0.583,7.459,0.593,14.618,3.712,21.433c0.846,1.849,1.948,3.55,3.291,5.082c2.322,2.65,4.834,3.115,7.965,1.463
			c2.252-1.187,3.926-2.986,5.238-5.135c1.177-1.927,2.152-3.96,2.803-6.119c0.6-1.987,1.481-3.861,2.152-5.818
			c0.432-1.261,1.582-1.622,2.696-0.945c0.65,0.395,0.935,0.977,0.806,1.713c-0.926,5.267-2.315,10.362-5.569,14.751
			c-1.214,1.638-2.612,3.094-4.295,4.258c-4.008,2.774-8.307,3.282-12.822,1.489c-4.126-1.638-7.34-4.482-10.054-7.933
			c-0.417-0.53-0.804-1.083-1.209-1.622c-0.023-0.031-0.081-0.035-0.135-0.057c-0.424,0.121-0.28,0.499-0.313,0.774
			c-0.565,4.692-1.265,9.36-2.428,13.947c-0.41,1.618-0.921,3.2-1.805,4.633c-1.818,2.947-4.871,3.776-7.936,2.142
			c-1.675-0.893-2.885-2.282-3.92-3.829c-2.033-3.04-3.164-6.435-3.916-9.985c-0.939-4.438-0.856-8.946-0.978-13.439
			c-0.076-2.789-0.084-5.579-0.123-8.369c-0.01-0.721-0.069-1.436-0.288-2.191c-0.549,0.059-0.805,0.51-1.109,0.851
			c-1.292,1.455-2.321,3.092-3.219,4.812c-2.454,4.703-4.028,9.709-5.068,14.893c-0.398,1.984-0.722,3.982-1.094,5.971
			c-0.115,0.618-0.279,1.226-0.418,1.839c-0.83,3.65-3.766,4.041-6.074,3.523c-1.901-0.427-3.464-1.472-4.853-2.793
			c-1.945-1.849-3.449-4.024-4.669-6.405c-0.182-0.356-0.4-0.695-0.607-1.038c-0.013-0.022-0.076-0.015-0.258-0.045
			c-0.222,1.115-0.441,2.24-0.671,3.362c-0.579,2.82-1.17,5.636-2.132,8.359c-0.436,1.234-0.957,2.428-1.668,3.53
			c-1.958,3.034-5.198,4.379-8.753,3.666c-2.503-0.502-4.602-1.756-6.491-3.413c-2.437-2.137-4.283-4.722-5.737-7.602
			c-2.714-5.374-4.161-11.092-4.643-17.074c-0.811-10.078,0.186-20.033,2.028-29.932c0.113-0.609,0.215-1.22,0.319-1.811
			c-0.468-0.324-0.86-0.065-1.228,0.005c-3.125,0.597-6.058,1.704-8.718,3.464c-1.894,1.253-3.593,2.69-4.514,4.872
			c-0.356,0.843-1.377,1.13-2.318,0.794c-0.846-0.302-1.284-0.991-1.133-1.903c0.203-1.231,0.815-2.28,1.586-3.237
			c1.836-2.276,4.083-4.049,6.681-5.376c2.946-1.504,6.039-2.556,9.331-2.989c1.378-0.181,1.374-0.197,1.728-1.564
			c0.631-2.438,1.275-4.872,2.199-7.22c0.297-0.754,0.619-1.497,1.092-2.162c1.048-1.473,2.529-1.988,4.26-1.486
			c2.593,0.752,4.016,3.094,3.714,6.124c-0.174,1.747-0.483,3.473-0.83,5.193c-0.053,0.264-0.091,0.534-0.166,0.792
			c-0.201,0.69,0.118,0.953,0.762,1.092c4.719,1.012,9.237,2.679,13.786,4.245c1.163,0.4,1.169,0.395,1.642-0.73
			c1.138-2.708,2.497-5.293,4.408-7.544c3.824-4.502,8.632-6.806,14.606-6.405c2.293,0.154,4.399,0.906,6.291,2.208
			c4.555,3.134,5.599,8.887,2.442,13.424c-1.983,2.85-4.809,4.405-8.124,5.148c-2.971,0.666-5.972,0.661-8.994,0.366
			c-2.25-0.219-1.9-0.616-2.441,1.727c-2.168,9.374-1.69,18.664,1.102,27.846c0.64,2.106,1.392,4.179,2.12,6.258
			c0.144,0.412,0.225,0.878,0.652,1.243c0.414-0.675,0.488-1.429,0.649-2.144c0.946-4.212,1.846-8.436,3.255-12.528
			c1.557-4.523,3.457-8.884,6.082-12.904c0.666-1.02,1.38-2.003,2.237-2.87c1.503-1.522,3.288-2.109,5.414-1.644
			c2.884,0.632,4.899,2.347,6.256,4.907c0.92,1.736,1.348,3.624,1.572,5.551c0.224,1.92,0.396,3.849,0.493,5.78
			c0.234,4.628,0.395,9.26,0.617,13.889c0.134,2.786,0.335,5.568,0.809,8.322C283.893,293.777,283.983,294.494,284.443,295.319z
			 M224.544,267.923c-0.081,3.176,0.24,7.029,0.698,10.87c0.362,3.033,0.772,6.065,1.578,9.021c0.772,2.833,1.836,5.546,3.486,7.998
			c0.555,0.825,1.205,1.571,2.032,2.14c0.994,0.684,1.491,0.644,2.378-0.192c0.596-0.562,1.034-1.242,1.416-1.96
			c0.742-1.395,1.276-2.874,1.716-4.386c1.584-5.444,2.698-10.995,3.747-16.56c0.119-0.63,0.045-1.249-0.069-1.874
			c-0.564-3.102-0.853-6.236-0.911-9.384c-0.099-5.33,0.473-10.591,1.88-15.742c0.244-0.894,0.202-0.951-0.67-1.224
			c-1.887-0.59-3.777-1.169-5.666-1.751c-2.491-0.768-5.004-1.461-7.557-1.989c-1.494-0.309-1.379-0.383-1.641,1.037
			C225.54,251.629,224.538,259.374,224.544,267.923z M316.845,245.018c1.095-3.982-0.381-8.501-3.622-11.026
			c-2.004-1.561-3.576-1.589-5.648-0.09c-1.298,0.939-2.268,2.178-3.138,3.498c-2.486,3.773-3.909,7.975-4.906,12.341
			c-0.169,0.741-0.073,0.825,0.742,0.83C311.764,250.634,315.557,249.704,316.845,245.018z M254.15,246.24
			c1.195,0.482,2.428,0.438,3.622,0.489c2.915,0.123,5.745-0.263,8.243-1.939c2.272-1.524,3.74-3.603,4.115-6.35
			c0.421-3.088-1.938-5.358-4.99-4.83c-1.451,0.251-2.706,0.935-3.815,1.888c-2.239,1.924-4.023,4.215-5.429,6.804
			C255.215,243.558,254.561,244.83,254.15,246.24z"/>
		<path class="st0" d="M176.893,242.333c-1.464,0.555-2.589,1.476-3.551,2.631c-1.863,2.236-3.211,4.773-4.3,7.451
			c-2.147,5.278-3.449,10.787-4.345,16.394c-0.511,3.195-0.883,6.412-1.355,9.613c-0.137,0.931-0.338,1.862-0.616,2.76
			c-0.69,2.221-2.252,3.372-4.594,3.501c-1.908,0.105-3.657-0.414-5.277-1.368c-3.464-2.04-5.818-5.05-7.38-8.698
			c-1.411-3.299-2.028-6.796-2.378-10.345c-0.407-4.136-0.325-8.266,0.174-12.391c0.026-0.218,0.003-0.441,0.003-0.894
			c-1.343,0.907-2.593,1.677-3.929,2.285c-0.486,0.221-0.346,0.688-0.344,1.07c0.017,2.884-0.179,5.755-0.524,8.616
			c-0.526,4.358-1.55,8.58-3.481,12.55c-0.612,1.257-1.318,2.457-2.145,3.585c-3.382,4.611-8.288,6.388-13.8,4.883
			c-5.883-1.606-9.914-5.404-12.13-10.998c-2.682-6.769-2.995-13.738-1.121-20.787c0.289-1.088,0.682-2.14,1.267-3.113
			c0.922-1.534,2.296-2.235,4.058-2.188c1.439,0.038,2.743,0.506,3.848,1.429c1.311,1.095,1.918,2.455,1.46,4.191
			c-0.983,3.723-1.453,7.5-1.167,11.355c0.3,4.051,1.409,7.865,3.35,11.432c0.561,1.031,1.238,1.987,2.111,2.785
			c1.854,1.697,3.674,1.828,5.752,0.426c1.253-0.846,2.219-1.965,3.031-3.223c1.377-2.133,2.321-4.46,3.072-6.876
			c1.277-4.109,1.862-8.331,2.058-12.615c0.051-1.124,0.018-1.162-1.091-1.05c-3.425,0.347-6.754-0.042-9.905-1.436
			c-5.542-2.452-9.16-6.568-10.4-12.575c-1.238-6.003,2.009-11.545,7.624-13.114c3.668-1.025,6.939-0.146,9.849,2.217
			c1.807,1.467,3.165,3.31,4.287,5.334c1.971,3.556,2.975,7.409,3.483,11.411c0.135,1.061,0.246,2.125,0.363,3.15
			c0.42,0.217,0.663-0.046,0.917-0.202c0.769-0.472,1.48-1.023,2.142-1.636c1.378-1.276,2.468-2.647,2.604-4.687
			c0.107-1.601,0.554-3.188,1.064-4.727c0.823-2.487,2.576-3.459,5.136-2.885c3.076,0.689,4.773,3.061,4.428,6.274
			c-0.245,2.28-0.568,4.551-0.844,6.828c-0.586,4.827-1.025,9.659-0.727,14.534c0.296,4.833,1.616,9.373,3.74,13.699
			c0.17,0.346,0.277,0.766,0.778,0.962c0.628-1.656,0.89-3.376,1.19-5.08c1.146-6.512,2.352-13.009,4.31-19.34
			c1.012-3.272,2.187-6.48,3.831-9.491c1.188-2.176,2.519-4.273,4.392-5.941c2.855-2.542,6.082-2.925,9.541-1.436
			c2.421,1.042,4.11,2.86,5.199,5.245c0.853,1.869,1.217,3.856,1.336,5.887c0.239,4.054-0.053,8.094-0.386,12.131
			c-0.443,5.379-0.931,10.755-1.195,16.147c-0.2,4.09-0.404,8.178-0.328,12.275c0.043,2.301,0.3,4.578,0.863,6.811
			c0.331,1.315,0.801,2.582,1.665,3.656c0.477,0.594,0.639,0.594,1.156,0.006c0.846-0.961,1.359-2.113,1.794-3.3
			c1.025-2.793,1.721-5.679,2.359-8.577c0.938-4.259,1.837-8.527,2.76-12.79c0.2-0.923,0.409-1.846,0.847-2.695
			c0.364-0.705,0.928-1.074,1.74-1.04c0.806,0.034,1.536,0.695,1.333,1.725c-1.198,6.088-2.285,12.197-3.416,18.298
			c-0.468,2.524-1.03,5.023-2.114,7.372c-0.531,1.15-1.149,2.245-2.024,3.172c-1.636,1.735-3.635,2.247-5.912,1.647
			c-2.284-0.602-3.951-2.092-5.343-3.915c-1.74-2.278-2.919-4.85-3.781-7.568c-1.452-4.577-2.17-9.271-2.213-14.075
			c-0.038-4.238,0.374-8.446,0.741-12.658c0.441-5.063,1.057-10.112,1.201-15.197c0.05-1.754,0.062-3.509-0.241-5.25
			C177.3,243.387,177.223,242.865,176.893,242.333z M131.774,251.793c0.629-0.03,1.261-0.031,1.886-0.097
			c0.936-0.099,1.002-0.162,0.97-1.076c-0.033-0.943-0.112-1.886-0.2-2.827c-0.29-3.099-0.807-6.155-1.894-9.085
			c-0.901-2.427-2.092-4.69-4.045-6.456c-2.78-2.513-5.936-2.322-8.418,0.483c-0.541,0.611-0.972,1.292-1.308,2.036
			c-0.843,1.865-1.024,3.818-0.677,5.81C119.257,247.303,124.71,251.75,131.774,251.793z"/>
	</g>
</g>
</svg>
